<svg xmlns="http://www.w3.org/2000/svg" viewBox="0 0 512 512"><defs><style>.cls-1{fill:#f7bb38;}.cls-2{fill:#a3b564;}.cls-3{fill:#95a35a;}.cls-4{fill:#c6e580;}.cls-5{fill:#bad376;}.cls-6{fill:#27273d;}.cls-7{fill:#fff;}.cls-8{fill:#3586cb;}.cls-9{fill:#e82d86;}.cls-10{fill:#ce257e;}.cls-11{fill:#e0a42d;}.cls-12{fill:#fc715a;}.cls-13{fill:#d9ed9f;}</style></defs><title>50 Monsters Avatar Icons</title><g id="BULINE"><circle class="cls-1" cx="256" cy="256" r="256"/></g><g id="Icons"><path class="cls-2" d="M318.77,414v90.25a257.77,257.77,0,0,1-129.29-1V414Z"/><rect class="cls-3" x="189.48" y="413.99" width="129.29" height="59.42"/><path class="cls-4" d="M453.43,147.77,477,149.6,461.32,140,463,125.9l-18.33.1-7.09-9.59L435.54,131a232.11,232.11,0,0,0-38.4-25.86l46.22-9.77L406,85.32l-4.9-29.42L364.19,67l-20-15.14,4.87,33.31a295.45,295.45,0,0,0-86.43-12.71q-12.08,0-23.83.93l.77-.25,15.39-20L238.36,61l-10.88-9.13-9.93,15.41-11.9.7L215,76.16c-37.8,6-72.32,19.11-101.24,37.39l13.41-42.41-27.13,27.6L72,88.53l-8.53,37.55-23,9.93,31.12,12.06a189.8,189.8,0,0,0-14.47,17.31l-2.84-17.7-5.64,17.54-14.11,1.64,4.39,17.8-7.66,9.14,9.3-.89a149.62,149.62,0,0,0-14.92,64.83c0,102.36,106.11,185.34,237,185.34s237-83,237-185.34C499.66,216.57,482.48,178.53,453.43,147.77Z"/><path class="cls-5" d="M256,443c-127.8-2.77-230.32-84.66-230.32-185.26a149.66,149.66,0,0,1,14.92-64.84l-9.3.9L39,184.67l-4.4-17.8,14.11-1.65,5.65-17.53,2.84,17.69a189.41,189.41,0,0,1,14.46-17.31L40.49,136l23-9.93L72,88.54l28,10.21,27.13-27.6-13.4,42.41a247.39,247.39,0,0,1,26-14.32C113.84,176.53,113.32,296.15,256,443Z"/><rect class="cls-6" x="197.03" y="351.09" width="114.3" height="70.32" rx="35.16"/><circle class="cls-7" cx="144.81" cy="242.66" r="91.35"/><circle class="cls-8" cx="144.81" cy="241.09" r="38.56"/><circle class="cls-6" cx="144.46" cy="241.09" r="28.89"/><circle class="cls-7" cx="161.66" cy="221.21" r="9.01"/><circle class="cls-7" cx="144.46" cy="241.09" r="10.87"/><circle class="cls-7" cx="367.12" cy="242.66" r="91.35"/><circle class="cls-8" cx="367.12" cy="241.09" r="38.56"/><circle class="cls-6" cx="366.77" cy="241.09" r="28.89"/><circle class="cls-7" cx="383.97" cy="221.21" r="9.01"/><circle class="cls-7" cx="366.77" cy="241.09" r="10.87"/><path class="cls-9" d="M302,328.48c0,1,0,1.92-.09,2.86a47.68,47.68,0,0,1-95.2,0c-.06-.94-.09-1.9-.09-2.86a128.21,128.21,0,0,1,2.18-20.22c1.2-6.86,2.86-14.51,4.91-22.36,2-7.67,4.37-15.54,7.07-23.08,8.62-24.11,20.46-44.84,33.53-44.84s24.91,20.73,33.53,44.84c2.7,7.54,5.07,15.41,7.07,23.08,2.05,7.85,3.71,15.5,4.91,22.36A128.21,128.21,0,0,1,302,328.48Z"/><path class="cls-10" d="M266,374.65a47.7,47.7,0,0,1-59.6-43.31c-.06-.94-.09-1.9-.09-2.86a128.21,128.21,0,0,1,2.18-20.22c1.2-6.86,2.86-14.51,4.91-22.36,2-7.67,4.37-15.54,7.07-23.08C229.09,238.71,240.93,218,254,218c4.14,0,8.17,2.09,12,5.7-8.26,7.79-15.64,22.68-21.53,39.14-2.7,7.54-5.07,15.41-7.07,23.08-2.05,7.85-3.71,15.5-4.91,22.36a128.21,128.21,0,0,0-2.18,20.22c0,1,0,1.92.09,2.86A47.72,47.72,0,0,0,266,374.65Z"/><path class="cls-1" d="M295,285.9h-81.2c2-7.67,4.37-15.54,7.07-23.08h67.06C290.58,270.36,293,278.23,295,285.9Z"/><path class="cls-1" d="M302,328.48c0,1,0,1.92-.09,2.86h-95.2c-.06-.94-.09-1.9-.09-2.86a128.21,128.21,0,0,1,2.18-20.22h91A128.21,128.21,0,0,1,302,328.48Z"/><path class="cls-11" d="M244.47,262.82c-2.7,7.54-5.07,15.41-7.07,23.08h-24c2-7.67,4.37-15.54,7.07-23.08Z"/><path class="cls-11" d="M230.31,328.48c0,1,0,1.92.09,2.86h-24c-.06-.94-.09-1.9-.09-2.86a128.21,128.21,0,0,1,2.18-20.22h24A128.21,128.21,0,0,0,230.31,328.48Z"/><path class="cls-7" d="M253.91,386.25h0A17.75,17.75,0,0,1,271.66,404v17.41a0,0,0,0,1,0,0h-35.5a0,0,0,0,1,0,0V404A17.75,17.75,0,0,1,253.91,386.25Z"/><ellipse class="cls-12" cx="144.46" cy="366.62" rx="33.9" ry="24.09"/><ellipse class="cls-12" cx="367.12" cy="366.62" rx="33.9" ry="24.09"/><ellipse class="cls-13" cx="253.91" cy="139.08" rx="28.18" ry="14.92"/><ellipse class="cls-13" cx="328.56" cy="116.41" rx="21.46" ry="11.36"/><ellipse class="cls-13" cx="192.13" cy="116.41" rx="21.46" ry="11.36"/><ellipse class="cls-13" cx="260.15" cy="105.05" rx="15.61" ry="8.26"/></g></svg>