<svg xmlns="http://www.w3.org/2000/svg" viewBox="0 0 512 512"><defs><style>.cls-1{fill:#fcc8bc;}.cls-2{fill:#a65c3b;}.cls-3{fill:#9e4830;}.cls-4{fill:#fff;}.cls-5{fill:#27273d;}.cls-6{fill:#db1b1b;}.cls-7{fill:#bc6f50;}</style></defs><title>50 Monsters Avatar Icons</title><g id="BULINE"><circle class="cls-1" cx="256" cy="256" r="256"/></g><g id="Icons"><path class="cls-2" d="M373.71,447.82l-6,38.56a252.12,252.12,0,0,1-28.84,11.9,256.81,256.81,0,0,1-196.9-13l-5.8-37.45h0C97.79,435.27,72,418.13,55.05,399l-1.78-2.06c-23.1-27.38-28.5-58.64-26.62-86.38.74-11,14.24-14.52,20.8-6.8a13,13,0,0,1,1.49,2.19,55.09,55.09,0,0,0,7.25,10.34c.34.39.68.76,1,1.13a59.33,59.33,0,0,0,4.27,4.14c.73.64,1.48,1.26,2.24,1.87s1.51,1.18,2.27,1.74l1.16.82c1.16.81,2.33,1.57,3.51,2.29l1.17.7c1.57.92,3.15,1.77,4.72,2.54q1.17.58,2.34,1.11c.78.36,1.55.69,2.31,1q2.31,1,4.51,1.74l1.09.38c2.07.71,4,1.3,5.89,1.79,2.09.56,4,1,5.67,1.32l1.2.24c3.64.68,5.87.85,5.87.85h0V170.8a149,149,0,0,1,12.47-59.86c.49-1.12,1-2.22,1.5-3.32s1-2.18,1.57-3.26,1.09-2.16,1.65-3.23S123.77,99,124.36,98s1.19-2.09,1.8-3.13,1.24-2.06,1.87-3.08c1.28-2,2.6-4,4-6,.69-1,1.38-2,2.09-2.93s1.42-1.92,2.15-2.88,1.47-1.89,2.22-2.82,1.51-1.86,2.28-2.77,1.56-1.82,2.35-2.71c.6-.68,1.21-1.35,1.83-2,.37-.42.77-.85,1.17-1.27.63-.66,1.26-1.32,1.89-2l1.26-1.28c.42-.43.85-.85,1.28-1.26s.85-.83,1.29-1.25c.86-.83,1.74-1.64,2.62-2.44l1.34-1.2c.89-.79,1.8-1.58,2.71-2.35l1.38-1.15c.58-.48,1.16-1,1.75-1.42.79-.64,1.59-1.27,2.4-1.88,1.06-.82,2.14-1.63,3.22-2.41.66-.48,1.33-1,2-1.42q1.93-1.36,3.92-2.66l1.07-.7,1.73-1.09q1-.66,2.1-1.29c1.34-.8,2.69-1.59,4.06-2.35.46-.26.92-.52,1.39-.77,1.14-.62,2.29-1.23,3.45-1.82l1.56-.79,1.73-.85,2-.94c.53-.25,1.06-.49,1.6-.72s.83-.38,1.24-.56c2.31-1,4.64-2,7-2.86.83-.31,1.66-.62,2.49-.91,1.38-.5,2.76-1,4.16-1.42l1.1-.35c.8-.26,1.6-.5,2.41-.74s1.72-.5,2.59-.74,1.74-.48,2.61-.7l1.93-.49.92-.22,2.43-.55h0a149.57,149.57,0,0,1,181.74,146V339.93s39.71-3.07,56.49-34c5.68-10.46,21.5-7.27,22.3,4.61C486.51,358.52,467.94,417,373.71,447.82Z"/><path class="cls-3" d="M338.89,498.28a256.81,256.81,0,0,1-196.9-13l-5.81-37.45C97.79,435.27,72,418.13,55.05,399l-1.78-2.06c-23.1-27.38-28.5-58.64-26.62-86.38.74-11,14.24-14.52,20.8-6.8a13,13,0,0,1,1.5,2.19,55.85,55.85,0,0,0,7.24,10.34c.34.39.68.76,1,1.13,1.38,1.47,2.81,2.84,4.27,4.14.73.64,1.48,1.26,2.24,1.87s1.51,1.17,2.27,1.74l1.16.82c1.16.81,2.33,1.57,3.51,2.29l1.17.7c1.58.92,3.15,1.76,4.72,2.54l2.34,1.11c.78.35,1.55.69,2.31,1q2.31,1,4.51,1.74l1.09.38c2.07.7,4,1.29,5.89,1.79,2.09.56,4,1,5.67,1.32l1.2.24c3.64.68,5.87.85,5.87.85V170.8a148.82,148.82,0,0,1,12.48-59.86c.49-1.12,1-2.22,1.5-3.32s1-2.18,1.57-3.26,1.08-2.16,1.65-3.23S123.77,99,124.36,98s1.19-2.09,1.8-3.13,1.24-2.06,1.87-3.08q1.89-3.06,4-6c.69-1,1.38-2,2.09-2.93s1.42-1.92,2.15-2.88,1.45-1.89,2.22-2.82,1.51-1.86,2.28-2.77,1.56-1.82,2.35-2.71c.6-.68,1.21-1.35,1.83-2,.37-.42.77-.85,1.17-1.27.63-.66,1.26-1.32,1.89-2,.4-.43.83-.86,1.25-1.28h0c.42-.43.85-.85,1.28-1.26s.85-.83,1.29-1.25c.86-.83,1.74-1.64,2.62-2.44l1.34-1.2c.89-.79,1.8-1.58,2.71-2.35l1.38-1.15c.58-.48,1.16-1,1.75-1.42.79-.64,1.59-1.27,2.4-1.88,1.06-.82,2.14-1.63,3.22-2.41.66-.48,1.33-1,2-1.42q1.93-1.36,3.92-2.66l1.07-.7,1.73-1.09q1-.66,2.1-1.29c1.34-.8,2.69-1.59,4.06-2.35.46-.26.92-.52,1.39-.77,1.14-.62,2.29-1.23,3.45-1.82l1.56-.79,1.73-.85,2-.94c.53-.25,1.06-.49,1.6-.72s.83-.38,1.24-.56c2.31-1,4.64-2,7-2.86.83-.31,1.66-.62,2.49-.91,1.38-.5,2.76-1,4.16-1.42l1.1-.35c.8-.26,1.6-.5,2.41-.74s1.72-.5,2.59-.74,1.74-.48,2.61-.7l1.93-.49.92-.22,2.43-.55a340.66,340.66,0,0,0-38.44,94.84q-4,16.62-6.53,34t-3.38,35.3q-.45,9.21-.45,18.57,0,7.78.32,15.47.63,15.94,2.57,31.43.85,6.92,2,13.72c9.14,56.2,30.74,107,61.16,147.86C266.86,452.15,300.69,480.61,338.89,498.28Z"/><ellipse class="cls-4" cx="181.52" cy="171.77" rx="34.82" ry="52.31"/><circle class="cls-5" cx="181.52" cy="171.77" r="18.56"/><ellipse class="cls-4" cx="254.95" cy="171.77" rx="34.82" ry="52.31"/><circle class="cls-5" cx="254.95" cy="171.77" r="18.56"/><ellipse class="cls-4" cx="328.38" cy="171.77" rx="34.82" ry="52.31"/><circle class="cls-5" cx="328.38" cy="171.77" r="18.56"/><path class="cls-5" d="M372,324.26c0,31.83-12.33,58.67-29.21,67.15-2.1,1.59-4.33,3.12-6.67,4.57a128.24,128.24,0,0,1-35,14.73A179.52,179.52,0,0,1,255,416.54a182.6,182.6,0,0,1-38.7-4,138.53,138.53,0,0,1-37.51-13.62,96.8,96.8,0,0,1-11.61-7.47c-16.88-8.48-29.21-35.32-29.21-67.15,0-17.91,3.9-34.25,10.32-46.63,7.44-14.31,18.23-23.32,30.26-23.32a23.24,23.24,0,0,1,4.86.5c13.11,2.7,24.29,16.19,30.5,35.14a3,3,0,0,0,3.45,2h0a3,3,0,0,0,2.25-2c3.15-9.6,7.57-17.8,12.89-23.9,6.43-7.39,14.15-11.7,22.46-11.7a25.59,25.59,0,0,1,13.18,3.78c9.45,5.59,17.33,17,22.17,31.82a3,3,0,0,0,2.25,2h0a3,3,0,0,0,3.45-2c6.21-18.95,17.39-32.44,30.49-35.14a23.33,23.33,0,0,1,4.87-.5c12,0,22.82,9,30.25,23.32C368.08,290,372,306.35,372,324.26Z"/><path class="cls-4" d="M216.25,412.5a138.53,138.53,0,0,1-37.51-13.62l21.33-33.42Z"/><path class="cls-4" d="M336.1,396a128.24,128.24,0,0,1-35,14.73l15.56-45.25Z"/><path class="cls-4" d="M361.65,277.63l-17.73,27.75-17.39-50.57a23.33,23.33,0,0,1,4.87-.5C343.43,254.31,354.22,263.32,361.65,277.63Z"/><path class="cls-4" d="M268.13,258.09l-6.49,40-29.15-32c6.43-7.39,14.15-11.7,22.46-11.7A25.59,25.59,0,0,1,268.13,258.09Z"/><path class="cls-4" d="M183.36,254.81,166,305.38l-17.73-27.75c7.44-14.31,18.23-23.32,30.26-23.32A23.24,23.24,0,0,1,183.36,254.81Z"/><ellipse class="cls-6" cx="261.18" cy="348.32" rx="44.93" ry="31.81"/><circle class="cls-7" cx="330.51" cy="68.92" r="17.26"/><circle class="cls-7" cx="301.05" cy="48.29" r="12.23"/></g></svg>