<svg xmlns="http://www.w3.org/2000/svg" viewBox="0 0 512 512"><defs><style>.cls-1{fill:#934cf5;}.cls-2{fill:#aa60fa;}.cls-3{fill:#4f4f74;}.cls-4{fill:#3e436d;}.cls-5{fill:#a65c3b;}.cls-6{fill:#9e4830;}.cls-7{fill:#fff;}.cls-8{fill:#27273d;}.cls-9{fill:#fc4581;}.cls-10{fill:#d83570;}.cls-11{fill:#db1b1b;}.cls-12{fill:#c46f4e;}</style></defs><title>50 Monsters Avatar Icons</title><g id="BULINE"><circle class="cls-1" cx="256" cy="256" r="256"/></g><g id="Icons"><path class="cls-2" d="M235.83,104.44S224.62,87.67,209,80.06a5.35,5.35,0,0,1,.46-9.85c9-3.36,21.45-5.64,32.45.7,0,0,3.6-25.48,32.94-37.54a5.35,5.35,0,0,1,7,7c-3.55,8.53-6.83,20-2.27,26.17,0,0,17.86-14.68,37.51-15.28,5.81-.18,7.58,7.85,2.27,10.23-18.79,8.42-48.5,23.42-48.73,34.17Z"/><path class="cls-2" d="M356.62,133l50,71.17c6.2-9,15.24-30,22-46.65.88-2.18,1.72-4.29,2.51-6.28q2.08-5.26,4.36-10.47c2.52-5.79,5.18-11.53,7.93-17.22a116.15,116.15,0,0,0,5.51-13.39A79.1,79.1,0,0,0,453,90.65c1-14.24-3.09-24.16-7.33-30.43a6.21,6.21,0,0,1,3-9.28,5.91,5.91,0,0,1,3.48-.16c8.08,2,14.09,8.11,18.24,14.14a4.68,4.68,0,0,0,3.67,2.1,4.81,4.81,0,0,0,5.14-4.89c-.29-26-14.81-37.58-26.19-42.64a47.51,47.51,0,0,0-13.41-3.83,55.78,55.78,0,0,0-6.38.41c-17,2.11-26.11,12.06-30.83,24a68.59,68.59,0,0,0-4.28,19.34,101.17,101.17,0,0,0-.36,10.56,49.36,49.36,0,0,1-7,26.15,48.68,48.68,0,0,1-7,9.08L380.07,109Z"/><path class="cls-3" d="M398.13,59.38l50.77,50.77A79.1,79.1,0,0,0,453,90.65L402.41,40A68.59,68.59,0,0,0,398.13,59.38Z"/><path class="cls-3" d="M380.07,109l48.52,48.52c.88-2.18,1.72-4.29,2.51-6.28q2.08-5.26,4.36-10.47L390.79,96.09a48.68,48.68,0,0,1-7,9.08Z"/><path class="cls-3" d="M433.24,16.07l15.45,34.87a5.91,5.91,0,0,1,3.48-.16c8.08,2,14.09,8.11,18.24,14.14a4.68,4.68,0,0,0,3.67,2.1L453,19.49a47.51,47.51,0,0,0-13.41-3.83A55.78,55.78,0,0,0,433.24,16.07Z"/><path class="cls-1" d="M439.39,15.66a44.62,44.62,0,0,1,9.89,2.43A34.23,34.23,0,0,0,437.1,25.3,39.43,39.43,0,0,0,427.32,40,68.59,68.59,0,0,0,423,59.38c0,.47-.08.94-.11,1.41-.24,3.18-.29,6.26-.25,9.15a49.47,49.47,0,0,1-7,26.15,48.68,48.68,0,0,1-7,9.08L405,109l-.75.77-11.67,11.95h0a19,19,0,0,0-2,24.19l26.57,37.82c-3.88,8.45-7.68,15.95-10.78,20.44l-50-71.17,23.45-24,3.74-3.82a48.68,48.68,0,0,0,7-9.08,49.36,49.36,0,0,0,7-26.15,101.17,101.17,0,0,1,.36-10.56A68.59,68.59,0,0,1,402.18,40C406.9,28.13,416,18.18,433,16.07A55.78,55.78,0,0,1,439.39,15.66Z"/><path class="cls-4" d="M422.68,69.94a49.44,49.44,0,0,1-1.46,12.76L397.9,59.38A68.59,68.59,0,0,1,402.18,40l20.75,20.75C422.69,64,422.64,67.05,422.68,69.94Z"/><path class="cls-4" d="M404.23,109.76l-11.67,11.95L379.84,109l3.74-3.82a48.68,48.68,0,0,0,7-9.08Z"/><path class="cls-4" d="M449.28,18.09A34.23,34.23,0,0,0,437.1,25.3L433,16.07a55.78,55.78,0,0,1,6.38-.41A44.62,44.62,0,0,1,449.28,18.09Z"/><path class="cls-2" d="M155.38,133l-50,71.17c-6.2-9-15.24-30-22-46.65-.88-2.18-1.72-4.29-2.51-6.28q-2.09-5.26-4.36-10.47C74,135,71.36,129.23,68.61,123.54a116.15,116.15,0,0,1-5.51-13.39A79.1,79.1,0,0,1,59,90.65c-1-14.24,3.09-24.16,7.33-30.43a6.21,6.21,0,0,0-3-9.28,5.91,5.91,0,0,0-3.48-.16c-8.08,2-14.09,8.11-18.24,14.14A4.68,4.68,0,0,1,37.92,67a4.81,4.81,0,0,1-5.14-4.89c.29-26,14.81-37.58,26.19-42.64a47.51,47.51,0,0,1,13.41-3.83,55.78,55.78,0,0,1,6.38.41c17,2.11,26.11,12.06,30.83,24a68.59,68.59,0,0,1,4.28,19.34,101.17,101.17,0,0,1,.36,10.56,49.36,49.36,0,0,0,7,26.15,48.68,48.68,0,0,0,7,9.08l3.74,3.82Z"/><path class="cls-3" d="M113.87,59.38,63.1,110.15A79.1,79.1,0,0,1,59,90.65L109.59,40A68.59,68.59,0,0,1,113.87,59.38Z"/><path class="cls-3" d="M131.93,109,83.41,157.51c-.88-2.18-1.72-4.29-2.51-6.28q-2.09-5.26-4.36-10.47l44.67-44.67a48.68,48.68,0,0,0,7,9.08Z"/><path class="cls-1" d="M114.78,190.78l-9.4,13.38c-6.2-9-15.24-30-22-46.65-.88-2.18-1.72-4.29-2.51-6.28q-2.09-5.26-4.36-10.47C74,135,71.36,129.23,68.61,123.54a116.15,116.15,0,0,1-5.51-13.39A79.1,79.1,0,0,1,59,90.65c-1-14.24,3.09-24.16,7.33-30.43a6.21,6.21,0,0,0-3-9.28,5.91,5.91,0,0,0-3.48-.16c-8.08,2-14.09,8.11-18.24,14.14A4.68,4.68,0,0,1,37.92,67a4.81,4.81,0,0,1-5.14-4.89c.29-26,14.81-37.58,26.19-42.64a47.51,47.51,0,0,1,13.41-3.83,55.78,55.78,0,0,1,6.38.41c1.21.15,2.37.34,3.5.57A66.93,66.93,0,0,0,75,45.44a105.28,105.28,0,0,0,2.59,26.24l.06.28a154.88,154.88,0,0,0,5.25,18.12l.06.19q4.15,11.73,7.87,23.6c1,3.22,2,6.46,2.89,9.69.45,1.57.89,3.13,1.32,4.7.75,2.74,1.55,5.63,2.39,8.63.47,1.68,1,3.39,1.45,5.13C103.68,158.66,109.48,177.51,114.78,190.78Z"/><path class="cls-4" d="M83,90.27,63.1,110.15A79.1,79.1,0,0,1,59,90.65L77.67,72a154.88,154.88,0,0,0,5.25,18.12Z"/><path class="cls-4" d="M98.9,142,83.41,157.51c-.88-2.18-1.72-4.29-2.51-6.28q-2.09-5.26-4.36-10.47l17.2-17.2c.45,1.57.89,3.13,1.32,4.7.75,2.74,1.55,5.63,2.39,8.63C97.92,138.57,98.41,140.28,98.9,142Z"/><path class="cls-5" d="M433.61,440.36a255.88,255.88,0,0,1-362.93-7.75c-.29-.3-.58-.6-.85-.9L87.5,206.93a95.35,95.35,0,0,1,5.82-26,105.88,105.88,0,0,1,10.84-21.14c9.76-14.77,23.35-27.82,39.79-38.46,22.79-14.78,51.06-24.91,82.12-28.5a219.1,219.1,0,0,1,25.31-1.46h.46q9.14,0,18,.78c.6,0,1.19.09,1.78.15,35.47,3.27,67.55,15,92.37,32.53l.24.17.13.1c24.82,17.61,42.32,41,48.61,67.43,0,.11,0,.21.07.32a93.69,93.69,0,0,1,2.21,14.12Z"/><path class="cls-6" d="M270.3,92.07l-.45,0a210,210,0,0,0-38.27,6.76,184.15,184.15,0,0,0-47.23,20.21,155.91,155.91,0,0,0-13.25,9.06C155.51,140,143.1,154.3,135,170.19a97.2,97.2,0,0,0-10.42,35.19c0,.51-.09,1-.13,1.55l-1,12.15L104.34,462.26a257.31,257.31,0,0,1-33.66-29.65L88.42,206.93A95.31,95.31,0,0,1,93.83,182a104.44,104.44,0,0,1,10.63-21.31c9.68-15,23.31-28.25,39.84-39.06,22.7-14.84,50.87-25.06,81.87-28.76a218.45,218.45,0,0,1,25.67-1.56h.46Q261.42,91.33,270.3,92.07Z"/><path class="cls-3" d="M78.76,16.07,63.31,50.94a5.91,5.91,0,0,0-3.48-.16c-8.08,2-14.09,8.11-18.24,14.14A4.68,4.68,0,0,1,37.92,67L59,19.49a47.51,47.51,0,0,1,13.41-3.83A55.78,55.78,0,0,1,78.76,16.07Z"/><circle class="cls-7" cx="182.05" cy="237.49" r="52.32"/><circle class="cls-8" cx="181.77" cy="240.39" r="31.99"/><circle class="cls-7" cx="195.55" cy="224.47" r="7.21"/><circle class="cls-7" cx="181.77" cy="240.39" r="8.7"/><path class="cls-2" d="M247.55,202.32c-3.13-18.55-13-41.87-41.82-52.88,0,0-32.16-1.06-17,35.15,0,0-57.62-48.31-63.58,9.82,0,0-36.45-6.81-30.38,20.89a11.34,11.34,0,0,0,15.46,8.45c22.36-8.64,75.83-25.08,119.71-5.6C239,222.18,249.31,212.81,247.55,202.32Z"/><path class="cls-1" d="M229.9,218.14c-43.88-19.47-97.35-3-119.72,5.6a11.33,11.33,0,0,1-15.46-8.44c-1.09-5-.8-8.88.42-11.87a11.26,11.26,0,0,0,15,7c22.37-8.63,75.84-25.07,119.72-5.59,6.57,2.91,13.79-1.18,16.62-7.64q.6,2.63,1,5.16C249.31,212.81,239,222.17,229.9,218.14Z"/><circle class="cls-7" cx="322.44" cy="237.49" r="52.32"/><circle class="cls-8" cx="322.72" cy="240.39" r="31.99"/><circle class="cls-7" cx="308.95" cy="224.47" r="7.21"/><circle class="cls-7" cx="322.72" cy="240.39" r="8.7"/><path class="cls-2" d="M257,202.32c3.12-18.55,13-41.87,41.82-52.88,0,0,32.16-1.06,17,35.15,0,0,57.61-48.31,63.57,9.82,0,0,36.45-6.81,30.39,20.89a11.34,11.34,0,0,1-15.46,8.45c-22.37-8.64-75.84-25.08-119.72-5.6C265.51,222.18,255.18,212.81,257,202.32Z"/><path class="cls-1" d="M409.77,215.3a11.33,11.33,0,0,1-15.46,8.44c-22.36-8.63-75.84-25.07-119.72-5.6-9.08,4-19.41-5.33-17.64-15.82q.42-2.52,1-5.15c2.83,6.45,10,10.54,16.61,7.63,43.88-19.48,97.36-3,119.72,5.59a11.26,11.26,0,0,0,15-7C410.57,206.42,410.86,210.3,409.77,215.3Z"/><ellipse class="cls-9" cx="251.38" cy="312.83" rx="51.53" ry="30.5"/><ellipse class="cls-10" cx="228.07" cy="312.83" rx="15.3" ry="9.06"/><ellipse class="cls-10" cx="275.43" cy="312.83" rx="15.3" ry="9.06"/><path class="cls-8" d="M367.38,318.25c-7.4,40.79-22.78,68-40,86.18a118.52,118.52,0,0,1-28.67,22.31c-1.29.72-2.56,1.39-3.83,2-23.63,12-43.51,12.12-43.51,12.12s-19.41-.09-42.66-11.69l-.85-.43a118.5,118.5,0,0,1-28.58-20.39c-18.77-18.1-36-46.27-43.91-90.14a4.56,4.56,0,0,1,8.3-3.32,135.6,135.6,0,0,0,15.94,20.29,120.2,120.2,0,0,0,74,36.94,144.4,144.4,0,0,0,17.79,1.07,145.88,145.88,0,0,0,17.89-1.08,120.49,120.49,0,0,0,74.62-37.72,135.83,135.83,0,0,0,15.19-19.5A4.56,4.56,0,0,1,367.38,318.25Z"/><path class="cls-11" d="M294.89,428.78c-23.63,12-43.51,12.12-43.51,12.12s-19.41-.09-42.66-11.69l-.85-.43c23.63-12,43.51-12.12,43.51-12.12s19.41.09,42.66,11.69Z"/><path class="cls-7" d="M187.7,357.25l-4.24,5a17.83,17.83,0,1,1-27.13-23.15l3.29-3.85A122.43,122.43,0,0,0,187.7,357.25Z"/><path class="cls-7" d="M345.86,364.21a17.84,17.84,0,0,1-25.14-2L316,356.69a122.42,122.42,0,0,0,27.88-22.26l4,4.64A17.82,17.82,0,0,1,345.86,364.21Z"/><path class="cls-7" d="M269.56,384.42a17.84,17.84,0,0,1-35.66.85l-.31-13.11a144.4,144.4,0,0,0,17.79,1.07,145.88,145.88,0,0,0,17.89-1.08Z"/><path class="cls-7" d="M327.39,404.43a118.52,118.52,0,0,1-28.67,22.31l-6.05-11.93a17.83,17.83,0,0,1,31.81-16.13Z"/><path class="cls-7" d="M216,414.81l-7.3,14.4a118.42,118.42,0,0,1-29.43-20.82l4.92-9.71A17.83,17.83,0,1,1,216,414.81Z"/><circle class="cls-6" cx="251.58" cy="150.99" r="14.16"/><circle class="cls-6" cx="290.73" cy="111.66" r="14.16"/><circle class="cls-6" cx="324.33" cy="129.94" r="11.1"/><circle class="cls-6" cx="217.95" cy="120.66" r="11.1"/><circle class="cls-6" cx="182.05" cy="129.94" r="11.1"/><ellipse class="cls-12" cx="165.57" cy="303.77" rx="27.59" ry="9.33"/><ellipse class="cls-12" cx="334.06" cy="303.77" rx="27.59" ry="9.33"/></g></svg>