<svg xmlns="http://www.w3.org/2000/svg" viewBox="0 0 512 512"><defs><style>.cls-1{fill:#7cc8fb;}.cls-2{fill:#f7bb38;}.cls-3{fill:#dda533;}.cls-4{fill:#d39c2d;}.cls-5{fill:#f58d89;}.cls-6{fill:#fff;}.cls-7{fill:#3586cb;}.cls-8{fill:#27273d;}.cls-9{fill:#db1b1b;}.cls-10{fill:#fa3268;}.cls-11{fill:#fcc8bc;}</style></defs><title>50 Monsters Avatar Icons</title><g id="BULINE"><circle class="cls-1" cx="256" cy="256" r="256"/></g><g id="Icons"><path class="cls-2" d="M451.19,235.46c-17.58,22.06-41.86,33.5-60.82,30.5,18.06,28.83,29.43,63.09,29.43,99.85,0,102.46-88.31,131.35-163.84,131.35S92.11,468.27,92.11,365.81c0-36.57,11.25-70.65,29.15-99.38-17.91.12-39.15-11.11-55-31-17-21.31-18.88-63.4-18.74-83.33a9.09,9.09,0,0,1,11.07-8.83l2.34.54-8.75-14.48C83.89,127.77,95,143.08,95,143.08V129.36c19.53,3.69,34.78,29.56,34.78,29.56l-.4-15.84c17.48,12.14,18.93,42.23,18.93,42.23l9.39-9.85c4.67,13.63-1.62,27.52-5.93,34.78a69.57,69.57,0,0,1,2.9,15.46c24.66-23.16,53.89-38.84,82.51-43.75a33,33,0,0,1,1.49-10,35.34,35.34,0,0,1,11-16.2c5.58-4.84,13.41-9.33,24.24-13l1.1-.37a101,101,0,0,0,19.63-9.81c6-3.92,12.19-9,16.4-15.13a28.19,28.19,0,0,0,5.33-18.88,32.06,32.06,0,0,0-3.21-11q-1.2-2.48-2.35-5-3.88-8.44-7.24-17.11-3-7.55-5.52-15.23a53.24,53.24,0,0,0-5.59-12c-3.49-5.41-8.19-9.72-14.5-11.24-4.31-1.06-9.37-.8-15.3,1.31a55.46,55.46,0,0,0-11,5.44c-1.49.93-3,1.85-4.49,2.75a172.11,172.11,0,0,1-17.92,9.46c-.31.13-.61.27-.92.42a48.11,48.11,0,0,0-14.71,10.26,29.85,29.85,0,0,0-8.31,23.3,3.89,3.89,0,0,1-7.2,2.33C191,70.68,186.9,54.36,208.3,42.49l.62-.35a139.75,139.75,0,0,0,14.46-8.89c2.76-1.93,5.44-4,8-6.15a111.32,111.32,0,0,1,9.53-7.2,82.85,82.85,0,0,1,15.47-8.26c8.55-3.38,18.1-5.17,27.94-3.38a45.75,45.75,0,0,1,16.21,6.33c8.87,5.52,17.69,14.67,26,28.83,2.2,3.77,4.38,7.9,6.5,12.39,0,0,.65,1.42,1.57,3.94a101.63,101.63,0,0,1,6.09,33.74,77.79,77.79,0,0,1-2.09,18.2,66.27,66.27,0,0,1-17.84,31.75,80.88,80.88,0,0,1-13.83,11.06c-.64.42-1.28.82-1.93,1.2-2.37,1.44-4.81,2.75-7.3,4-.7.35-1.62.82-2.67,1.43a53.43,53.43,0,0,0-17.32,15.46,39.71,39.71,0,0,0-3.11,5.34c30.81,5.24,62.36,23,88.14,49.11a66,66,0,0,1,3-20.79c-4.31-7.26-10.6-21.15-5.93-34.78l9.39,9.85s1.45-30.09,18.93-42.23l-.4,15.84s15.25-25.87,34.78-29.56v13.72s11.08-15.31,42.75-13.72l-8.75,14.48,2.35-.54a9.11,9.11,0,0,1,11.08,8.83C470.06,172.06,468.16,214.15,451.19,235.46Z"/><path class="cls-3" d="M321.53,227.06a73.8,73.8,0,0,0-35.68,7.6,67.27,67.27,0,0,1-59.78,0,74.12,74.12,0,1,0,7.59,128.58,40.66,40.66,0,0,1,44.6,0,74.11,74.11,0,1,0,43.27-136.18Z"/><path class="cls-4" d="M330.1,472.44v28.67a257.52,257.52,0,0,1-148.29,0V472.44Z"/><path class="cls-5" d="M118.79,189.66c13,16.33,14.67,36.64,3.71,45.37s-30.39,2.57-43.39-13.76c-9.72-12.2-10.8-36.28-10.73-47.68a5.21,5.21,0,0,1,6.34-5.05C85.85,171,109.08,177.46,118.79,189.66Z"/><path class="cls-5" d="M398.69,189.66C385.68,206,384,226.3,395,235s30.39,2.57,43.39-13.76c9.72-12.2,10.8-36.28,10.73-47.68a5.2,5.2,0,0,0-6.34-5.05C431.63,171,408.41,177.46,398.69,189.66Z"/><circle class="cls-6" cx="198.06" cy="301.12" r="68.43"/><circle class="cls-7" cx="198.06" cy="304.9" r="40.39"/><circle class="cls-8" cx="197.69" cy="304.9" r="30.26"/><circle class="cls-6" cx="215.7" cy="284.08" r="9.44"/><circle class="cls-6" cx="197.69" cy="304.9" r="11.38"/><circle class="cls-6" cx="313.86" cy="301.12" r="68.43"/><circle class="cls-7" cx="313.86" cy="304.9" r="40.39"/><circle class="cls-8" cx="313.49" cy="304.9" r="30.26"/><circle class="cls-6" cx="331.5" cy="284.08" r="9.44"/><circle class="cls-6" cx="313.49" cy="304.9" r="11.38"/><path class="cls-8" d="M382.57,408.61c0,16.27-8.59,31.34-23.23,43.67-19.06,16.06-48.35,27.5-82.21,30.89a211.32,211.32,0,0,1-52.5-1.28c-32.41-4.92-59.81-17.3-76.8-33.92-11.73-11.46-18.48-24.93-18.48-39.36,0-15.48,7.79-22.59,21.15-25.41,11.36-2.39,26.73-1.69,44.77-.39,6.25.45,12.83,1,19.66,1.46,12.86.92,26.66,1.73,41,1.73,10,0,19.79-.39,29.14-.95,8.38-.49,16.43-1.1,24.06-1.68,17.56-1.33,32.93-2.43,45-1.26C371.93,383.85,382.57,390.5,382.57,408.61Z"/><path class="cls-9" d="M302.11,432.92A94.19,94.19,0,0,0,258,443.52a15.64,15.64,0,0,1-14.64,0,94.2,94.2,0,0,0-44.09-10.61c-19.63,0-37.6,5.66-51.47,15.05,17,16.62,44.39,29,76.8,33.92a211.32,211.32,0,0,0,52.5,1.28c33.86-3.39,63.15-14.83,82.21-30.89C344.87,440.34,324.59,432.92,302.11,432.92Z"/><path class="cls-6" d="M195.27,382.81l-12.85,26.43a8.75,8.75,0,0,1-15.34.71c-5.59-9.22-12.64-20.73-16.58-26.75C161.86,380.81,177.23,381.51,195.27,382.81Z"/><path class="cls-6" d="M354.16,382.11,341,409.23a8.74,8.74,0,0,1-15.33.72c-5.54-9.13-12.51-20.52-16.48-26.58C326.72,382,342.09,380.94,354.16,382.11Z"/><path class="cls-6" d="M285.1,385.05l-19.86,40a14.12,14.12,0,0,1-24.77,1c-8.94-15-20.08-33.47-25.54-41.78,12.86.92,26.66,1.73,41,1.73C266,386,275.75,385.61,285.1,385.05Z"/><path class="cls-10" d="M228.28,46.25a48.11,48.11,0,0,0-14.71,10.26l-5.27-14,.62-.35a139.75,139.75,0,0,0,14.46-8.89Z"/><path class="cls-10" d="M262.61,28.18a55.46,55.46,0,0,0-11,5.44c-1.49.93-3,1.85-4.49,2.75l-6.2-16.47a82.85,82.85,0,0,1,15.47-8.26Z"/><path class="cls-10" d="M300.54,14.59l-8.13,23.52c-3.49-5.41-8.19-9.72-14.5-11.24l6.42-18.61A45.75,45.75,0,0,1,300.54,14.59Z"/><path class="cls-10" d="M334.59,59.75,310.76,82.5q-3.88-8.44-7.24-17.11l23-22c2.2,3.77,4.38,7.9,6.5,12.39C333,55.81,333.67,57.23,334.59,59.75Z"/><path class="cls-10" d="M340.68,93.49a77.79,77.79,0,0,1-2.09,18.2L311,117.43a28.19,28.19,0,0,0,5.33-18.88Z"/><path class="cls-10" d="M320.75,143.44a80.88,80.88,0,0,1-13.83,11.06c-.64.42-1.28.82-1.93,1.2l-31.13-13,1.1-.37a101,101,0,0,0,19.63-9.81Z"/><path class="cls-10" d="M295,161.12a53.43,53.43,0,0,0-17.32,15.46L238.64,172a35.34,35.34,0,0,1,11-16.2Z"/><circle class="cls-11" cx="121.89" cy="362.65" r="18.47"/><circle class="cls-11" cx="392.78" cy="362.65" r="18.47"/></g></svg>