<svg xmlns="http://www.w3.org/2000/svg" viewBox="0 0 512 512"><defs><style>.cls-1{fill:#27273d;}.cls-2{fill:#00b564;}.cls-3{fill:#4acc97;}.cls-4{fill:#029e53;}.cls-5{fill:#38c487;}.cls-6{fill:#fff;}.cls-7{fill:#3586cb;}.cls-8{fill:#f6d372;}.cls-9{fill:#db1b1b;}.cls-10{fill:#dd5f5f;}</style></defs><title>50 Monsters Avatar Icons</title><g id="BULINE"><circle class="cls-1" cx="256" cy="256" r="256"/></g><g id="Icons"><path class="cls-2" d="M447.54,287.34a196.63,196.63,0,0,1-39.42,174.58A254.85,254.85,0,0,1,256,512q-10.8,0-21.37-.88a254.53,254.53,0,0,1-127.55-46.88c-.36-.41-.72-.83-1.06-1.25s-.87-1-1.29-1.53c-1.08-1.3-2.15-2.62-3.18-4q-3-3.78-5.78-7.73c-1.44-2-2.83-4.08-4.2-6.16q-3-4.64-5.8-9.45A195.85,195.85,0,0,1,59.62,336a197.66,197.66,0,0,1,6-48.3l0,0c-60-20.76-12-50.24-12-50.24-32-15-7-31.5-7-31.5,34.27-31,53-10.51,60.32,2a198,198,0,0,1,31-29.2c-6.65-15.71-10.57-35-10.57-55.84,0-52.75,25.07-95.5,56-95.5.44,0,.88,0,1.31,0s.71,0,1.07.06l1,.08.59.07.69.09a2.3,2.3,0,0,1,.26,0l1,.17c.82.14,1.63.32,2.44.52l1,.28h0c.38.11.76.22,1.14.35l1.12.38c.76.27,1.5.57,2.24.89l1.1.5c.37.17.73.35,1.1.54.73.36,1.45.75,2.16,1.18,22,12.87,37.79,48.45,37.79,90.33a161.25,161.25,0,0,1-.88,16.92q9-.83,18.13-.84c6.28,0,12.5.31,18.63.88a161.87,161.87,0,0,1-.88-17c0-52.75,25.07-95.5,56-95.5s56,42.75,56,95.5c0,21-4,40.37-10.69,56.13a198.69,198.69,0,0,1,29.9,28.07c7.66-12.5,26.31-31.42,59.82-1.12,0,0,25,16.5-7,31.5C458.4,237.5,505.85,266.61,447.54,287.34Z"/><path class="cls-3" d="M440.69,406.33a196.54,196.54,0,0,1-32.57,55.59A254.85,254.85,0,0,1,256,512q-10.8,0-21.37-.88a254.53,254.53,0,0,1-127.55-46.88c-.36-.41-.72-.83-1.06-1.25s-.87-1-1.29-1.53c-1.08-1.3-2.15-2.62-3.18-4q-3-3.78-5.78-7.73c-1.44-2-2.83-4.08-4.2-6.16q-3-4.64-5.8-9.45A195.63,195.63,0,0,1,71.55,403.7c.09-.93.19-1.86.29-2.78s.21-1.85.32-2.77.23-1.84.36-2.76.25-1.83.39-2.74.27-1.83.42-2.74c.66-4.13,1.44-8.23,2.34-12.27.14-.66.29-1.31.44-2s.29-1.27.44-1.89c.21-.89.43-1.77.65-2.64.28-1.1.56-2.2.86-3.28.41-1.53.84-3.05,1.28-4.56.25-.86.51-1.72.77-2.58s.53-1.71.81-2.57q1.23-3.86,2.61-7.64c.29-.83.6-1.65.91-2.47.25-.66.5-1.32.76-2q.22-.61.48-1.23c.28-.71.56-1.41.85-2.12.57-1.4,1.16-2.8,1.76-4.19.3-.69.6-1.38.91-2.07s.54-1.22.82-1.82.47-1,.71-1.54c.33-.7.65-1.39,1-2.08q2.61-5.43,5.51-10.68l1-1.88c.38-.67.77-1.34,1.16-2,1.12-1.93,2.27-3.83,3.45-5.72l1.19-1.87c.31-.49.62-1,.94-1.46,1.7-2.61,3.47-5.17,5.28-7.69.76-1.06,1.54-2.11,2.32-3.16q5.43-7.23,11.45-13.9l1.4-1.53,1-1.1c.58-.62,1.16-1.23,1.75-1.84s1.11-1.15,1.68-1.72l.13-.14,1.75-1.75q2.7-2.67,5.5-5.22l1.57-1.42.62-.55q1.62-1.44,3.26-2.83l2.33-1.93,1.58-1.28,2.19-1.72a175.36,175.36,0,0,1,84.91-35.84,169.12,169.12,0,0,1,17.52-1.38c1.57-.05,3.14-.07,4.72-.07,1.32,0,2.64,0,3.95,0a168.64,168.64,0,0,1,17.8,1.33C364.25,234.77,432.57,311,440.69,406.33Z"/><path class="cls-4" d="M170.87,393.85c15,46.38,36.95,86.54,63.76,117.27a254.53,254.53,0,0,1-127.55-46.88l0,0,0,0c-.34-.41-.7-.82-1-1.24s-.87-1-1.29-1.53c-1.08-1.3-2.15-2.62-3.18-4q-3-3.78-5.78-7.73c-1.44-2-2.83-4.08-4.2-6.16-2-3.09-3.95-6.25-5.8-9.45A195.85,195.85,0,0,1,59.62,336a197.66,197.66,0,0,1,6-48.3l0,0c-60-20.76-12-50.24-12-50.24-32-15-7-31.5-7-31.5,34.27-31,53-10.51,60.32,2a198,198,0,0,1,31-29.2c-6.65-15.71-10.57-35-10.57-55.84,0-52.75,25.07-95.5,56-95.5.44,0,.88,0,1.31,0s.71,0,1.07.06l1,.08.59.07.69.09a2.3,2.3,0,0,1,.26,0l1,.17c.82.14,1.63.32,2.44.52l1,.28h0c.38.11.76.22,1.14.35l1.12.38c.76.27,1.5.57,2.24.89l1.1.5c.37.17.73.35,1.1.54.72.37,1.44.76,2.16,1.18a355.47,355.47,0,0,0-18.64,37.82q-4.62,10.92-8.67,22.43-1.8,5.11-3.49,10.33-2.39,7.41-4.54,15-1.45,5.15-2.79,10.39-2.37,9.25-4.39,18.78a489.87,489.87,0,0,0-10.34,101q0,5.64.13,11.23A493.15,493.15,0,0,0,153,313.88,451.58,451.58,0,0,0,170.87,393.85Z"/><path class="cls-5" d="M170.87,393.85c15,46.38,36.95,86.54,63.76,117.27a254.53,254.53,0,0,1-127.55-46.88l0,0,0,0c-.34-.41-.7-.82-1-1.24s-.87-1-1.29-1.53c-1.08-1.3-2.15-2.62-3.18-4q-3-3.78-5.78-7.73c-1.44-2-2.83-4.08-4.2-6.16-2-3.09-3.95-6.25-5.8-9.45A195.63,195.63,0,0,1,71.55,403.7c.09-.93.19-1.86.29-2.78s.21-1.85.32-2.77.23-1.84.36-2.76.25-1.83.39-2.74.27-1.83.42-2.74c.66-4.13,1.44-8.23,2.34-12.27.14-.66.29-1.31.44-2s.29-1.27.44-1.89c.21-.89.43-1.77.65-2.64.28-1.1.56-2.2.86-3.28.41-1.53.84-3.05,1.28-4.56.25-.86.51-1.72.77-2.58s.53-1.71.81-2.57q1.23-3.86,2.61-7.64c.29-.83.6-1.65.91-2.47.25-.66.5-1.32.76-2q.22-.61.48-1.23c.28-.71.56-1.41.85-2.12.57-1.4,1.16-2.8,1.76-4.19.3-.69.6-1.38.91-2.07s.54-1.22.82-1.82.47-1,.71-1.54c.33-.7.65-1.39,1-2.08q2.61-5.43,5.51-10.68l1-1.88c.38-.67.77-1.34,1.16-2,1.11-1.93,2.27-3.84,3.45-5.72l1.19-1.87c.31-.49.62-1,.94-1.46,1.7-2.61,3.47-5.17,5.28-7.69.76-1.06,1.54-2.12,2.32-3.16q5.43-7.23,11.45-13.9l1.4-1.53,1-1.1c.58-.62,1.16-1.23,1.75-1.84s1.11-1.15,1.68-1.72l.13-.14,1.75-1.75q2.7-2.67,5.5-5.22l1.57-1.42.62-.55c1.08-1,2.16-1.9,3.26-2.83l2.33-1.93,1.58-1.28,2.19-1.72A493.15,493.15,0,0,0,153,313.88,451.58,451.58,0,0,0,170.87,393.85Z"/><circle class="cls-6" cx="334.3" cy="113.32" r="42.98"/><circle class="cls-7" cx="334.3" cy="115.7" r="25.37"/><circle class="cls-1" cx="334.07" cy="115.7" r="19"/><circle class="cls-6" cx="345.38" cy="102.62" r="5.93"/><circle class="cls-6" cx="334.07" cy="115.7" r="7.15"/><circle class="cls-6" cx="185.3" cy="113.32" r="42.98"/><circle class="cls-7" cx="185.3" cy="115.7" r="25.37"/><circle class="cls-1" cx="185.07" cy="115.7" r="19"/><circle class="cls-6" cx="196.38" cy="102.62" r="5.93"/><circle class="cls-6" cx="185.07" cy="115.7" r="7.15"/><circle class="cls-8" cx="377.28" cy="352" r="42.98"/><circle class="cls-8" cx="149.24" cy="356.7" r="42.98"/><circle class="cls-8" cx="315.07" cy="292.03" r="16.99"/><circle class="cls-8" cx="239.63" cy="416.67" r="16.99"/><circle class="cls-8" cx="202.31" cy="279.34" r="16.99"/><circle class="cls-8" cx="264.05" cy="352" r="26.16"/><path class="cls-1" d="M321.27,193.58a17.92,17.92,0,0,1-17.92,17.92h-94.7a17.92,17.92,0,0,1,0-35.83h94.7a17.58,17.58,0,0,1,5.26.79l.14,0,.18.07A17.88,17.88,0,0,1,321.27,193.58Z"/><polygon class="cls-6" points="208.65 175.67 237.89 175.67 220.9 197 208.65 175.67"/><polygon class="cls-6" points="237.89 175.67 273.62 175.67 256 193.58 237.89 175.67"/><path class="cls-6" d="M308.94,176.56h0L291.32,197l-17.7-21.33h29.73a17.58,17.58,0,0,1,5.26.79l.14,0Z"/><path class="cls-9" d="M255.75,292h0a22,22,0,0,1-22-22V210.92a6.8,6.8,0,0,1,3.64-6c12.25-6.46,24.5-6.58,36.74,0a6.81,6.81,0,0,1,3.61,6V270A22,22,0,0,1,255.75,292Z"/><rect class="cls-10" x="251.28" y="210.17" width="8.67" height="70.04" rx="4.33"/></g></svg>