<svg xmlns="http://www.w3.org/2000/svg" viewBox="0 0 512 512"><defs><style>.cls-1{fill:#a99bd4;}.cls-2{fill:#fc4581;}.cls-3{fill:#dd3e78;}.cls-4{fill:#27273d;}.cls-5{fill:#db1b1b;}.cls-6{fill:#f96b9e;}.cls-7{fill:#fff;}.cls-8{fill:#3586cb;}.cls-9{fill:#f6d372;}.cls-10{fill:#ad325e;}.cls-11{fill:#00b564;}</style></defs><title>50 Monsters Avatar Icons</title><g id="BULINE"><circle class="cls-1" cx="256" cy="256" r="256"/></g><g id="Icons"><path class="cls-2" d="M470.88,316.62c-1,9.49,16.79,21.89,14.82,31-2,9.31-23.33,13.28-26.28,22.15-2.62,7.9,8.28,21.09,8.43,30a7.9,7.9,0,0,1-.66,3.52A10.65,10.65,0,0,1,462,408c-7.92,4-21.61,5-25.34,11.14-2.51,4.14-.95,11.06.42,17.83,1.32,6.52,2.47,12.91-.35,16.54-4.05,5.22-15.41,4-24.16,5-3.82.45-7.15,1.33-9.16,3.36a11.23,11.23,0,0,0-2.61,5.24A254.83,254.83,0,0,1,256,512a257.52,257.52,0,0,1-32.46-2,254.52,254.52,0,0,1-106.19-38.72l-.7-.46c-.43-3.7-1.3-6.91-3.26-8.9-2.9-2.94-8.58-3.46-14.53-3.78-7.55-.39-15.53-.43-18.79-4.63-2.24-2.88-2-7.5-1.11-12.55,1.35-7.91,4.18-16.86,1.18-21.82-4.85-8-26.52-7.19-30.5-15.83s10.77-24.45,7.77-33.48c-2.94-8.87-24.28-12.84-26.28-22.15-2-9.13,15.83-21.53,14.83-31C45,307.36,25,299,25,289.4s20-18,21-27.23c1-9.48-16.79-21.89-14.83-31,2-9.31,23.33-13.28,26.28-22.15,3-9-11.69-25-7.77-33.48,4-8.64,25.65-7.82,30.5-15.83s-5.81-27-.07-34.37,26.73-1.74,33.32-8.42.67-27.59,8-33.41c1.75-1.39,4.15-1.85,6.89-1.81.74,0,1.52,0,2.31.12,6.23.61,13.68,3,19.45,2.94a5.15,5.15,0,0,0,.56,0,10.58,10.58,0,0,0,5.15-1.28c8.08-4.86,7.54-26.55,16.2-30.31a7.83,7.83,0,0,1,3.5-.58c8.19.31,19.76,10,27.77,9.76a8,8,0,0,0,1.91-.28c9-2.54,14.28-23.58,23.7-24.87a6.2,6.2,0,0,1,1.22-.05h.11c8.93.54,19.11,17.59,28.22,17.59h.43c9.22-.54,19.5-17.9,28.44-17.58h.21l.46.05a4.94,4.94,0,0,1,.53.1c9.09,2,14.32,22.28,23.17,24.77,9.12,2.56,24.56-12.64,33.19-8.9,7.74,3.36,8.12,21.07,13.9,28.25a8.73,8.73,0,0,0,2.3,2.06c2.7,1.62,6.6,1.51,10.88.85,8.52-1.28,18.53-4.71,23.47-.8,7.38,5.82,1.39,26.67,8,33.41s27.5.92,33.32,8.42-5,26.24-.07,34.37,26.53,7.19,30.5,15.83C471.11,184,456.42,200,459.42,209c2.95,8.87,24.28,12.83,26.28,22.15,2,9.12-15.82,21.53-14.82,31,1,9.27,21,17.67,21,27.23S471.85,307.36,470.88,316.62Z"/><path class="cls-3" d="M288.49,37.27c-9.09,2-14.31,22.28-23.16,24.77-9.12,2.56-24.56-12.64-33.18-8.89S224,78.58,215.94,83.45s-26.93-5.82-34.35,0-1.38,26.68-8,33.42-27.5.92-33.32,8.41,5,26.26.07,34.38-26.53,7.19-30.5,15.83S120.57,200,117.56,209c-2.94,8.87-24.26,12.83-26.27,22.15-2,9.13,15.82,21.53,14.82,31-1,9.26-21,17.67-21,27.22,0,6.79,10.1,13,16.28,19.34,2.53,2.59,4.41,5.2,4.69,7.88a11.63,11.63,0,0,1-1.5,6.29c-4.09,8.25-14.88,17.52-13.32,24.73,2,9.31,23.33,13.28,26.28,22.15,3,9-11.68,25-7.77,33.48s25.65,7.82,30.5,15.83-5.82,27-.07,34.37,26.73,1.74,33.32,8.42.67,27.58,8,33.42,26.29-4.82,34.35,0c3.84,2.31,5.74,8.43,7.6,14.61a254.52,254.52,0,0,1-106.19-38.72c-.41-3.88-1.26-7.28-3.3-9.35-3-3.06-9-3.51-15.24-3.82-7.34-.37-14.93-.54-18.08-4.6-2.16-2.78-2-7.17-1.2-12,1.31-8,4.34-17.29,1.27-22.36-4.86-8-26.53-7.19-30.5-15.83s10.77-24.45,7.77-33.48c-3-8.87-24.28-12.84-26.28-22.15-2-9.12,15.82-21.53,14.82-31-1-9.26-21-17.67-21-27.22s20-18,21-27.22c1-9.49-16.79-21.89-14.82-31,2-9.32,23.33-13.28,26.27-22.15,3-9-11.68-25-7.76-33.48s25.64-7.82,30.5-15.83-5.82-27-.07-34.38,26.73-1.73,33.32-8.41.67-27.58,8-33.42a10.06,10.06,0,0,1,6.23-1.8,21.17,21.17,0,0,1,2.23.07c6.14.45,13.62,2.85,19.53,3h.59a11.27,11.27,0,0,0,5.77-1.31c8.09-4.87,7.55-26.54,16.2-30.3a7.37,7.37,0,0,1,2.85-.59c8-.21,19.57,9.53,27.77,9.76a8.35,8.35,0,0,0,2.57-.28c9-2.54,14.28-23.58,23.69-24.87l.57-.05h.11c9-.31,19.23,17,28.44,17.58h.43c9.11,0,19.28-17.05,28.22-17.59h.21a6,6,0,0,1,1.12.05l.2,0Z"/><path class="cls-4" d="M417.8,281.43a159.22,159.22,0,0,1-142.6,158.5c-4,.42-8.08.7-12.18.8l-2.2.06a156.56,156.56,0,0,1-33.22-3q-5.52-1.1-10.91-2.59a157,157,0,0,1-22.31-8,161.82,161.82,0,0,1-57.62-43.35A158.27,158.27,0,0,1,99,281.43c0-.5,0-1,0-1.5.07-9,11.75-12.36,16.71-4.85,13,19.71,33,29.31,57.44,34,13,2.47,27.21,3.57,42.37,4,13.63.44,28,.38,42.85.38,7.57,0,15,0,22.31,0,8.5,0,16.78-.18,24.79-.49a268.67,268.67,0,0,0,35.42-3.42c25.69-4.47,46.64-14,60.13-34.47,5-7.52,16.64-4.15,16.71,4.86C417.8,280.43,417.8,280.93,417.8,281.43Z"/><path class="cls-5" d="M379.58,385a158.85,158.85,0,0,1-104.38,55c-4,.42-8.08.7-12.18.8l-2.2.06a156.56,156.56,0,0,1-33.22-3q-5.52-1.1-10.91-2.59a157,157,0,0,1-22.31-8,161.82,161.82,0,0,1-57.62-43.35c30.62-15.09,73.18-24.46,120.24-24.46C305.26,359.34,348.79,369.18,379.58,385Z"/><circle class="cls-6" cx="427.72" cy="200.36" r="17.3"/><circle class="cls-6" cx="404.63" cy="172.69" r="12.25"/><circle class="cls-7" cx="258.17" cy="188.46" r="100.94"/><circle class="cls-8" cx="258.17" cy="194.04" r="59.57"/><circle class="cls-4" cx="257.62" cy="194.04" r="44.63"/><circle class="cls-7" cx="284.19" cy="163.33" r="13.92"/><circle class="cls-7" cx="257.62" cy="194.04" r="16.79"/><path class="cls-9" d="M215.57,313.11V331.3a13.91,13.91,0,0,1-17.78,13.36l-14.57-4.23a13.88,13.88,0,0,1-10-13.34v-18C186.18,311.54,200.41,312.64,215.57,313.11Z"/><path class="cls-9" d="M317.57,418.89v10.58a158.3,158.3,0,0,1-42.37,10.46V414.66A13.9,13.9,0,0,1,293,401.31l14.57,4.22A13.91,13.91,0,0,1,317.57,418.89Z"/><path class="cls-9" d="M280.73,313.46v19a11.16,11.16,0,1,1-22.31,0V313.49C266,313.49,273.44,313.51,280.73,313.46Z"/><path class="cls-9" d="M216.69,408.4v26.76a157,157,0,0,1-22.31-8V408.4a11.16,11.16,0,1,1,22.31,0Z"/><path class="cls-9" d="M340.94,309.55v8.36a10.27,10.27,0,0,1-10.27,10.27H315.79a10.27,10.27,0,0,1-10.27-10.27V313A268.67,268.67,0,0,0,340.94,309.55Z"/><path class="cls-9" d="M263,429.3v11.43l-2.2.06a156.56,156.56,0,0,1-33.22-3V429.3A10.27,10.27,0,0,1,237.88,419h14.87A10.27,10.27,0,0,1,263,429.3Z"/><path class="cls-10" d="M157.23,104.7a5.3,5.3,0,0,1-4.13-2h0c-.34-.42-35-42.39-80-43.55a5.31,5.31,0,1,1,.27-10.62c50,1.29,86.51,45.59,88,47.48a5.32,5.32,0,0,1-.79,7.47A5.26,5.26,0,0,1,157.23,104.7Z"/><ellipse class="cls-11" cx="52.67" cy="52.31" rx="15.37" ry="34.15" transform="translate(-4.91 99.17) rotate(-83.94)"/><path class="cls-10" d="M348.52,104.69A5.3,5.3,0,0,1,344.39,96c1.53-1.89,38-46.19,88-47.48a5.31,5.31,0,0,1,.28,10.62c-45.08,1.16-79.71,43.13-80.06,43.55A5.3,5.3,0,0,1,348.52,104.69Z"/><ellipse class="cls-11" cx="453.07" cy="52.31" rx="34.15" ry="15.37" transform="translate(-2.99 48.13) rotate(-6.06)"/></g></svg>