<svg xmlns="http://www.w3.org/2000/svg" viewBox="0 0 512 512"><defs><style>.cls-1{fill:#27273d;}.cls-2{fill:#048943;}.cls-3{fill:#b0d46c;}.cls-4{fill:#9dba5d;}.cls-5{fill:#00b564;}.cls-6{fill:#fff;}.cls-7{fill:#fc715a;}.cls-8{fill:#a65c3b;}.cls-9{fill:#029950;}.cls-10{fill:#4acc97;}</style></defs><title>50 Monsters Avatar Icons</title><g id="BULINE"><circle class="cls-1" cx="256" cy="256" r="256"/></g><g id="Icons"><circle class="cls-2" cx="360.62" cy="132.16" r="79.27"/><path class="cls-3" d="M374.63,82.22a65.33,65.33,0,0,1-65.4,65.4l-1.66,0a65.1,65.1,0,0,1-25.65-5.95q-.6-.27-1.2-.57a65.63,65.63,0,0,1-16.47-11.41,65.55,65.55,0,0,1-7,5.68c-.59.41-1.18.82-1.78,1.21l-.72.47a65.43,65.43,0,0,1-48.59,8.87q-3.26-.69-6.39-1.68c-1.39-.44-2.75-.93-4.1-1.46s-2.67-1.1-4-1.72h0c-.41-.19-.82-.39-1.22-.6-.88-.43-1.75-.89-2.61-1.37-.63-.34-1.25-.7-1.86-1.07a75.36,75.36,0,0,1-3.71,7.2h0a2.61,2.61,0,0,1-.17.28,75.06,75.06,0,0,1-11.67,15.07c-.63.62-1.26,1.24-1.9,1.84s-1.29,1.18-1.95,1.75-1.17,1-1.77,1.49a1.37,1.37,0,0,1-.23.19l-2,1.6h0c-.69.52-1.38,1-2.07,1.52s-1.6,1.1-2.42,1.62c-.51.34-1,.67-1.55,1l-.65.4c-.49.3-1,.59-1.49.87a74.75,74.75,0,0,1-11.47,5.31h0l-.27.1c-.78.28-1.56.55-2.34.8-.55.18-1.11.35-1.66.51l-1.28.37c-.61.17-1.22.34-1.83.49a51,51,0,0,1,15.26,46.28c-.26,1.48-.6,2.94-1,4.37-.13.48-.27.95-.41,1.43a51.24,51.24,0,0,1-4.69,10.71c-.24.42-.49.84-.75,1.25-.52.82-1.05,1.63-1.6,2.41s-1.13,1.57-1.73,2.32-1.22,1.49-1.86,2.21c-.32.36-.64.72-1,1.07s-.67.7-1,1a51,51,0,0,1-5.43,4.75A51,51,0,0,1,136.8,263c.34.34.68.69,1,1s.65.71,1,1.07c.64.72,1.26,1.45,1.86,2.21s1.18,1.53,1.73,2.32,1.08,1.59,1.6,2.41c.26.41.51.83.75,1.25A51.24,51.24,0,0,1,149.41,284c.14.48.28.95.41,1.43.39,1.43.73,2.89,1,4.37a51.24,51.24,0,0,1,0,18.26c-.26,1.48-.6,2.94-1,4.37-.13.48-.27.95-.41,1.42a51.1,51.1,0,0,1-4.69,10.72c-.24.41-.49.83-.75,1.24-.52.82-1.05,1.63-1.6,2.42a51.28,51.28,0,0,1-5.57,6.64,52.2,52.2,0,0,1-5.42,4.75,52.25,52.25,0,0,1,9.26,9.06c.3.38.6.77.88,1.15.86,1.16,1.67,2.35,2.45,3.58,0,0,0,0,0,0a50.53,50.53,0,0,1,5.44,11.95c.14.48.28.95.41,1.43.39,1.43.73,2.89,1,4.37a51.24,51.24,0,0,1,0,18.26c-.26,1.48-.6,2.94-1,4.37-.13.48-.27,1-.41,1.43A51.55,51.55,0,0,1,144.72,406c-.24.41-.49.83-.75,1.24-.52.82-1.05,1.63-1.6,2.42s-1.13,1.56-1.73,2.31-1.22,1.5-1.86,2.22l-1,1.07c-.33.35-.67.69-1,1a49.91,49.91,0,0,1-5.43,4.75,49.91,49.91,0,0,1,5.43,4.75c.34.34.68.68,1,1l1,1.07q1,1.08,1.86,2.22c.6.75,1.18,1.52,1.73,2.31s1.08,1.6,1.6,2.42c.26.41.51.83.75,1.24a51.55,51.55,0,0,1,4.69,10.72c.15.48.28.95.41,1.43.39,1.43.72,2.88,1,4.36a51,51,0,0,1,.82,9.13,50.4,50.4,0,0,1-.88,9.42c-.22,1.25-.5,2.49-.83,3.71-.16.61-.33,1.2-.51,1.8s-.3.94-.46,1.41q-.47,1.41-1,2.76a49.31,49.31,0,0,1-2.89,6h0a254.71,254.71,0,0,1-25.4-14.07q-10.72-6.76-20.69-14.52a257.52,257.52,0,0,1-30.12-27.52A84.79,84.79,0,0,1,78,421c-16.8-14.9-28.35-40.69-28.35-40.69S61.18,354.52,78,339.62c-16.8-14.91-28.35-40.69-28.35-40.69S61.18,273.14,78,258.24c-16.8-14.9-28.35-40.69-28.35-40.69S62.85,188,81.58,173.91a75.62,75.62,0,0,1-18-13.35C50,147,48.89,123.39,51.65,101.79a236.68,236.68,0,0,1,11.9-48.15s25.72-9.81,53.16-12.46c17.85-1.73,36.43-.43,49.13,8.58.89.63,1.75,1.29,2.58,2A106.53,106.53,0,0,1,178,42.62c18.69-15.87,41.61-26.13,41.61-26.13s25.8,11.55,45,29.09c19.15-17.36,44.62-28.76,44.62-28.76S342,31.5,361.16,52.89q1.81,2,3.44,4.12c.4.51.79,1,1.17,1.55s.67.93,1,1.4.59.85.87,1.28.74,1.17,1.1,1.76c.26.44.52.88.77,1.32l.1.18c.26.46.5.92.74,1.38s.53,1.05.77,1.57a4.69,4.69,0,0,1,.21.46c.18.38.34.75.5,1.13a38.06,38.06,0,0,1,1.94,5.87l.15.7c0,.1,0,.21.07.32.09.42.16.84.23,1.26a1.85,1.85,0,0,1,0,.23c.06.36.11.73.15,1.09,0,.11,0,.23,0,.34.06.53.1,1.05.13,1.57S374.63,81.62,374.63,82.22Z"/><path class="cls-4" d="M374.63,82.22a65.33,65.33,0,0,1-65.4,65.4l-1.66,0a65.1,65.1,0,0,1-25.65-5.95q-.6-.27-1.2-.57a65.63,65.63,0,0,1-16.47-11.41,65.55,65.55,0,0,1-7,5.68c-.59.41-1.18.82-1.78,1.21l-.72.47a65.36,65.36,0,0,1-35.15,10.25,66.17,66.17,0,0,1-13.44-1.38q-3.26-.69-6.39-1.68c-1.39-.45-2.75-.93-4.1-1.46s-2.67-1.11-4-1.72h0l-1.22-.61c-.88-.43-1.75-.89-2.61-1.36q-.94-.52-1.86-1.08h0a75.36,75.36,0,0,1-3.71,7.2,2.75,2.75,0,0,1-.17.29,75.06,75.06,0,0,1-11.67,15.07c-.63.62-1.26,1.24-1.9,1.84s-1.29,1.18-1.95,1.75-1.17,1-1.77,1.49a1.37,1.37,0,0,1-.23.19l-2,1.6h0c-.69.52-1.38,1-2.07,1.52s-1.6,1.1-2.42,1.62c-.51.34-1,.67-1.55,1l-.65.4c-.49.3-1,.59-1.49.87a74.75,74.75,0,0,1-11.47,5.31h0l-.27.1c-.78.28-1.56.55-2.34.8-.55.18-1.11.35-1.66.51l-1.28.37c-.61.17-1.22.34-1.83.49a51,51,0,0,1,15.26,46.28c-.26,1.48-.59,2.94-1,4.37-.13.48-.27.95-.41,1.43a50.73,50.73,0,0,1-4.69,10.71c-.24.42-.49.84-.75,1.25-.51.82-1,1.63-1.6,2.41s-1.13,1.57-1.73,2.32-1.22,1.49-1.86,2.21c-.32.36-.64.72-1,1.07s-.67.7-1,1a51,51,0,0,1-5.43,4.75A51,51,0,0,1,136.8,263c.34.34.68.69,1,1s.65.71,1,1.07c.64.72,1.26,1.45,1.86,2.21s1.18,1.53,1.73,2.32,1.09,1.59,1.6,2.41c.26.41.51.83.75,1.25A50.73,50.73,0,0,1,149.41,284c.14.48.28.95.41,1.43.4,1.43.73,2.89,1,4.37a51.24,51.24,0,0,1,0,18.26c-.26,1.48-.59,2.94-1,4.37-.13.48-.27.95-.41,1.42a50.58,50.58,0,0,1-4.69,10.72c-.24.41-.49.83-.75,1.24-.51.82-1,1.63-1.6,2.42a51.21,51.21,0,0,1-11,11.38h0a50.92,50.92,0,0,1,9.26,9.06c.3.38.6.77.88,1.15q1.3,1.74,2.45,3.58s0,0,0,0a53.76,53.76,0,0,1,5.44,11.95c.14.48.28.95.41,1.43.4,1.43.73,2.89,1,4.37a51.24,51.24,0,0,1,0,18.26c-.26,1.48-.59,2.94-1,4.37-.13.48-.27,1-.41,1.43A51,51,0,0,1,144.72,406c-.24.41-.49.83-.75,1.24-.51.82-1,1.63-1.6,2.42s-1.13,1.56-1.73,2.31-1.22,1.5-1.86,2.22l-1,1.07c-.33.35-.67.69-1,1a49.91,49.91,0,0,1-5.43,4.75,49.91,49.91,0,0,1,5.43,4.75c.34.34.68.68,1,1l1,1.07q1,1.08,1.86,2.22c.6.75,1.18,1.52,1.73,2.31s1.09,1.6,1.6,2.42c.26.41.51.83.75,1.24a50.58,50.58,0,0,1,4.69,10.72c.15.48.28.95.41,1.43.4,1.43.73,2.89,1,4.36a51,51,0,0,1,.82,9.13,50.4,50.4,0,0,1-.88,9.42c-.22,1.25-.5,2.49-.83,3.71-.16.61-.33,1.2-.51,1.8s-.3.94-.46,1.41q-.47,1.41-1,2.76a49.31,49.31,0,0,1-2.89,6h0a254.71,254.71,0,0,1-25.4-14.07q-10.72-6.76-20.69-14.52a85.6,85.6,0,0,1,9.89-10.57C92,432.7,80.48,406.92,80.48,406.92S92,381.13,108.83,366.23c-16.8-14.9-28.35-40.69-28.35-40.69S92,299.75,108.83,284.85C92,270,80.48,244.17,80.48,244.17s13.22-29.53,32-43.65a75.58,75.58,0,0,1-18-13.34c-29.53-29.53,0-106.93,0-106.93s25-9.54,52-12.34c16.68-1.74,34.12-.9,46.9,6.33,1,.57,2,1.19,2.95,1.85a36.68,36.68,0,0,1,3,2.28,104.7,104.7,0,0,1,7.6-7.43h0c.38-.33.76-.67,1.15-1,18.84-16.27,42.43-26.84,42.43-26.84A206.83,206.83,0,0,1,279.2,59.48c3.42,2.32,6.89,4.86,10.27,7.58,2,1.65,4,3.36,6,5.13,3.07-2.78,6.3-5.4,9.56-7.86a206.8,206.8,0,0,1,35.06-20.9A196.86,196.86,0,0,1,358,52.93c2.11,1.25,4.33,2.61,6.6,4.08.4.51.79,1,1.17,1.55s.67.93,1,1.4.59.85.87,1.28.74,1.17,1.1,1.76c.26.44.52.88.77,1.32l.1.18c.26.46.5.92.74,1.38s.53,1.05.77,1.57a4.69,4.69,0,0,1,.21.46c.18.38.34.75.5,1.13a38.06,38.06,0,0,1,1.94,5.87l.15.7c0,.1,0,.21.07.32.09.42.16.84.23,1.26a1.85,1.85,0,0,1,0,.23c.06.36.11.73.15,1.09,0,.11,0,.23,0,.34.06.53.1,1.05.13,1.57S374.63,81.62,374.63,82.22Z"/><path class="cls-5" d="M493.63,271.51c0,39-36.2,71.26-83,76V460a254.67,254.67,0,0,1-122,49.91A258.22,258.22,0,0,1,256,512a254.84,254.84,0,0,1-111-25.24h0a254.71,254.71,0,0,1-25.4-14.07V204.3a145,145,0,0,1,42.61-102.88c.76-.76,1.52-1.51,2.3-2.25a146,146,0,0,1,31.75-23.08q5.16-2.79,10.58-5.15h0c1-.44,2-.86,3-1.27A145,145,0,0,1,265.13,58.8q7.13,0,14.07.68c1.24.11,2.48.25,3.71.4A145.49,145.49,0,0,1,305,64.33q5,1.42,9.74,3.16A145.63,145.63,0,0,1,410.25,194c0,.5.07,1,.1,1.5C457.29,200.13,493.63,232.39,493.63,271.51Z"/><rect class="cls-1" x="288.63" y="231.22" width="172" height="72.33" rx="36.17"/><path class="cls-6" d="M345.71,264.55h0a20.92,20.92,0,0,1,20.92,20.92v18.08a0,0,0,0,1,0,0H324.79a0,0,0,0,1,0,0V285.47A20.92,20.92,0,0,1,345.71,264.55Z"/><path class="cls-6" d="M407.79,231.22h0a20.92,20.92,0,0,1,20.92,20.92v18.08a0,0,0,0,1,0,0H386.88a0,0,0,0,1,0,0V252.14A20.92,20.92,0,0,1,407.79,231.22Z" transform="translate(815.59 501.44) rotate(-180)"/><circle class="cls-7" cx="218.63" cy="270.22" r="29"/><circle class="cls-7" cx="267.29" cy="280.89" r="11.6"/><circle class="cls-7" cx="247.63" cy="313.55" r="9.46"/><circle class="cls-5" cx="218.29" cy="125.35" r="92"/><circle class="cls-6" cx="218.29" cy="132.16" r="63.06"/><circle class="cls-8" cx="218.29" cy="135.65" r="37.21"/><circle class="cls-1" cx="217.95" cy="135.65" r="27.88"/><circle class="cls-6" cx="234.55" cy="116.46" r="8.69"/><circle class="cls-6" cx="217.95" cy="135.65" r="10.49"/><circle class="cls-9" cx="324.79" cy="190.05" r="14.51"/><circle class="cls-9" cx="381.13" cy="190.05" r="14.51"/><path class="cls-10" d="M410.63,347.53V460a254.67,254.67,0,0,1-122,49.91V428.29a80.76,80.76,0,0,1,80.76-80.76Z"/></g></svg>