<svg xmlns="http://www.w3.org/2000/svg" viewBox="0 0 512 512"><defs><style>.cls-1{fill:#fcc8bc;}.cls-2{fill:#a99bd4;}.cls-3{fill:#ce6f2e;}.cls-4{fill:#978ec1;}.cls-5{fill:#807ba8;}.cls-6{fill:#27273d;}.cls-7{fill:#db1b1b;}.cls-8{fill:#e88032;}.cls-9{fill:#b8afdd;}.cls-10{fill:#fff;}.cls-11{fill:#3586cb;}</style></defs><title>50 Monsters Avatar Icons</title><g id="BULINE"><circle class="cls-1" cx="256" cy="256" r="256"/></g><g id="Icons"><circle class="cls-2" cx="393.38" cy="189.29" r="53.55"/><circle class="cls-3" cx="393.38" cy="189.29" r="22.68"/><circle class="cls-2" cx="120.34" cy="189.29" r="53.55"/><circle class="cls-3" cx="120.34" cy="189.29" r="22.68"/><path class="cls-4" d="M320,498.49a44,44,0,0,1-.35,5.53q-6.39,1.64-12.9,2.94a258.34,258.34,0,0,1-101.61,0q-8-1.6-15.78-3.71a43.91,43.91,0,0,1-.26-4.75,45.43,45.43,0,0,1,8.57-26.28,58.69,58.69,0,0,1,17.29-16,75.54,75.54,0,0,1,39.59-10.81h.52c24.56.15,45.9,11.28,56.93,27.63h0a46.94,46.94,0,0,1,6.79,15.28A43.45,43.45,0,0,1,320,498.49Z"/><path class="cls-5" d="M319.59,486c-.23.79-.49,1.56-.77,2.33A50.37,50.37,0,0,1,306.77,507a258.34,258.34,0,0,1-101.61,0A49.82,49.82,0,0,1,192.35,486a47.39,47.39,0,0,1,6.46-13.38,58.24,58.24,0,0,1,16.87-16,75.09,75.09,0,0,1,39.41-11.24H256c24.58,0,46,11,57.18,27.24A47.44,47.44,0,0,1,319.59,486Z"/><path class="cls-2" d="M374.42,194.07a119.26,119.26,0,1,0-236.8,0,168.56,168.56,0,1,0,236.8,0Z"/><path class="cls-4" d="M280.78,480.78a171.15,171.15,0,0,1-24.75,1.8,168.54,168.54,0,0,1-118.4-288.51A119.37,119.37,0,0,1,280.78,63a119.3,119.3,0,0,0-94.52,116.7,122.07,122.07,0,0,0,.86,14.39,168.57,168.57,0,0,0,93.66,286.71Z"/><path class="cls-6" d="M403.26,281.4v.37A147.18,147.18,0,0,1,256.36,429h-2c-55.39-.62-103.85-32.24-128.43-78.4a145.72,145.72,0,0,1-17-63.47c-.07-1.88-.1-3.75-.09-5.62,0-9.31,11.71-13.59,17.61-6.38C151.27,305.57,200,295.69,256,295.69s104.76,9.88,129.64-20.57C391.52,268,403.24,272.14,403.26,281.4Z"/><path class="cls-7" d="M386,351A147.15,147.15,0,0,1,256.36,429l-.7-.72c-.23.24-.45.47-.7.71h-.62c-55.39-.62-103.85-32.24-128.43-78.4,15.2-8.65,34.78-13.85,56.15-13.85,30.9,0,58,10.87,73.6,27.29,15.57-16.42,42.71-27.29,73.6-27.29C350.92,336.75,370.74,342.09,386,351Z"/><path class="cls-8" d="M184.45,172.29c5.38,1.55,39.31,10.15,66.07-9.54a60.47,60.47,0,0,0,11.55-11.16,69.44,69.44,0,1,0-45.32-11.85A56.76,56.76,0,0,1,194,138.63l-.6-.17c-90.51-23.31-122.52,13.91-133.55,38.18a76.77,76.77,0,0,0-6.29,43c10.15,69.3,36.86,116.74,79.37,141,23.47,13.39,48.22,17.59,70,17.59,35.31,0,62.88-11,64.71-11.76A17.5,17.5,0,0,0,254.5,334c-.58.23-57.89,22.77-104.4-4-32.56-18.7-53.38-57.57-61.87-115.54a41.85,41.85,0,0,1,3.53-23.43C106.08,159.6,150,163.46,184.45,172.29Z"/><path class="cls-3" d="M266.27,151.06a70.77,70.77,0,0,1-10.66.81,69.46,69.46,0,1,1,0-138.91,70.77,70.77,0,0,1,10.66.81,69.47,69.47,0,0,0,0,137.29Z"/><circle class="cls-9" cx="364.17" cy="222.26" r="16.28"/><circle class="cls-9" cx="340.19" cy="198.28" r="11.53"/><path class="cls-10" d="M307.31,77.66A51,51,0,1,1,206,69.16h69.07a2.7,2.7,0,0,0,.25-.34c.06.11.13.22.19.34H306.6A50.78,50.78,0,0,1,307.31,77.66Z"/><path class="cls-11" d="M286.4,80.49a30.1,30.1,0,0,1-60.19,0,29.68,29.68,0,0,1,2.22-11.33h46.66a2.7,2.7,0,0,0,.25-.34c.06.11.13.22.19.34h8.66A29.86,29.86,0,0,1,286.4,80.49Z"/><path class="cls-6" d="M278.58,80.49a22.55,22.55,0,1,1-42-11.33h38.56a2.7,2.7,0,0,0,.25-.34c.06.11.13.22.19.34A22.43,22.43,0,0,1,278.58,80.49Z"/><path class="cls-10" d="M275.09,69.16a7,7,0,0,1-11.27,0Z"/><circle class="cls-10" cx="256.03" cy="80.48" r="8.48"/><path class="cls-8" d="M466.41,73.91H466a2.7,2.7,0,0,0,.25-.34C466.28,73.68,466.35,73.79,466.41,73.91Z"/><path class="cls-3" d="M142.92,360.62c20.84,11.9,42.71,16.54,62.61,17.42q-3.74.16-7.6.17c-21.79,0-46.55-4.2-70-17.59-42.52-24.26-69.22-71.7-79.38-141a76.89,76.89,0,0,1,6.3-43c9-19.76,31.87-48.11,88.94-45.36C97.59,133.71,78,158.71,69.84,176.64a76.89,76.89,0,0,0-6.3,43C73.7,288.92,100.4,336.36,142.92,360.62Z"/><path class="cls-4" d="M234.77,222.23c.45.46.88.92,1.29,1.39a1.9,1.9,0,0,1-2.07,3,27.5,27.5,0,0,0-36.11,31.46,1.9,1.9,0,0,1-3.27,1.65l-.05,0a27.5,27.5,0,0,1,40.21-37.49Z"/><path class="cls-4" d="M292.86,222.23c-.44.46-.87.92-1.29,1.39a1.9,1.9,0,0,0,2.07,3,27.5,27.5,0,0,1,36.11,31.46,1.9,1.9,0,0,0,3.27,1.65l.05,0a27.5,27.5,0,0,0-40.21-37.49Z"/></g></svg>