<svg xmlns="http://www.w3.org/2000/svg" viewBox="0 0 512 512"><defs><style>.cls-1{fill:#fcc8bc;}.cls-2{fill:#8348e0;}.cls-3{fill:#f55b4b;}.cls-4{fill:#934cf5;}.cls-5{fill:#aa60fa;}.cls-6{fill:#fff;}.cls-7{fill:#3586cb;}.cls-8{fill:#27273d;}.cls-9{fill:#db1b1b;}.cls-10{fill:#c61e1e;}</style></defs><title>50 Monsters Avatar Icons</title><g id="BULINE"><circle class="cls-1" cx="256" cy="256" r="256"/></g><g id="Icons"><rect class="cls-2" x="338.59" y="84.76" width="53.54" height="32.08" transform="translate(730.73 201.6) rotate(180)"/><path class="cls-3" d="M410.05,49.05,392.14,84.76v32.08l17.91,35.71c4.52,6.93,11.09.57,11.09-10.73v-82C421.14,48.48,414.57,42.12,410.05,49.05Z"/><path class="cls-4" d="M390,308.28a134.59,134.59,0,0,1-88.54,126.47V508A257.37,257.37,0,0,1,256,512l-3.6,0a255.66,255.66,0,0,1-43-4.21v-73h0c-2.79-1-5.55-2.12-8.25-3.32a134.59,134.59,0,0,1,13.94-251.54,88.87,88.87,0,0,1-22.8-16.78c-1.39-1.41-2.74-2.88-4-4.39a89.7,89.7,0,0,1-9.51-13.4c-.5-.87-1-1.75-1.46-2.63s-.93-1.78-1.37-2.68q-1-2-1.89-4.12t-1.68-4.23c-.52-1.43-1-2.87-1.47-4.33-.15-.49-.3-1-.44-1.47-.42-1.47-.81-3-1.17-4.46-.12-.5-.23-1-.34-1.51-.21-1-.42-2-.6-3a89.38,89.38,0,0,1-1.39-15.71,88.36,88.36,0,0,1,25.91-62.56c1.5-1.51,3.06-3,4.66-4.34q1.6-1.38,3.27-2.7c.56-.45,1.13-.88,1.7-1.3A88,88,0,0,1,255.4,12.65h0c.76,0,1.52,0,2.27,0s1.25,0,1.86.07a4.19,4.19,0,0,1,.5,0c.73,0,1.45.07,2.17.13s1.49.12,2.24.2,1.26.13,1.89.21c1.65.21,3.29.46,4.91.75q.87.15,1.74.33c1.31.27,2.61.57,3.9.89a88.47,88.47,0,0,1,18.82,164.6A134.6,134.6,0,0,1,390,308.28Z"/><path class="cls-2" d="M209.41,507.76a255.66,255.66,0,0,0,43,4.21V478.81a72.93,72.93,0,0,0-.45-8.11,73.9,73.9,0,0,0-9.14-28.47c-1.12-2-2.33-3.93-3.65-5.81a71.19,71.19,0,0,0-17.71-17.77,134.58,134.58,0,0,1-20.17-17.27l-.13-.14a135.51,135.51,0,0,1-10.73-12.69s0,0,0,0a133.93,133.93,0,0,1-26.56-80.26c0-1.48,0-2.95.08-4.42a134.5,134.5,0,0,1,73.57-115.57,12.6,12.6,0,0,0,5.25-17.42h0a12.44,12.44,0,0,0-2.6-3.15A88.49,88.49,0,0,1,276.9,15.29c-1.29-.32-2.59-.62-3.9-.89q-.87-.18-1.74-.33c-1.62-.29-3.26-.54-4.91-.75q-.94-.12-1.89-.21c-.75-.08-1.49-.14-2.24-.2s-1.44-.1-2.17-.13a4.19,4.19,0,0,0-.5,0c-.61,0-1.23-.06-1.86-.07s-1.51,0-2.27,0h0a88,88,0,0,0-52.93,17.58c-.57.42-1.14.85-1.7,1.3q-1.67,1.32-3.27,2.7c-1.6,1.38-3.16,2.83-4.66,4.34-.77.77-1.53,1.56-2.27,2.36s-1.48,1.61-2.19,2.43S187,45,186.29,45.88q-2.06,2.57-3.91,5.27-1.4,2-2.67,4.14a88.36,88.36,0,0,0-12.79,45.84,89.38,89.38,0,0,0,1.39,15.71c.19,1,.39,2,.61,3,.11.51.22,1,.34,1.51.35,1.5.74,3,1.17,4.46.14.49.29,1,.44,1.47.45,1.46.94,2.9,1.47,4.33s1.08,2.84,1.68,4.23,1.22,2.76,1.89,4.12c.44.9.9,1.79,1.37,2.68s1,1.76,1.46,2.63q1.55,2.67,3.28,5.24c.76,1.13,1.56,2.25,2.38,3.35s1.66,2.18,2.53,3.24c.43.53.87,1,1.32,1.57s.65.75,1,1.12q1.49,1.68,3.06,3.27a88.87,88.87,0,0,0,22.8,16.78,134.61,134.61,0,0,0-13.94,251.54c2.7,1.2,5.46,2.3,8.25,3.32v73Z"/><path class="cls-2" d="M301.41,434.75v27.92a135.14,135.14,0,0,1-92,0V434.75a135.14,135.14,0,0,0,92,0Z"/><circle class="cls-5" cx="355.87" cy="260.52" r="16.28"/><circle class="cls-5" cx="332.42" cy="236.02" r="11.53"/><circle class="cls-6" cx="255.41" cy="99.65" r="72.32"/><circle class="cls-7" cx="255.41" cy="103.65" r="42.68"/><circle class="cls-8" cx="255.02" cy="103.65" r="31.97"/><circle class="cls-6" cx="274.05" cy="81.65" r="9.97"/><circle class="cls-6" cx="255.02" cy="103.65" r="12.03"/><path class="cls-8" d="M373.41,296.65A118,118,0,0,1,256,414.65c-65,.29-118.53-52.91-118.55-117.95,0-.39,0-.78,0-1.17.08-9.33,12.37-12.74,17.24-4.77a118.32,118.32,0,0,0,38.75,39,117,117,0,0,0,37.5,15,118.82,118.82,0,0,0,39,1.66,116.78,116.78,0,0,0,37.5-11.16,118.4,118.4,0,0,0,48.75-44.51c4.87-8,17.16-4.56,17.24,4.76C373.41,295.9,373.41,296.27,373.41,296.65Z"/><path class="cls-6" d="M230.91,344.77v16.3a18.75,18.75,0,0,1-37.5,0V329.73A117,117,0,0,0,230.91,344.77Z"/><path class="cls-6" d="M307.41,335.27v39.8a18.75,18.75,0,0,1-37.5,0V346.43A116.78,116.78,0,0,0,307.41,335.27Z"/><path class="cls-9" d="M197.66,385.32h11.13a30.38,30.38,0,0,1,30.38,30.38v28.44a25.63,25.63,0,0,1-25.63,25.63h0a25.63,25.63,0,0,1-25.63-25.63V395.07A9.75,9.75,0,0,1,197.66,385.32Z"/><path class="cls-10" d="M220.16,468.9a25.35,25.35,0,0,1-6.62.87,25.63,25.63,0,0,1-25.63-25.63V395.07a9.76,9.76,0,0,1,9.75-9.75h11.13c.44,0,.88,0,1.31,0a9.76,9.76,0,0,0-8.95,9.72v49.07A25.63,25.63,0,0,0,220.16,468.9Z"/><rect class="cls-2" x="120.86" y="84.76" width="53.54" height="32.08"/><path class="cls-3" d="M103,152.55l17.91-35.71V84.76L103,49.05c-4.52-6.93-11.09-.57-11.09,10.73v82C91.86,153.12,98.43,159.48,103,152.55Z"/></g></svg>