<svg xmlns="http://www.w3.org/2000/svg" viewBox="0 0 512 512"><defs><style>.cls-1{fill:#934cf5;}.cls-2{fill:#fc4581;}.cls-3{fill:#fa3268;}.cls-4{fill:#ff699f;}.cls-5{fill:#ef2060;}.cls-6{fill:#b0d46c;}.cls-7{fill:#a1bf60;}.cls-8{fill:#fff;}.cls-9{fill:#27273d;}.cls-10{fill:#e5e5e5;}.cls-11{fill:#fc715a;}</style></defs><title>50 Monsters Avatar Icons</title><g id="BULINE"><circle class="cls-1" cx="256" cy="256" r="256"/></g><g id="Icons"><path class="cls-2" d="M81,442.86q-7.82-7.33-15-15.28h0l0-.1.71-1.53.9-1.85.9-1.85c.3-.62.6-1.23.89-1.84.19-.4.38-.8.56-1.2s.47-1,.68-1.52c1.82-4.17,3-8,1.74-10.46-2.8-5.79-19-6.06-26.68-9.89a5.12,5.12,0,0,1-.57-.3,7.72,7.72,0,0,1-2.59-2.11,5.39,5.39,0,0,1-.33-.5,4.28,4.28,0,0,1-.31-.69h0a1.82,1.82,0,0,1-.07-.25c0-.06,0-.12,0-.18a3.2,3.2,0,0,1-.09-.62.18.18,0,0,1,0-.06,4.8,4.8,0,0,1,0-1c0-.22.06-.44.1-.66a8.67,8.67,0,0,1,.39-1.3h0c.15-.39.32-.79.51-1.19h0a21,21,0,0,1,1.43-2.5h0l.88-1.29h0c.71-1,1.51-2.07,2.35-3.12l.72-.92L50,378.31l.74-.92,1.44-1.81c.58-.76,1.15-1.51,1.68-2.25l.62-.88c.1-.15.2-.29.29-.44s.38-.57.56-.86c.35-.57.67-1.13,1-1.68.14-.28.27-.55.39-.82s.12-.27.17-.4.21-.53.29-.79a6.25,6.25,0,0,0,.27-3.3c-1.77-7.78-25.79-11.9-26.69-20-.19-1.73.73-3.53,2.29-5.37.22-.26.45-.51.69-.77.49-.51,1-1,1.58-1.56l.87-.79h0l.91-.79.95-.79.49-.4L40,332.52c1-.8,2-1.59,3-2.4.67-.52,1.33-1.05,2-1.59.49-.39,1-.79,1.42-1.2.3-.26.6-.52.89-.79s.86-.79,1.26-1.19.77-.79,1.11-1.18c1.61-1.83,2.65-3.63,2.65-5.38s-1-3.55-2.65-5.38l-.73-.79-.39-.39A85.93,85.93,0,0,0,41,305.86l-1.51-1.19-1-.8-1-.79c-.63-.53-1.24-1.06-1.83-1.58s-1.13-1.05-1.64-1.56c-.12-.14-.24-.27-.37-.4l-.69-.77c-1.56-1.84-2.48-3.64-2.29-5.37a6,6,0,0,1,1.94-3.52c.22-.22.46-.43.71-.65l.38-.32c.26-.21.54-.42.83-.63s.29-.21.44-.31c.3-.21.61-.41.94-.61l1-.6,1.05-.59c1.25-.68,2.59-1.35,4-2l1.19-.57,1.18-.56,1.19-.57.59-.28,1.17-.57,1.15-.57c.94-.47,1.85-1,2.71-1.45l1-.59.48-.3.91-.61c.29-.2.57-.41.84-.62a11.82,11.82,0,0,0,1.1-1,6.36,6.36,0,0,0,1.94-3.08,7.46,7.46,0,0,0-.79-4.62q-.15-.33-.33-.69a41.3,41.3,0,0,0-4.1-6.11l-.71-.9h0l-.72-.91-.74-.91L48.12,257l-.72-.91c-.84-1-1.63-2.1-2.35-3.12h0c-.3-.43-.6-.87-.88-1.3-.14-.21-.27-.43-.4-.64-.26-.43-.5-.84-.72-1.26-.11-.2-.21-.41-.31-.61-.19-.4-.36-.8-.51-1.19h0a9.15,9.15,0,0,1-.39-1.31c0-.22-.08-.44-.1-.66a4.9,4.9,0,0,1,0-1,4.57,4.57,0,0,1,.12-.74,2.42,2.42,0,0,1,.1-.36,3.6,3.6,0,0,1,.32-.69,6.51,6.51,0,0,1,.43-.64c.17-.21.35-.4.54-.6a10.85,10.85,0,0,1,2.67-1.76c.6-.29,1.26-.56,2-.82l.53-.19,1.1-.36h0l1.15-.34c1.1-.31,2.26-.59,3.44-.87s2.39-.54,3.59-.81l2.4-.54q1.26-.28,2.49-.6l1.19-.32c.59-.16,1.17-.33,1.72-.51a5.05,5.05,0,0,0,.55-.18c.73-.25,1.41-.5,2-.78a13.78,13.78,0,0,0,1.76-.9,5.66,5.66,0,0,0,.48-.31l.34-.24c.22-.17.42-.34.61-.51a3.44,3.44,0,0,0,.27-.27,4.78,4.78,0,0,0,.89-1.25c2.58-5.36-5.49-16.6-8.25-24.88-.07-.21-.13-.41-.2-.61-.17-.57-.32-1.13-.43-1.66,0-.24-.1-.49-.13-.72a1.55,1.55,0,0,0,0-.21A6.11,6.11,0,0,1,64,198.1a3.8,3.8,0,0,1,.65-.79,6.47,6.47,0,0,1,2-1.29,4.87,4.87,0,0,1,.53-.21l.4-.13c.34-.1.69-.2,1-.28l.56-.12.58-.11a68.2,68.2,0,0,1,10.71-.45c6.88.05,13.75.1,16.2-3,5-6.3-6.73-27.63-1-33.33,1.35-1.35,3.58-1.72,6.28-1.56h0c4.4.26,10.06,1.92,15.2,3l.24,0,.24,0h0c4.79,1,9,1.36,11.34-.47a5.59,5.59,0,0,0,1.51-2c3.58-7.47-1.29-26.87,4.86-30.74,6.79-4.28,25,11.92,32.26,8.41s5.86-27.81,13.5-30.49,21.65,17.23,29.56,15.42c6.57-1.49,10.53-18.82,16.45-24.74.22-.22.45-.42.67-.61a6.92,6.92,0,0,1,1-.72,6.59,6.59,0,0,1,.71-.34,4.74,4.74,0,0,1,1.11-.27l.23,0a3.42,3.42,0,0,1,.78,0l.27,0,.51.12.35.11c1.87.67,3.8,2.35,5.77,4.51l.45.5c.31.34.61.7.92,1.06.15.17.3.35.44.53,1.07,1.28,2.14,2.64,3.21,4l1.2,1.52c3.83,4.83,7.66,9.22,11.26,9.22,8.15,0,17.47-22.5,25.38-21.62,8.09.9,12.2,24.92,20,26.68s22-18.06,29.56-15.42,6.28,27,13.5,30.49,25.46-12.69,32.26-8.41c6.27,4,1.09,24,5.07,31.14a5.19,5.19,0,0,0,1.29,1.58c2.39,1.91,6.94,1.4,12,.34h0c5.31-1.11,11.16-2.82,15.6-3,2.46-.08,4.48.32,5.74,1.58,5.69,5.69-6.07,27-1,33.33s28.43-.47,32.72,6.36-11.92,25-8.41,32.26,27.81,5.86,30.49,13.5S453,265.51,454.8,273.42s25.78,11.91,26.68,20c.89,7.91-21.62,17.23-21.62,25.38s22.51,17.47,21.62,25.39c-.9,8.08-24.91,12.2-26.68,20s18.06,22,15.42,29.56-27,6.28-30.49,13.5c-2.12,4.4,3,12.79,6.37,20.24q-7.23,8-15.11,15.4c-6.66,0-13.19,0-15.57,3-1.77,2.22-1.46,6.3-.56,10.91a255.55,255.55,0,0,1-30.05,20.51,5,5,0,0,0-1.68.86,2.35,2.35,0,0,0-.33.3A254.79,254.79,0,0,1,256,512q-8.33,0-16.52-.53-12.64-.8-24.93-2.82-7.68-1.23-15.19-2.95a253.74,253.74,0,0,1-69.79-27.06,4.3,4.3,0,0,0-.54-.51,5.22,5.22,0,0,0-2-1,255.25,255.25,0,0,1-29.74-20.3.15.15,0,0,0,0-.07c.11-.55.21-1.1.3-1.63a.25.25,0,0,0,0-.08c.07-.37.12-.73.17-1.08s.1-.82.14-1.22.07-.73.09-1.08,0-.7,0-1a12.82,12.82,0,0,0-.16-2.11,8.55,8.55,0,0,0-.31-1.21,5.38,5.38,0,0,0-.57-1.18l-.25-.33s0,0,0,0l-.07-.07a1.46,1.46,0,0,0-.16-.19l-.19-.19A6.72,6.72,0,0,0,93.82,444a12.3,12.3,0,0,0-1.59-.45,24.3,24.3,0,0,0-2.78-.42l-.78-.06c-.41,0-.82-.07-1.24-.08s-.7,0-1.06-.05h0c-1.72,0-3.52,0-5.34,0"/><circle class="cls-3" cx="176.64" cy="292.59" r="68.02"/><circle class="cls-4" cx="434.53" cy="322.63" r="18.74"/><circle class="cls-4" cx="434.53" cy="283.58" r="13.28"/><path class="cls-5" d="M239.48,511.47q-12.64-.8-24.93-2.82c7.35-3.4,15.54-8.29,19.87-6.2C236.86,503.62,238.32,507.17,239.48,511.47Z"/><path class="cls-5" d="M245.45,106.59c-5,6.49-4.71,25.5-11,28.55-7.27,3.51-25.46-12.69-32.26-8.41s-.08,27.71-6.36,32.73-27.63-6.74-33.32-1.05c-2,2.05-1.84,6.12-1,10.79,1.56,8.31,5.22,18.51,2,22.54-1.31,1.65-3.9,2.4-7.08,2.73a112,112,0,0,1-11.31.24c-4.75,0-9.26.14-12.08,1.51h0a5.25,5.25,0,0,0-2.24,1.89c-3.29,5.21,5.51,17.14,8.17,25.7.82,2.59,1.07,4.87.25,6.56-3.49,7.22-27.82,5.86-30.49,13.49-1.42,4,3.64,10,8.36,15.86,4.07,5,7.89,10,7.06,13.71-1,4.16-8.24,7.27-15,10.49h0c-5.86,2.81-11.3,5.71-11.72,9.47-.51,4.55,6.69,9.55,12.91,14.54,4.63,3.7,8.71,7.38,8.71,10.85,0,1.76-1,3.57-2.67,5.41-6,6.7-19.65,13.78-19,20,.9,8.08,24.92,12.2,26.69,20s-18.07,22-15.42,29.57,27,6.27,30.49,13.49-12.7,25.47-8.42,32.26,27.72.08,32.74,6.37-6.74,27.63-1.05,33.32,27-6.07,33.33-1c4.9,3.92,1.85,19.08,3.55,27.57a253.74,253.74,0,0,1-69.79-27.06,4.3,4.3,0,0,0-.54-.51,5.22,5.22,0,0,0-2-1,255.25,255.25,0,0,1-29.74-20.3.15.15,0,0,0,0-.07c.11-.55.21-1.1.3-1.63a.25.25,0,0,0,0-.08c.07-.37.12-.73.17-1.08s.1-.82.14-1.22.07-.73.09-1.08,0-.7,0-1a12.82,12.82,0,0,0-.16-2.11,8.55,8.55,0,0,0-.31-1.21,5.38,5.38,0,0,0-.57-1.18q-.12-.18-.24-.33h0s0,0,0,0l-.07-.07a1.46,1.46,0,0,0-.16-.19l-.19-.19A6.72,6.72,0,0,0,93.82,444a12.3,12.3,0,0,0-1.59-.45,24.3,24.3,0,0,0-2.78-.42l-.78-.06c-.41,0-.82-.07-1.24-.08s-.7,0-1.06-.05h0c-1.72-.06-3.53,0-5.35,0q-7.82-7.33-15-15.28h0l0-.1.71-1.53.9-1.85.9-1.85c.3-.62.6-1.23.89-1.84.19-.4.38-.8.56-1.2s.47-1,.68-1.52c1.82-4.17,3-8,1.74-10.46-2.8-5.79-19-6.06-26.68-9.89a5.12,5.12,0,0,1-.57-.3,7.72,7.72,0,0,1-2.59-2.11,5.39,5.39,0,0,1-.33-.5,4.28,4.28,0,0,1-.31-.69,2,2,0,0,1-.08-.26c0-.06,0-.12,0-.18a3.2,3.2,0,0,1-.09-.62.18.18,0,0,1,0-.06,5.59,5.59,0,0,1,0-1c0-.22.06-.44.1-.66a8.67,8.67,0,0,1,.39-1.3h0c.15-.39.32-.79.51-1.19h0a26.23,26.23,0,0,1,1.43-2.5h0l.88-1.29h0c.73-1,1.52-2.07,2.35-3.12l.72-.92L50,378.31l.74-.92,1.44-1.81c.58-.76,1.15-1.51,1.68-2.25l.62-.88c.1-.15.2-.29.29-.44s.38-.57.56-.86c.35-.57.67-1.13,1-1.68.14-.28.27-.55.39-.82s.12-.27.17-.4.21-.53.29-.79a6.25,6.25,0,0,0,.27-3.3c-1.77-7.78-25.79-11.9-26.69-20-.19-1.73.73-3.53,2.29-5.37.22-.26.45-.51.69-.77.49-.51,1-1,1.58-1.56l.87-.79h0l.91-.79.95-.79.49-.4L40,332.52c1-.8,2-1.59,3-2.4.67-.52,1.33-1.05,2-1.59.49-.39,1-.79,1.42-1.2.3-.26.6-.52.89-.79s.86-.79,1.26-1.19.77-.79,1.11-1.18c1.62-1.83,2.66-3.63,2.66-5.38s-1-3.55-2.66-5.38c-.23-.27-.48-.53-.73-.79l-.39-.39A85.93,85.93,0,0,0,41,305.86l-1.51-1.19-1-.8-1-.79c-.63-.53-1.24-1.06-1.83-1.58s-1.13-1.05-1.64-1.56c-.12-.14-.24-.27-.37-.4l-.69-.77c-1.56-1.84-2.48-3.64-2.29-5.37a6,6,0,0,1,1.94-3.52c.22-.22.46-.44.71-.65l.38-.32c.26-.22.54-.42.83-.63s.29-.21.44-.31c.3-.21.61-.41.94-.61l1-.6,1.05-.59c1.25-.68,2.59-1.35,4-2l1.19-.57,1.18-.56,1.19-.57.59-.28,1.17-.57,1.15-.57c.94-.47,1.85-1,2.71-1.45.34-.19.68-.39,1-.59l.48-.3c.32-.2.62-.4.91-.61s.57-.41.84-.62a11.82,11.82,0,0,0,1.1-1,6.36,6.36,0,0,0,1.94-3.08,7.46,7.46,0,0,0-.79-4.62q-.15-.33-.33-.69a41.3,41.3,0,0,0-4.1-6.11l-.71-.9h0l-.72-.91-.74-.91L48.12,257l-.72-.91c-.83-1-1.62-2.09-2.35-3.12h0c-.3-.43-.6-.87-.88-1.3-.14-.21-.27-.43-.4-.64-.26-.43-.5-.84-.72-1.26-.11-.2-.21-.41-.31-.61-.19-.4-.36-.8-.51-1.19h0a9.15,9.15,0,0,1-.39-1.31c0-.22-.08-.44-.1-.66a5.72,5.72,0,0,1,0-1,4.57,4.57,0,0,1,.12-.74c0-.12.07-.24.11-.36a5.37,5.37,0,0,1,.31-.69,6.51,6.51,0,0,1,.43-.64c.17-.21.35-.4.54-.6a10.85,10.85,0,0,1,2.67-1.76c.6-.29,1.26-.56,2-.82l.53-.19,1.1-.36h0l1.15-.34c1.1-.31,2.26-.59,3.44-.87s2.39-.54,3.59-.81l2.4-.54q1.26-.28,2.49-.6l1.19-.32c.59-.16,1.17-.33,1.72-.51a5.05,5.05,0,0,0,.55-.18c.73-.24,1.41-.5,2-.78a13.78,13.78,0,0,0,1.76-.9,5.66,5.66,0,0,0,.48-.31l.34-.24a6.1,6.1,0,0,0,.61-.51,3.44,3.44,0,0,0,.27-.27,4.78,4.78,0,0,0,.89-1.25c2.58-5.36-5.49-16.6-8.25-24.88-.07-.21-.13-.41-.2-.61-.17-.57-.32-1.13-.43-1.66,0-.24-.1-.49-.13-.72a1.55,1.55,0,0,0,0-.21,6.14,6.14,0,0,1,.64-4.18,4.88,4.88,0,0,1,.64-.8,6.47,6.47,0,0,1,2-1.29,4.87,4.87,0,0,1,.53-.21l.4-.13c.34-.1.69-.2,1-.28l.56-.12.58-.11a68.2,68.2,0,0,1,10.71-.45c6.88.05,13.75.1,16.2-3,5-6.3-6.73-27.63-1-33.33,1.35-1.35,3.58-1.72,6.28-1.56h0c4.4.26,10.06,1.92,15.2,3l.24,0,.24.05h0c4.79,1,9,1.36,11.34-.47a5.59,5.59,0,0,0,1.51-2c3.58-7.47-1.29-26.87,4.86-30.74,6.79-4.28,25,11.92,32.26,8.41s5.86-27.81,13.5-30.49,21.65,17.23,29.56,15.42c6.57-1.49,10.53-18.82,16.45-24.74.22-.22.45-.42.67-.61a6.92,6.92,0,0,1,1-.72,4.19,4.19,0,0,1,.71-.34,4.31,4.31,0,0,1,1.11-.28.87.87,0,0,1,.23,0,3.42,3.42,0,0,1,.78,0l.27,0,.51.12.35.11c1.87.67,3.8,2.35,5.77,4.51l.45.5c.31.34.61.7.92,1.06.15.17.3.35.44.53,1.07,1.28,2.14,2.64,3.21,4l1.2,1.52Z"/><ellipse class="cls-3" cx="147.55" cy="197.71" rx="39.72" ry="15.74" transform="translate(-96.59 162.25) rotate(-45)"/><path class="cls-6" d="M65.2,41.65A31.45,31.45,0,1,0,50.11,91.09L136.78,201a11,11,0,0,0,15.47,1.83h0a11,11,0,0,0,1.82-15.47L67.41,77.44A31.47,31.47,0,0,0,65.2,41.65Z"/><path class="cls-7" d="M155.53,198.53a10.89,10.89,0,0,1-3.29,4.26A11,11,0,0,1,136.77,201L50.11,91.09A31.46,31.46,0,0,1,21,36.43a31,31,0,0,1,4.36-2.88,31.46,31.46,0,0,0,32.9,51.09L145,194.51A11,11,0,0,0,155.53,198.53Z"/><ellipse class="cls-3" cx="360.24" cy="197.71" rx="15.74" ry="39.72" transform="translate(-34.29 312.64) rotate(-45)"/><path class="cls-6" d="M447.48,41.65a31.45,31.45,0,1,1,15.1,49.44L375.91,201a11,11,0,0,1-15.47,1.83h0a11,11,0,0,1-1.83-15.47L445.28,77.44A31.45,31.45,0,0,1,447.48,41.65Z"/><path class="cls-7" d="M357.16,198.53A11,11,0,0,0,375.91,201L462.57,91.09a31.46,31.46,0,0,0,29.09-54.66,30.51,30.51,0,0,0-4.37-2.88,31.46,31.46,0,0,1-32.9,51.09L367.73,194.51A11,11,0,0,1,357.16,198.53Z"/><circle class="cls-8" cx="176.64" cy="292.59" r="48.64"/><circle class="cls-9" cx="188.44" cy="299.8" r="16.41"/><path class="cls-10" d="M184.3,340.62a48.64,48.64,0,1,1,0-96.06,48.64,48.64,0,0,0,0,96.06Z"/><circle class="cls-3" cx="333.99" cy="292.59" r="68.02"/><circle class="cls-8" cx="333.99" cy="292.59" r="48.64"/><circle class="cls-9" cx="325.24" cy="299.8" r="16.41"/><path class="cls-10" d="M341.65,340.62a48.64,48.64,0,1,1,0-96.06,48.64,48.64,0,0,0,0,96.06Z"/><path class="cls-8" d="M215.4,410l11.94,23.65a2.74,2.74,0,0,0,5-.29l7.6-20.57L217.51,403Z"/><path class="cls-8" d="M297.63,410l-11.94,23.65a2.74,2.74,0,0,1-5-.29l-7.6-20.57L295.52,403Z"/><path class="cls-5" d="M256.08,420.85A81.36,81.36,0,0,1,198.36,397a6.9,6.9,0,0,1,9.77-9.76,67.89,67.89,0,0,0,95.9,0A6.9,6.9,0,0,1,313.8,397,81.36,81.36,0,0,1,256.08,420.85Z"/><circle class="cls-11" cx="347.03" cy="377.7" r="9.21"/><circle class="cls-11" cx="375.99" cy="393.8" r="6.63"/><circle class="cls-11" cx="342.43" cy="410.99" r="13.21"/><circle class="cls-11" cx="167.11" cy="377.7" r="9.21"/><circle class="cls-11" cx="138.15" cy="393.8" r="6.63"/><circle class="cls-11" cx="171.71" cy="410.99" r="13.21"/></g></svg>