<svg xmlns="http://www.w3.org/2000/svg" viewBox="0 0 512 512"><defs><style>.cls-1{fill:#a99bd4;}.cls-2{fill:#366fca;}.cls-3{fill:#356cbc;}.cls-4{fill:#3469b7;}.cls-5{fill:#3586cb;}.cls-6{fill:#27273d;}.cls-7{fill:#2f64a3;}.cls-8{fill:#fff;}.cls-9{fill:#e8e8e8;}.cls-10{fill:#a65c3b;}.cls-11{fill:#f6d372;}</style></defs><title>50 Monsters Avatar Icons</title><g id="BULINE"><circle class="cls-1" cx="256" cy="256" r="256"/></g><g id="Icons"><path class="cls-2" d="M409.08,408.85A369,369,0,0,1,405,464.22a255.65,255.65,0,0,1-301.29-2.47l-.91-.67a370,370,0,0,1-3.67-52.23c0-63.49,15.86-121.23,41.77-164.21L138,159.69l-.12-3.78-.28-8.32-.51-15.07h22l4.36,8.45,5.5,10.66,17.58,34.05,2.5,4.84c19.78-14.22,41.82-22.17,65.06-22.17,24.33,0,47.35,8.71,67.85,24.22l21.13-40.94h0l5.5-10.65h0l1-2,3.35-6.49h22l-.51,15.07-.26,7.75-.14,4.35-3.07,91.18C394.69,293.13,409.08,348.38,409.08,408.85Z"/><path class="cls-3" d="M152.51,362.66q-.34,10.36-.34,20.9A610.67,610.67,0,0,0,162,494.2a255.35,255.35,0,0,1-58.37-32.45,368.72,368.72,0,0,1-3.77-52.9c0-63.49,15.86-121.23,41.77-164.21l-2.86-85h0l-.11-3.48-.29-8.61-.51-15.06h22l4.18,8.1,5.5,10.66,17.3,33.51c-.12.3-.24.59-.35.89-10.61,26.89-19.1,57.21-25,90q-1.46,8.1-2.69,16.4c-1,6.31-1.8,12.72-2.54,19.19q-1.74,14.87-2.75,30.22-.28,4.29-.51,8.62Q152.71,356.34,152.51,362.66Z"/><circle class="cls-4" cx="182.27" cy="315.74" r="45.11"/><circle class="cls-4" cx="331.08" cy="315.74" r="45.11"/><circle class="cls-5" cx="331.08" cy="266.35" r="23"/><circle class="cls-5" cx="203.92" cy="323.52" r="23"/><circle class="cls-5" cx="199.08" cy="247.4" r="23"/><circle class="cls-5" cx="265.58" cy="300.85" r="11.5"/><circle class="cls-5" cx="308.08" cy="333.52" r="11.5"/><circle class="cls-5" cx="285.97" cy="224.4" r="11.5"/><circle class="cls-5" cx="148.58" cy="351.85" r="11.5"/><circle class="cls-5" cx="151.42" cy="300.85" r="11.5"/><circle class="cls-5" cx="363.75" cy="340.68" r="16.5"/><rect class="cls-6" x="204.83" y="354.35" width="99.5" height="52" rx="26"/><circle class="cls-4" cx="137.08" cy="92.85" r="66.85"/><path class="cls-7" d="M116.77,143.78a66.6,66.6,0,0,0,31.81,14.93,66.85,66.85,0,1,1,0-131.72,66.86,66.86,0,0,0-31.81,116.79Z"/><circle class="cls-8" cx="137.08" cy="91.96" r="55.64"/><path class="cls-9" d="M116.77,143.78a55.66,55.66,0,0,1,4-105,66.86,66.86,0,0,0-4,105Z"/><circle class="cls-10" cx="137.08" cy="95.04" r="32.83"/><circle class="cls-6" cx="136.78" cy="95.04" r="24.6"/><circle class="cls-8" cx="151.42" cy="78.12" r="7.67"/><circle class="cls-8" cx="136.78" cy="95.04" r="9.26"/><circle class="cls-4" cx="374.92" cy="92.85" r="66.85"/><path class="cls-7" d="M354.62,143.78a66.6,66.6,0,0,0,31.81,14.93,66.85,66.85,0,1,1,0-131.72,66.86,66.86,0,0,0-31.81,116.79Z"/><circle class="cls-8" cx="374.92" cy="91.96" r="55.64"/><path class="cls-9" d="M354.62,143.78a55.66,55.66,0,0,1,4-105,66.86,66.86,0,0,0-4,105Z"/><circle class="cls-10" cx="374.92" cy="95.04" r="32.83"/><circle class="cls-6" cx="374.62" cy="95.04" r="24.6"/><circle class="cls-8" cx="389.27" cy="78.12" r="7.67"/><circle class="cls-8" cx="374.62" cy="95.04" r="9.26"/><circle class="cls-6" cx="236.77" cy="256.44" r="13.69"/><circle class="cls-6" cx="272.77" cy="256.44" r="13.69"/><path class="cls-11" d="M230.83,354.35h17.25a0,0,0,0,1,0,0v13.38a8.63,8.63,0,0,1-8.63,8.63h0a8.63,8.63,0,0,1-8.63-8.63V354.35A0,0,0,0,1,230.83,354.35Z"/><path class="cls-11" d="M265.58,384.35h17.25a0,0,0,0,1,0,0v13.38a8.63,8.63,0,0,1-8.63,8.63h0a8.63,8.63,0,0,1-8.63-8.63V384.35a0,0,0,0,1,0,0Z" transform="translate(548.4 790.7) rotate(180)"/></g></svg>