<svg xmlns="http://www.w3.org/2000/svg" viewBox="0 0 512 512"><defs><style>.cls-1{fill:#a99bd4;}.cls-2{fill:#3e436d;}.cls-3{fill:#32314b;}.cls-4{fill:#f6d372;}.cls-5{fill:#e88032;}.cls-6{fill:#ce6d2c;}.cls-7{fill:#dbb963;}.cls-8{fill:#fff;}.cls-9{fill:#3586cb;}.cls-10{fill:#27273d;}.cls-11{fill:#db1b1b;}</style></defs><title>50 Monsters Avatar Icons</title><g id="BULINE"><circle class="cls-1" cx="256" cy="256" r="256"/></g><g id="Icons"><path class="cls-2" d="M427.2,446.33a255.83,255.83,0,0,1-49.51,34.94q-8,4.32-16.27,8.08a254.2,254.2,0,0,1-72,20.49,258.4,258.4,0,0,1-27.72,2.1c-1.89,0-3.78.06-5.68.06a255.35,255.35,0,0,1-82.46-13.58q-8.85-3-17.41-6.64A254.25,254.25,0,0,1,124,475.4a256.84,256.84,0,0,1-40.39-30.11l-.11-.11c14.56-36.37,20.8-73.89,23.28-104a222.77,222.77,0,0,0-7.75-79.59,162.7,162.7,0,0,1-1.21-84.77,161.09,161.09,0,0,1,27.59-57.21,157.85,157.85,0,0,1,13.13-15.28A160.71,160.71,0,0,1,244.69,55.63c1.54-.09,3.08-.16,4.63-.21,1.76-.06,3.53-.09,5.3-.09l2.41,0,1.19,0,2,.06,2.61.11.45,0,2.62.16c2.58.18,5.15.42,7.69.73A160.63,160.63,0,0,1,326.11,72a161.57,161.57,0,0,1,44.94,32.93,160.92,160.92,0,0,1,40.12,72.19,163,163,0,0,1-.65,82.16c-7,25.81-10,52.54-7.95,79.19C405,369.32,411.43,408.49,427.2,446.33Z"/><path class="cls-3" d="M273.63,56.44h-.06a159.69,159.69,0,0,0-49.48,14.09q-6.15,2.88-12,6.26a160.08,160.08,0,0,0-17.84,11.92A162.16,162.16,0,0,0,161.86,122a159.69,159.69,0,0,0-10.77,16.91q-2.93,5.26-5.44,10.75a159.88,159.88,0,0,0-9.64,27.2,162.7,162.7,0,0,0,1.21,84.77A222.77,222.77,0,0,1,145,341.17c-2.05,25-6.7,55.05-16.53,85.33A110.33,110.33,0,0,0,124,475.4a256.84,256.84,0,0,1-40.39-30.11c14.6-36.41,20.85-74,23.33-104.12a222.77,222.77,0,0,0-7.75-79.59A162.66,162.66,0,0,1,98,176.9a.29.29,0,0,1,0-.09,159.24,159.24,0,0,1,9.61-27.12l0-.08a161.67,161.67,0,0,1,17.88-29.92,159.27,159.27,0,0,1,13.12-15.29,161.53,161.53,0,0,1,47.29-33.79l.15-.07a160.63,160.63,0,0,1,27.3-9.91l.16,0a161.56,161.56,0,0,1,35.77-5.17c1.76-.06,3.53-.09,5.3-.09l2.41,0,1.19,0,2,.06,2.61.11.45,0,2.62.16C268.48,55.89,271.06,56.14,273.63,56.44Z"/><path class="cls-4" d="M352.63,141a10,10,0,0,1-4.41-19c.59-.3,43.22-22,57.74-76.27a10,10,0,0,1,19.32,5.16C408.29,114.43,359.08,139,357,140A9.89,9.89,0,0,1,352.63,141Z"/><circle class="cls-5" cx="416.61" cy="48.33" r="35.99"/><path class="cls-6" d="M425.27,83.27a36,36,0,1,1,0-69.88,36,36,0,0,0,0,69.88Z"/><path class="cls-4" d="M157.61,141a10,10,0,0,0,4.4-19c-.58-.3-43.22-22-57.73-76.27A10,10,0,0,0,85,50.91c17,63.52,66.2,88.07,68.29,89.08A9.86,9.86,0,0,0,157.61,141Z"/><circle class="cls-5" cx="94.61" cy="48.33" r="35.99"/><path class="cls-6" d="M103.27,83.27a36,36,0,1,1,0-69.88,36,36,0,0,0,0,69.88Z"/><path class="cls-7" d="M213.62,65.17c0,14.08-6.27,25.5-14,25.5-6.72,0-12.33-8.63-13.69-20.13a160.44,160.44,0,0,1,27.46-10A45.44,45.44,0,0,1,213.62,65.17Z"/><ellipse class="cls-4" cx="257.2" cy="99.33" rx="14" ry="25.5"/><path class="cls-4" d="M326.11,72c-1.64,10.77-7.06,18.68-13.49,18.68-7.73,0-14-11.42-14-25.5,0-1.26.05-2.5.15-3.71A160.18,160.18,0,0,1,326.11,72Z"/><path class="cls-4" d="M411.17,177.11c-10.38,6.38-21.26,7.26-25.41,1.67-4.61-6.21.82-18.05,12.13-26.44a44.52,44.52,0,0,1,3.71-2.49A159.43,159.43,0,0,1,411.17,177.11Z"/><path class="cls-7" d="M123.74,178.78c-4.22,5.68-15.37,4.68-25.89-2a159.88,159.88,0,0,1,9.64-27.2,44.58,44.58,0,0,1,4.13,2.73C122.92,160.73,128.35,172.57,123.74,178.78Z"/><ellipse class="cls-4" cx="334.28" cy="397.5" rx="14" ry="25.5"/><ellipse class="cls-4" cx="167.62" cy="397.5" rx="14" ry="25.5"/><ellipse class="cls-4" cx="261.62" cy="440.18" rx="14" ry="25.5"/><ellipse class="cls-4" cx="375.62" cy="302.66" rx="14" ry="25.5"/><path class="cls-4" d="M380.62,465.68a40.28,40.28,0,0,1-2.93,15.59q-8,4.32-16.27,8.08c-5.16-3.76-8.8-12.93-8.8-23.67,0-14.08,6.27-25.5,14-25.5S380.62,451.6,380.62,465.68Z"/><path class="cls-4" d="M289.4,509.84a258.4,258.4,0,0,1-27.72,2.1c.67-12.94,6.66-23.07,13.94-23.07C282.5,488.87,288.22,497.92,289.4,509.84Z"/><path class="cls-4" d="M173.54,498.42q-8.85-3-17.41-6.64a9.4,9.4,0,0,1,6.49-2.91C167,488.87,171,492.6,173.54,498.42Z"/><ellipse class="cls-7" cx="130.6" cy="303.54" rx="14" ry="25.5"/><circle class="cls-8" cx="255.62" cy="211.91" r="78.66"/><circle class="cls-9" cx="255.62" cy="216.27" r="46.42"/><circle class="cls-10" cx="255.2" cy="216.27" r="34.78"/><circle class="cls-8" cx="275.9" cy="192.34" r="10.85"/><circle class="cls-8" cx="255.2" cy="216.27" r="13.09"/><path class="cls-10" d="M299.16,340.58v17.51a39.54,39.54,0,0,1-67.5,28,41.05,41.05,0,0,1-3.53-4,39.43,39.43,0,0,1-8-23.93V340.58a39.54,39.54,0,1,1,79.08,0Z"/><path class="cls-11" d="M291.11,382a39.56,39.56,0,0,1-59.45,4,41.05,41.05,0,0,1-3.53-4,39.53,39.53,0,0,1,59.45-4A40,40,0,0,1,291.11,382Z"/><path class="cls-8" d="M276.79,305V316a17.17,17.17,0,0,1-34.34,0V305a39.65,39.65,0,0,1,34.34,0Z"/><path class="cls-8" d="M271.17,393.56v2.36a39.75,39.75,0,0,1-23.1,0v-2.35a11.55,11.55,0,1,1,23.1,0Z"/></g></svg>