<svg xmlns="http://www.w3.org/2000/svg" viewBox="0 0 512 512"><defs><style>.cls-1{fill:#27273d;}.cls-2{fill:#fff;}.cls-3{fill:#aa60fa;}.cls-4{fill:#3586cb;}.cls-5{fill:#e88032;}.cls-6{fill:#d1702f;}.cls-7{fill:#ea8d4e;}.cls-8{fill:#9054dd;}.cls-9{fill:#fab3a7;}</style></defs><title>50 Monsters Avatar Icons</title><g id="BULINE"><circle class="cls-1" cx="256" cy="256" r="256"/></g><g id="Icons"><path class="cls-2" d="M444.75,210.58l-38.85.24.2-.24-38.85.24.2-.24-42.61.26,20.3,20.3a4,4,0,0,0,5.85-.3l14.57-17.93,18.23,18.23a4,4,0,0,0,5.85-.3l14.57-17.93,18.23,18.23a4,4,0,0,0,5.85-.3Z"/><path class="cls-3" d="M262.61,69.51S305.07,2.88,372.48,14.27a11.22,11.22,0,0,1,8,16.4l-.21.41a18.32,18.32,0,0,0,9.85,25.2c14.28,5.56,37.77,21.27,44.56,65.1a14.4,14.4,0,0,1-13.07,16.44c-5.09.49-10.36,2.58-13.77,8.21a23.46,23.46,0,0,1-20.1,11.16H280.55Z"/><circle class="cls-2" cx="419.82" cy="112.77" r="71.1"/><circle class="cls-4" cx="419.82" cy="116.7" r="41.96"/><circle class="cls-1" cx="419.43" cy="116.7" r="31.44"/><circle class="cls-2" cx="438.15" cy="95.07" r="9.8"/><circle class="cls-2" cx="419.43" cy="116.7" r="11.83"/><path class="cls-5" d="M444.13,211.35c-.33,0-.66,0-1,0H345.59a31.63,31.63,0,0,0-11.31,2.06,30.86,30.86,0,0,0-4.65,2.19,32.33,32.33,0,0,0-6.72,5.13,32.05,32.05,0,0,0,22.68,54.71h31a20.28,20.28,0,0,1,20.25,20.25,57.21,57.21,0,0,1-57.19,57.2A26.06,26.06,0,0,0,313.53,379V505.5A255.51,255.51,0,0,1,107,464.19V211.38a143.87,143.87,0,0,1,7.57-46.1q2-5.92,4.49-11.63c1-2.36,2.11-4.69,3.25-7a158.61,158.61,0,0,1,32.08-43.46,172.6,172.6,0,0,1,23.05-18.64q6.94-4.71,14.41-8.8A187.24,187.24,0,0,1,243,56.92a194.8,194.8,0,0,1,32.92-4.07q3.84-.15,7.71-.15h2.43c1.31,0,2.62,0,3.92.09l2.38.09c1.31.06,2.62.13,3.92.21l2.09.14,2.07.17.49,0a190.64,190.64,0,0,1,62.31,16.24,179.2,179.2,0,0,1,28.26,16q4.35,3,8.49,6.26a170,170,0,0,1,15.31,13.62,161.72,161.72,0,0,1,14.54,16.71q2.17,2.86,4.19,5.82,3.79,5.51,7.09,11.31,2.75,4.83,5.12,9.85a145.45,145.45,0,0,1,9.18,25,144,144,0,0,1,3.71,18.93A16.14,16.14,0,0,1,444.13,211.35Z"/><path class="cls-6" d="M301,53.45a194.27,194.27,0,0,0-30,5q-8.25,2.06-16.17,4.8a181.35,181.35,0,0,0-50.07,26.6,168.67,168.67,0,0,0-15.66,13.34c-.51.5-1,1-1.53,1.5-1.46,1.44-2.89,2.9-4.29,4.4q-2.81,3-5.46,6.11A156.35,156.35,0,0,0,157.33,146q-1.91,3.76-3.58,7.65-2.49,5.72-4.49,11.63a144.14,144.14,0,0,0-7.57,46.1V485.12A255.6,255.6,0,0,1,107,464.19V211.38a143.87,143.87,0,0,1,7.57-46.1q2-5.92,4.49-11.63c1-2.36,2.11-4.69,3.25-7a158.61,158.61,0,0,1,32.08-43.46,172.6,172.6,0,0,1,23.05-18.64q6.94-4.71,14.41-8.8A187.24,187.24,0,0,1,243,56.92a194.8,194.8,0,0,1,32.92-4.07q3.84-.15,7.71-.15h2.43c1.31,0,2.62,0,3.92.09l2.38.09c1.31,0,2.62.12,3.92.21l2.09.14,2.07.17Z"/><path class="cls-7" d="M443.13,211.38H345.59a31.63,31.63,0,0,0-11.31,2.06c-43.65-85.28-155.22-106.51-179.89-110.23C186.64,72.13,232.62,52.7,283.65,52.7c90.73,0,165.49,61.44,175.5,140.54A16.14,16.14,0,0,1,443.13,211.38Z"/><path class="cls-3" d="M193.1,77.6S150.64,11,83.23,22.36a11.22,11.22,0,0,0-8,16.4l.21.41a18.32,18.32,0,0,1-9.85,25.2c-14.28,5.56-37.77,21.27-44.55,65.1a14.4,14.4,0,0,0,13.07,16.44c5.09.49,10.36,2.59,13.76,8.21A23.45,23.45,0,0,0,68,165.28H175.16Z"/><path class="cls-8" d="M182.65,91.53s-30.09-47.21-77.84-39.14A8,8,0,0,0,99.16,64l.15.29a13,13,0,0,1-7,17.86C82.21,86.1,65.57,97.23,60.77,128.28A10.18,10.18,0,0,0,70,139.92a12.22,12.22,0,0,1,9.76,5.82A16.61,16.61,0,0,0,94,153.65h75.92Z"/><circle class="cls-7" cx="283.65" cy="462.83" r="17.38"/><circle class="cls-7" cx="283.65" cy="426.63" r="12.31"/><circle class="cls-2" cx="208.07" cy="135.98" r="86.42"/><circle class="cls-4" cx="208.07" cy="140.76" r="51"/><circle class="cls-1" cx="207.6" cy="140.76" r="38.21"/><circle class="cls-2" cx="230.35" cy="114.47" r="11.92"/><circle class="cls-2" cx="207.6" cy="140.76" r="14.38"/><ellipse class="cls-9" cx="349.02" cy="104.85" rx="11.47" ry="15.09"/><ellipse class="cls-9" cx="394.89" cy="158.67" rx="11.47" ry="15.09" transform="translate(-21.26 247.74) rotate(-33.97)"/><ellipse class="cls-9" cx="398.5" cy="119.94" rx="6.85" ry="9.01"/><ellipse class="cls-9" cx="333.92" cy="144.99" rx="6.85" ry="9.01"/><ellipse class="cls-9" cx="312.47" cy="85.27" rx="6.85" ry="9.01" transform="translate(123.46 348.29) rotate(-69.56)"/><ellipse class="cls-9" cx="355.16" cy="181.28" rx="9.01" ry="6.85" transform="translate(-43.22 164.04) rotate(-24.56)"/><ellipse class="cls-9" cx="434.82" cy="181.28" rx="6.85" ry="9.01"/></g></svg>