<svg xmlns="http://www.w3.org/2000/svg" viewBox="0 0 512 512"><defs><style>.cls-1{fill:#934cf5;}.cls-2{fill:#fc4581;}.cls-3{fill:#e23d79;}.cls-4{fill:#f7bb38;}.cls-5{fill:#e2a833;}.cls-6{fill:#e2a937;}.cls-7{fill:#fff;}.cls-8{fill:#3586cb;}.cls-9{fill:#27273d;}.cls-10{fill:#e88032;}.cls-11{fill:#f6d372;}</style></defs><title>50 Monsters Avatar Icons</title><g id="BULINE"><circle class="cls-1" cx="256" cy="256" r="256"/></g><g id="Icons"><path class="cls-2" d="M465.5,106.24,414,124.3a32.44,32.44,0,0,0-12.2,53.55h0a32.44,32.44,0,0,0,53.75-12.78l17.08-51.82A5.58,5.58,0,0,0,465.5,106.24Z"/><path class="cls-3" d="M405.34,180.91a31.34,31.34,0,0,1-3.52-3.06A32.44,32.44,0,0,1,414,124.3l51.48-18.06a5.58,5.58,0,0,1,7.31,6.41,5.56,5.56,0,0,0-.7.19L420.62,130.9A32.45,32.45,0,0,0,405.34,180.91Z"/><path class="cls-2" d="M42.69,114.17l18.07,51.48a32.44,32.44,0,0,0,53.55,12.2h0a32.44,32.44,0,0,0-12.79-53.74L49.7,107A5.58,5.58,0,0,0,42.69,114.17Z"/><path class="cls-3" d="M117.36,174.33a31.38,31.38,0,0,1-3,3.52,32.44,32.44,0,0,1-53.55-12.19L42.69,114.17a5.58,5.58,0,0,1,6.42-7.3,6.66,6.66,0,0,0,.19.7l18.06,51.49A32.44,32.44,0,0,0,117.36,174.33Z"/><path class="cls-4" d="M492.31,256.31c0,17.65-7.56,34.4-21.13,49.48A216.68,216.68,0,0,1,393,472.31,255,255,0,0,1,256,512a257.2,257.2,0,0,1-52.65-5.42,254.64,254.64,0,0,1-89.17-37.43,216.62,216.62,0,0,1-74.5-163.36C26.11,290.71,18.55,274,18.55,256.31c0-28.65,19.91-54.95,53.14-75.56h0c2.81-1.75,5.73-3.46,8.73-5.12,1.18-.66,2.37-1.3,3.58-1.94a217.51,217.51,0,0,1,34.8-36.12c2.93-2.41,5.94-4.76,9-7A54.64,54.64,0,0,1,178,55.34h.46A54.53,54.53,0,0,1,223.77,79.5h0a54.23,54.23,0,0,1,5.57,10.62c2.59-.31,5.2-.58,7.82-.79q9-.78,18.27-.78a216.9,216.9,0,0,1,27,1.7h0l0-.1a52.41,52.41,0,0,1,3.75-7.72v0a54.64,54.64,0,0,1,97.56,48.7q6.07,4.53,11.81,9.47,3.48,3,6.83,6.13a217.34,217.34,0,0,1,24.38,27q7.93,4.2,15.06,8.79C473.49,202.82,492.31,228.45,492.31,256.31Z"/><path class="cls-5" d="M203.35,506.58a254.64,254.64,0,0,1-89.17-37.43c-1.23-.81-2.44-1.64-3.65-2.47A216.64,216.64,0,0,1,38.82,305.79C25.25,290.71,17.69,274,17.69,256.31c0-28.79,20.11-55.2,53.62-75.85h0q4.22-2.59,8.72-5.08h0c1-.57,2.06-1.13,3.11-1.68a217.41,217.41,0,0,1,35.36-36.57q4.14-3.39,8.44-6.57a54.65,54.65,0,0,1,50.62-75.22h.4a54.23,54.23,0,0,1,14.1,1.94,54.07,54.07,0,0,0-14.83,6.59h0a56.43,56.43,0,0,0-4.95,3.56h0a54.92,54.92,0,0,0-8.05,8h0A54.36,54.36,0,0,0,151.93,110v.14a54.42,54.42,0,0,0,4,20.43c-3.36,2.49-6.65,5.06-9.86,7.74q-3.47,2.86-6.8,5.89a212.82,212.82,0,0,0-15.87,15.92q-5.92,6.56-11.27,13.59-6.39,3.39-12.25,7h0q-5.2,3.22-10,6.62c-27.25,19.51-43.25,43.29-43.25,69,0,17.65,7.56,34.4,21.13,49.48A216.84,216.84,0,0,0,203.35,506.58Z"/><circle class="cls-6" cx="178.43" cy="119.5" r="46.27"/><circle class="cls-6" cx="333.2" cy="119.5" r="46.27"/><circle class="cls-7" cx="178.43" cy="109.97" r="42.98"/><circle class="cls-8" cx="178.43" cy="112.35" r="25.37"/><circle class="cls-9" cx="178.2" cy="112.35" r="19"/><circle class="cls-7" cx="189.51" cy="99.28" r="5.93"/><circle class="cls-7" cx="178.2" cy="112.35" r="7.15"/><circle class="cls-7" cx="333.43" cy="109.97" r="42.98"/><circle class="cls-8" cx="333.43" cy="112.35" r="25.37"/><circle class="cls-9" cx="333.2" cy="112.35" r="19"/><circle class="cls-7" cx="344.51" cy="99.28" r="5.93"/><circle class="cls-7" cx="333.2" cy="112.35" r="7.15"/><path class="cls-6" d="M224.7,110.12a46.27,46.27,0,1,0-92.54,0Z"/><path class="cls-6" d="M379.7,110.12a46.27,46.27,0,1,0-92.54,0Z"/><circle class="cls-10" cx="376.41" cy="198.42" r="11.98"/><circle class="cls-10" cx="333.2" cy="225.64" r="11.98"/><circle class="cls-10" cx="412.43" cy="237.62" r="11.98"/><circle class="cls-10" cx="370.78" cy="237.62" r="7.5"/><circle class="cls-10" cx="350.44" cy="263.81" r="7.5"/><circle class="cls-10" cx="141.51" cy="198.42" r="11.98"/><circle class="cls-10" cx="98.3" cy="225.64" r="11.98"/><circle class="cls-10" cx="171.05" cy="242.1" r="11.98"/><circle class="cls-10" cx="135.88" cy="237.62" r="7.5"/><circle class="cls-10" cx="115.54" cy="263.81" r="7.5"/><path class="cls-7" d="M189.51,210.4,201,259.24a5.66,5.66,0,0,0,10,2.11L224.7,243.3Z"/><path class="cls-6" d="M208.38,189.47c-9.67,2.61-21.9,9.55-31.79,26.94-2.87,5,3.54,10.23,7.94,6.47l28.62-24.42A5.21,5.21,0,0,0,208.38,189.47Z"/><path class="cls-9" d="M203.64,204.55c25.69,25.13,63.5,51.9,115.14,64.32a1.57,1.57,0,0,1-.51,3.09C286.92,269,228.56,257.83,191.59,216,184.49,208,196,197.06,203.64,204.55Z"/><path class="cls-6" d="M293.18,320.88V321a1.71,1.71,0,0,1-3.28.65,37.76,37.76,0,0,0-68.94,0,1.71,1.71,0,0,1-3.28-.65v-.13a37.75,37.75,0,1,1,75.5,0Z"/><path class="cls-11" d="M376.41,452.31a87.08,87.08,0,0,1-6.51,33,256.05,256.05,0,0,1-228-.09,87.26,87.26,0,0,1-5.72-21.63,86.09,86.09,0,0,1-.74-11.29c0-56.16,53.94-101.68,120.48-101.68S376.41,396.15,376.41,452.31Z"/><path class="cls-2" d="M249.82,9.08,226.19,58.26a32.44,32.44,0,0,0,29.24,46.49h0a32.44,32.44,0,0,0,29-47L259.83,9A5.58,5.58,0,0,0,249.82,9.08Z"/><path class="cls-3" d="M260.08,104.42a32.46,32.46,0,0,1-33.89-46.16L249.82,9.08a5.58,5.58,0,0,1,9.7-.63,6.44,6.44,0,0,0-.36.63L235.52,58.26A32.45,32.45,0,0,0,260.08,104.42Z"/></g></svg>