<svg xmlns="http://www.w3.org/2000/svg" viewBox="0 0 512 512"><defs><style>.cls-1{fill:#f7bb38;}.cls-2{fill:#db1b1b;}.cls-3{fill:#c61c1c;}.cls-4{fill:#00b564;}.cls-5{fill:#04a055;}.cls-6{fill:#fff;}.cls-7{fill:#4acc97;}.cls-8{fill:#e2e2e2;}.cls-9{fill:#38c487;}.cls-10{fill:#e83434;}.cls-11{fill:#27273d;}</style></defs><title>50 Monsters Avatar Icons</title><g id="BULINE"><circle class="cls-1" cx="256" cy="256" r="256"/></g><g id="Icons"><path class="cls-2" d="M106,184c0,12-12.48,25.26-9.92,36.5,2.63,11.6,19.69,18.12,24.74,28.59,5.13,10.64-.34,28,7,37.17s25.51,7.69,34.7,15,11.7,25.38,22.35,30.51c10.46,5,26.17-4.16,37.78-1.52C233.84,332.83,244,348,256,348s22.16-15.17,33.39-17.73c11.61-2.64,27.32,6.57,37.79,1.52,10.64-5.13,13.2-23.21,22.34-30.51s27.37-5.84,34.7-15,1.83-26.53,7-37.17c5.05-10.47,22.11-17,24.74-28.59C418.48,209.26,406,196,406,184s12.48-25.26,9.92-36.5c-2.63-11.6-19.69-18.12-24.74-28.59-5.13-10.64.34-28-7-37.17s-25.51-7.69-34.7-15-11.7-25.38-22.35-30.51c-10.46-5.05-26.17,4.16-37.78,1.52C278.16,35.17,268,20,256,20s-22.16,15.17-33.39,17.73c-11.61,2.64-27.32-6.57-37.79-1.52-10.64,5.13-13.2,23.21-22.34,30.51s-27.37,5.84-34.7,15-1.83,26.53-7,37.17c-5,10.47-22.11,17-24.74,28.59C93.52,158.74,106,172,106,184Z"/><path class="cls-3" d="M276.61,330.27A22.54,22.54,0,0,1,283,333c-8.82,5.15-17.3,15-27,15-12,0-22.16-15.17-33.39-17.73-11.61-2.64-27.32,6.57-37.78,1.52-10.65-5.13-13.21-23.21-22.35-30.51s-27.37-5.84-34.7-15-1.83-26.53-7-37.17c-5-10.47-22.11-17-24.74-28.59C93.52,209.26,106,196,106,184s-12.48-25.26-9.92-36.5c2.63-11.6,19.69-18.12,24.74-28.59,5.13-10.64-.34-28,7-37.17s25.51-7.69,34.7-15,11.7-25.38,22.34-30.51c10.47-5.05,26.18,4.16,37.79,1.52C233.84,35.17,244,20,256,20c9.7,0,18.18,9.89,27,15a22.54,22.54,0,0,1-6.39,2.69c-11.61,2.64-27.32-6.57-37.79-1.52-10.64,5.13-13.2,23.21-22.34,30.51s-27.37,5.84-34.7,15-1.83,26.53-7,37.17c-5,10.47-22.11,17-24.74,28.59C147.52,158.74,160,172,160,184s-12.48,25.26-9.92,36.5c2.63,11.6,19.69,18.12,24.74,28.59,5.13,10.64-.34,28,7,37.17s25.51,7.69,34.7,15,11.7,25.38,22.35,30.51C249.29,336.84,265,327.63,276.61,330.27Z"/><path class="cls-4" d="M333,160.87V500.21a256.61,256.61,0,0,1-154,0V160.87a20.63,20.63,0,0,1,20.63-20.62H312.37A20.62,20.62,0,0,1,333,160.87Z"/><path class="cls-5" d="M231,140.25a20.62,20.62,0,0,0-20.62,20.62V507.94A255.16,255.16,0,0,1,179,500.21V160.87a20.63,20.63,0,0,1,20.63-20.62Z"/><path class="cls-6" d="M351,279a95,95,0,1,1-18.17-55.89A95,95,0,0,1,351,279Z"/><path class="cls-5" d="M333,334.65V368a95,95,0,0,1-154,0V334.65a95,95,0,0,0,154,0Z"/><path class="cls-7" d="M332.83,223.11H179.17a95,95,0,0,1,153.66,0Z"/><path class="cls-8" d="M276.67,371.74a95,95,0,1,1,0-185.48,95,95,0,0,0,0,185.48Z"/><path class="cls-9" d="M276.67,186.26a95,95,0,0,0-56.17,36.85H179.17a95.13,95.13,0,0,1,97.5-36.85Z"/><circle class="cls-10" cx="368.51" cy="127.65" r="16.28"/><circle class="cls-10" cx="344.53" cy="103.66" r="11.53"/><circle class="cls-11" cx="256" cy="295.67" r="57"/><circle class="cls-6" cx="256" cy="295.67" r="16.67"/><circle class="cls-6" cx="283" cy="269.33" r="9.67"/><rect class="cls-11" x="213" y="414" width="86" height="49.17" rx="15"/><path class="cls-6" d="M256,414H236.33l16.21,20.26a4.43,4.43,0,0,0,6.92,0L275.67,414Z"/><path class="cls-2" d="M272,463.17a16,16,0,0,0-32,0Z"/></g></svg>