<svg xmlns="http://www.w3.org/2000/svg" viewBox="0 0 512 512"><defs><style>.cls-1{fill:#f7bb38;}.cls-2{fill:#db1b1b;}.cls-3{fill:#bf1919;}.cls-4{fill:#f6d372;}.cls-5{fill:#3586cb;}.cls-6{fill:#366fca;}.cls-7{fill:#9e4830;}.cls-8{fill:#723222;}.cls-9{fill:#af4e37;}.cls-10{fill:#fff;}.cls-11{fill:#b0d46c;}.cls-12{fill:#27273d;}.cls-13{fill:#41c0e3;}</style></defs><title>50 Monsters Avatar Icons</title><g id="BULINE"><circle class="cls-1" cx="256" cy="256" r="256"/></g><g id="Icons"><path class="cls-2" d="M152.82,127.79S58.58,130.56,34.74,78.68a5.26,5.26,0,0,0-10,1.11c-7.7,39.41-10.36,129,112.68,160.8Z"/><path class="cls-3" d="M152.82,128.88l-15.38,112.8C32.76,214.6,19.06,145.73,22.05,101.52c3,42.68,26.07,96.19,115.39,119.3L150,128.9C151.82,128.92,152.82,128.88,152.82,128.88Z"/><circle class="cls-4" cx="56.4" cy="127.79" r="12.42"/><circle class="cls-4" cx="96.92" cy="149.14" r="8.93"/><circle class="cls-4" cx="68.83" cy="177.44" r="15.68"/><path class="cls-2" d="M360,127.79s94.25,2.77,118.09-49.11a5.26,5.26,0,0,1,10,1.11c7.7,39.41,10.36,129-112.69,160.8Z"/><path class="cls-3" d="M360,128.88l15.38,112.8c104.69-27.08,118.39-96,115.4-140.16-3,42.68-26.08,96.19-115.4,119.3L362.85,128.9C361,128.92,360,128.88,360,128.88Z"/><circle class="cls-4" cx="456.41" cy="127.79" r="12.42"/><circle class="cls-4" cx="415.89" cy="149.14" r="8.93"/><circle class="cls-4" cx="443.99" cy="177.44" r="15.68"/><path class="cls-5" d="M393,202.78q0,6.58-.61,13a136.47,136.47,0,0,1-3.63,20.95c-.1.4-.2.8-.31,1.19A136.8,136.8,0,0,1,361.2,290.6a711.42,711.42,0,0,1,7.29,103,718,718,0,0,1-6.2,95.35,256.57,256.57,0,0,1-213.12-.25,733.53,733.53,0,0,1,1.12-198.1A136.67,136.67,0,0,1,123,237.49c-.11-.4-.22-.8-.32-1.2a137.81,137.81,0,0,1-3.55-20.95q-.57-6.21-.57-12.56a137.28,137.28,0,0,1,106-133.66C214,62,202.58,52.85,200.09,50.36a11.71,11.71,0,0,1,16.56-16.55C219.81,37,233.71,54.4,240.5,66.4c3.13-.35,6.3-.59,9.49-.72-3.55-13.37-6-34.69-6-39.07a11.71,11.71,0,0,1,23.41,0c0,4.38-2.39,25.7-5.94,39.07q6.28.25,12.43,1.07C280.65,54.75,294.8,37,298,33.81a11.7,11.7,0,0,1,16.55,16.55c-2.55,2.56-14.46,12.15-25.27,19.32A137.26,137.26,0,0,1,393,202.78Z"/><path class="cls-4" d="M255.75,319.26h0a14.49,14.49,0,0,1,14.49,14.49v21a0,0,0,0,1,0,0h-29a0,0,0,0,1,0,0v-21A14.49,14.49,0,0,1,255.75,319.26Z"/><path class="cls-4" d="M303.07,324.39h0a14.49,14.49,0,0,1,14.49,14.49v21a0,0,0,0,1,0,0h-29a0,0,0,0,1,0,0v-21a14.49,14.49,0,0,1,14.49-14.49Z" transform="translate(106.89 -70.69) rotate(16.12)"/><path class="cls-4" d="M336.29,339.85h0A11.11,11.11,0,0,1,347.4,351v16.1a0,0,0,0,1,0,0H325.18a0,0,0,0,1,0,0V351a11.11,11.11,0,0,1,11.11-11.11Z" transform="translate(108.79 -78.13) rotate(15.78)"/><path class="cls-4" d="M175.54,338.41h0a12.06,12.06,0,0,1,12.06,12.06V368a0,0,0,0,1,0,0H163.48a0,0,0,0,1,0,0V350.47A12.06,12.06,0,0,1,175.54,338.41Z" transform="translate(-100.88 71.86) rotate(-18.07)"/><path class="cls-4" d="M212.06,311.59h0a18.36,18.36,0,0,1,18.36,18.36v26.6a0,0,0,0,1,0,0H193.7a0,0,0,0,1,0,0v-26.6a18.36,18.36,0,0,1,18.36-18.36Z" transform="translate(-30.12 21.15) rotate(-5.33)"/><path class="cls-6" d="M349.8,403a8.87,8.87,0,0,1-8.87-8.88c0-12.05-33.19-29.57-85.18-29.57s-85.18,17.52-85.18,29.57a8.88,8.88,0,1,1-17.75,0c0-30.73,53-47.32,102.93-47.32s102.92,16.59,102.92,47.32A8.87,8.87,0,0,1,349.8,403Z"/><ellipse class="cls-6" cx="255.75" cy="400.2" rx="58.88" ry="14.89"/><path class="cls-7" d="M306.62,260.42c0,14.75-22.77,44.05-50.87,44.05s-50.88-29.3-50.88-44.05,22.78-26.7,50.88-26.7S306.62,245.68,306.62,260.42Z"/><ellipse class="cls-8" cx="232.43" cy="276.08" rx="8.72" ry="14.49" transform="translate(-127.14 245.22) rotate(-45)"/><ellipse class="cls-8" cx="282.2" cy="276.08" rx="14.49" ry="8.72" transform="translate(-112.56 280.41) rotate(-45)"/><ellipse class="cls-9" cx="255.75" cy="250.58" rx="21.12" ry="9.99"/><circle class="cls-6" cx="202.04" cy="176.32" r="51.49"/><circle class="cls-6" cx="321.77" cy="166.06" r="38.27"/><circle class="cls-10" cx="202.04" cy="190.16" r="45.67"/><circle class="cls-11" cx="201.8" cy="192.69" r="26.63"/><circle class="cls-12" cx="201.8" cy="192.69" r="17.1"/><circle class="cls-10" cx="321.9" cy="190.16" r="24.11"/><circle class="cls-11" cx="321.77" cy="191.5" r="14.06"/><circle class="cls-12" cx="321.77" cy="191.5" r="9.03"/><circle class="cls-13" cx="168.2" cy="247.75" r="8.28"/><circle class="cls-13" cx="191.59" cy="269.1" r="8.28"/><circle class="cls-13" cx="168.2" cy="269.1" r="8.28"/><circle class="cls-13" cx="342.49" cy="247.75" r="8.28"/><circle class="cls-13" cx="319.1" cy="269.1" r="8.28"/><circle class="cls-13" cx="342.49" cy="269.1" r="8.28"/></g></svg>