<svg xmlns="http://www.w3.org/2000/svg" viewBox="0 0 512 512"><defs><style>.cls-1{fill:#3586cb;}.cls-2{fill:#fc4581;}.cls-3{fill:#e03472;}.cls-4{fill:#27273d;}.cls-5{fill:#fff;}.cls-6{fill:#f7bb38;}.cls-7{fill:#f96298;}</style></defs><title>50 Monsters Avatar Icons</title><g id="BULINE"><circle class="cls-1" cx="256" cy="256" r="256"/></g><g id="Icons"><path class="cls-2" d="M454.81,239.16c0,24.85-4.67,114.46-13.18,161.82a10,10,0,0,1-18.6,3.18,478.35,478.35,0,0,0-30.76-47.31c-21.24-28.73-66.8-12.56-65,23.12l5.93,120.19A257.55,257.55,0,0,1,188.33,503l6.3-127.71c1.8-36.38-45.31-52.14-65.81-22-3,4.38-5.88,8.8-8.69,13.22q-.41.63-.78,1.26c-.73,1.14-1.44,2.28-2.15,3.43s-1.37,2.21-2,3.32c-1,1.58-1.93,3.16-2.86,4.73l-1.48,2.5a.75.75,0,0,0-.07.12q-2.37,4-4.61,8c-.85,1.49-1.68,3-2.51,4.44-1.73,3.1-3.41,6.18-5,9.21a11.22,11.22,0,0,1-.79,1.26,9.84,9.84,0,0,1-.92,1.08,10.12,10.12,0,0,1-13,1.05c-.23-.17-.45-.34-.67-.53a5.62,5.62,0,0,1-.63-.58,9.9,9.9,0,0,1-2.67-5.28c-1.32-7.42-2.55-15.86-3.68-24.9-.45-3.62-.89-7.34-1.31-11.12s-.82-7.64-1.22-11.55S72.93,345,72.57,341c-.27-3-.53-6-.78-8.95h0c-.16-2-.33-4-.49-6h0c-.47-6-.91-11.91-1.32-17.73,0-.5-.07-1-.1-1.47-.09-1.45-.19-2.89-.29-4.32h0q-.28-4.31-.54-8.49h0c-.17-2.78-.33-5.52-.48-8.2h0l-.15-2.66q-.18-3.32-.34-6.48c0-.85-.09-1.68-.13-2.51-.1-2.07-.19-4.1-.28-6.06,0-.78-.07-1.56-.11-2.32h0c0-.76-.06-1.52-.09-2.26s-.06-1.5-.09-2.22-.06-1.44-.09-2.14c-.32-8.46-.48-15.36-.48-20a194.39,194.39,0,0,1,6.91-51.5c.14-.54.29-1.07.45-1.61q1.58-5.55,3.47-11c0-.13.09-.26.14-.39a194.78,194.78,0,0,1,11.33-25.94l1.08-2h0q3.17-5.84,6.71-11.41a195.51,195.51,0,0,1,23.23-29.76h0l.24-.24c1.07-1.12,2.16-2.23,3.25-3.33q3.45-3.45,7.08-6.73a191.77,191.77,0,0,1,15.9-12.94c2.52-1.84,5.07-3.61,7.68-5.32q2.93-1.92,5.92-3.75c2-1.22,4-2.4,6.07-3.54q4.09-2.28,8.31-4.38,5.26-2.62,10.71-4.92c1.45-.62,2.91-1.21,4.38-1.79q5.5-2.17,11.17-4a192,192,0,0,1,30.42-7.21c2.4-.37,4.83-.7,7.26-1a195.19,195.19,0,0,1,22.28-1.27l2.85,0c1.9,0,3.79.07,5.67.16A193,193,0,0,1,382.56,88.12q6,4.84,11.63,10.17a195.3,195.3,0,0,1,27.26,32.06q3.74,5.51,7.1,11.28A193,193,0,0,1,443,172.36q2.26,6.16,4.11,12.52A194.06,194.06,0,0,1,454.81,239.16Z"/><path class="cls-3" d="M260.81,45.17a194.36,194.36,0,0,1,22.5,1.3c-96.54,11.14-171.5,93.17-171.5,192.7,0,19.61,2.91,79.57,8.32,127.26-7.91,12.49-15.11,25-21.53,37a10,10,0,0,1-18.71-3c-8.44-47.51-13.08-136.51-13.08-161.25C66.81,132,153.67,45.17,260.81,45.17Z"/><path class="cls-4" d="M111.6,192.33a157.94,157.94,0,0,1-27.86-2.41C53,184.32,32,169.3,23.28,146.47a6.58,6.58,0,0,1,12.29-4.72c17.26,45,88.85,36.86,89.57,36.77a6.58,6.58,0,1,1,1.58,13.06A133.7,133.7,0,0,1,111.6,192.33Z"/><path class="cls-4" d="M140.16,167a6.28,6.28,0,0,1-1.21-.12,147.07,147.07,0,0,1-37.57-13.44C75.63,139.91,61.27,120.72,59.87,98A6.58,6.58,0,0,1,73,97.18c2.71,43.94,67.7,56.67,68.35,56.8a6.58,6.58,0,0,1-1.2,13.05Z"/><path class="cls-4" d="M157.63,150.57a6.55,6.55,0,0,1-4-1.4c-2.15-1.67-52.38-41.59-33.2-84.81a6.58,6.58,0,1,1,12,5.34c-15,33.93,28.83,68.76,29.28,69.1a6.58,6.58,0,0,1-4.06,11.77Z"/><path class="cls-4" d="M183.11,146.22a6.57,6.57,0,0,1-5.84-3.54c-1-2-25.13-49.05,4.18-75.13a6.58,6.58,0,1,1,8.75,9.83c-21.73,19.33-1.47,58.82-1.27,59.21a6.58,6.58,0,0,1-5.82,9.63Z"/><circle class="cls-5" cx="179.71" cy="190.65" r="67.03"/><circle class="cls-6" cx="179.71" cy="194.36" r="39.56"/><circle class="cls-4" cx="179.35" cy="194.36" r="29.64"/><circle class="cls-5" cx="197" cy="173.97" r="9.24"/><circle class="cls-5" cx="179.35" cy="194.36" r="11.15"/><path class="cls-4" d="M400.4,192.33a157.94,157.94,0,0,0,27.86-2.41c30.79-5.6,51.7-20.62,60.46-43.45a6.58,6.58,0,0,0-12.29-4.72c-17.26,45-88.85,36.86-89.57,36.77a6.58,6.58,0,1,0-1.58,13.06A133.7,133.7,0,0,0,400.4,192.33Z"/><path class="cls-4" d="M371.84,167a6.28,6.28,0,0,0,1.21-.12,147.07,147.07,0,0,0,37.57-13.44c25.75-13.56,40.11-32.75,41.51-55.48A6.58,6.58,0,0,0,439,97.18c-2.71,43.94-67.7,56.67-68.35,56.8a6.58,6.58,0,0,0,1.2,13.05Z"/><path class="cls-4" d="M354.37,150.57a6.55,6.55,0,0,0,4-1.4c2.15-1.67,52.38-41.59,33.2-84.81a6.58,6.58,0,0,0-12,5.34c15.05,33.93-28.83,68.76-29.28,69.1a6.58,6.58,0,0,0,4.06,11.77Z"/><path class="cls-4" d="M328.89,146.22a6.57,6.57,0,0,0,5.84-3.54c1-2,25.13-49.05-4.18-75.13a6.58,6.58,0,0,0-8.75,9.83c21.73,19.33,1.47,58.82,1.27,59.21a6.58,6.58,0,0,0,5.82,9.63Z"/><circle class="cls-5" cx="332.29" cy="190.65" r="67.03"/><circle class="cls-6" cx="332.29" cy="194.36" r="39.56"/><circle class="cls-4" cx="332.65" cy="194.36" r="29.64"/><circle class="cls-5" cx="315" cy="173.97" r="9.24"/><circle class="cls-5" cx="332.65" cy="194.36" r="11.15"/><circle class="cls-7" cx="430.25" cy="303.32" r="16.28"/><circle class="cls-7" cx="430.25" cy="269.4" r="11.53"/><path class="cls-4" d="M315,276a59.4,59.4,0,1,1-118.78-1.39c0-.2,0-.39,0-.59a4.59,4.59,0,0,1,8.5-2.22,59.41,59.41,0,0,0,101.73,0A4.59,4.59,0,0,1,315,274C315,274.68,315,275.35,315,276Z"/></g></svg>