<svg xmlns="http://www.w3.org/2000/svg" viewBox="0 0 512 512"><defs><style>.cls-1{fill:#3586cb;}.cls-2{fill:#f7bb38;}.cls-3{fill:#dda12a;}.cls-4{fill:#fff;}.cls-5{fill:#db1b1b;}.cls-6{fill:#27273d;}.cls-7{fill:#e88032;}.cls-8{fill:#f6d372;}</style></defs><title>50 Monsters Avatar Icons</title><g id="BULINE"><circle class="cls-1" cx="256" cy="256" r="256"/></g><g id="Icons"><path class="cls-2" d="M441.38,157.41a60.56,60.56,0,0,1-47.1,59v255a255.72,255.72,0,0,1-297-14.61V213.47a148.29,148.29,0,0,1,7.3-46.07h0q-2.08-1.45-4.08-3-2.49-2-4.83-4.12c-.93-.85-1.85-1.73-2.74-2.63-.6-.6-1.19-1.21-1.77-1.82s-1.37-1.48-2-2.24c-.46-.51-.9-1-1.34-1.56s-1.08-1.3-1.6-2-1-1.34-1.54-2q-1.66-2.24-3.18-4.59c-.37-.57-.74-1.15-1.09-1.74s-.75-1.23-1.1-1.85q-.23-.36-.42-.75c-.36-.6-.69-1.22-1-1.83a85.6,85.6,0,0,1-10.06-40.4c0-.68,0-1.36,0-2,0-.17,0-.35,0-.53s0-.27,0-.41c0-.57,0-1.13.07-1.7.11-2.1.3-4.19.56-6.25a0,0,0,0,0,0,0c.22-1.68.48-3.35.79-5a86.12,86.12,0,0,1,69.16-68.7l2-.34,2-.29h.1l1.64-.2.52-.06,1.09-.11,1.27-.11,1.77-.11c.48,0,1-.06,1.44-.07s.89,0,1.34-.05h0l2.19,0c.57,0,1.14,0,1.72,0s1.13,0,1.7.05l1.13,0c.83,0,1.65.09,2.47.16l1.22.11.41,0c.45,0,.9.09,1.34.15a.71.71,0,0,1,.2,0c.53.06,1.05.12,1.57.2s1.1.15,1.64.24q3.19.49,6.3,1.22l.88.22h0c.29.06.57.13.86.21l1.57.42q1.57.44,3.12.93l1.37.44.26.09c1,.34,2,.7,2.94,1.07L186,17c1,.4,2,.82,3,1.26.48.21,1,.44,1.45.67A83.74,83.74,0,0,1,199,23.6c.38.23.75.47,1.12.71,1.06.67,2.09,1.36,3.11,2.08l.92.66c.85.61,1.68,1.23,2.5,1.87a86.2,86.2,0,0,1,27.3,36.51Q239.8,65,245.78,65A148,148,0,0,1,348.5,106.22a60.53,60.53,0,0,1,92.88,51.19Z"/><path class="cls-3" d="M122.9,110.42c-.08,1.5-.12,3-.12,4.52A86,86,0,0,0,144,171.52a44.44,44.44,0,0,1,10.13,36.39,149.7,149.7,0,0,0-1.88,23.63V490.11a255.72,255.72,0,0,1-55-33.24V213.47a148.29,148.29,0,0,1,7.3-46.07c-1.39-1-2.75-2-4.08-3-1.66-1.31-3.27-2.69-4.83-4.12-.93-.85-1.85-1.73-2.74-2.63-.6-.6-1.19-1.21-1.77-1.82s-1.37-1.48-2-2.24c-.46-.51-.9-1-1.34-1.56s-1.08-1.3-1.6-2-1-1.34-1.54-2q-1.66-2.24-3.18-4.59c-.37-.57-.74-1.15-1.09-1.74s-.75-1.23-1.1-1.85q-.23-.36-.42-.75c-.36-.6-.69-1.22-1-1.83a85.6,85.6,0,0,1-10.06-40.4c0-.68,0-1.36,0-2,0-.17,0-.35,0-.53s0-.27,0-.41c0-.57,0-1.13.07-1.7q.16-3.15.56-6.25a0,0,0,0,0,0,0c.23-1.69.49-3.36.81-5a86.53,86.53,0,0,1,69.14-68.68l2-.34,2-.29h.1l1.64-.2.52-.06,1.09-.11,1.27-.11,1.77-.11c.48,0,1-.06,1.44-.07.2,0,.41,0,.61,0l.73,0h0l2.19,0c.57,0,1.14,0,1.72,0s1.13,0,1.7.05l1.13,0c.83,0,1.65.09,2.47.16l1.22.11.41,0c.45,0,.9.09,1.34.15a.71.71,0,0,1,.2,0c.53.06,1.05.12,1.57.2s1.1.15,1.64.24q3.19.48,6.3,1.22l.88.22h0c.29.06.57.13.86.21l1.57.42q1.57.44,3.12.93l1.37.44.26.09c1,.34,2,.7,2.94,1.07L186,17c1,.4,2,.82,3,1.26.48.21,1,.44,1.45.67A83.74,83.74,0,0,1,199,23.6c.38.23.75.47,1.12.71,1.06.67,2.09,1.36,3.11,2.08l.92.66c.85.61,1.68,1.23,2.5,1.87a86,86,0,0,0-83.73,81.5Z"/><circle class="cls-4" cx="379.86" cy="159.3" r="42.98"/><circle class="cls-5" cx="379.86" cy="161.67" r="25.37"/><circle class="cls-6" cx="379.63" cy="161.67" r="19"/><circle class="cls-4" cx="390.95" cy="148.6" r="5.93"/><circle class="cls-4" cx="379.63" cy="161.67" r="7.15"/><circle class="cls-4" cx="150.69" cy="94.34" r="68.02"/><circle class="cls-5" cx="150.69" cy="98.1" r="40.14"/><circle class="cls-6" cx="150.32" cy="98.1" r="30.08"/><circle class="cls-4" cx="168.23" cy="77.4" r="9.38"/><circle class="cls-4" cx="150.32" cy="98.1" r="11.32"/><polygon class="cls-4" points="138.78 292.8 125.74 229.96 177.78 286.96 138.78 292.8"/><polygon class="cls-4" points="194.78 292.8 207.28 248.29 230.28 292.8 194.78 292.8"/><polygon class="cls-4" points="242.28 292.8 259.78 207.29 278.28 292.8 242.28 292.8"/><polygon class="cls-4" points="308.28 292.8 336.88 224.29 351.74 286.96 308.28 292.8"/><rect class="cls-7" x="125.74" y="286.96" width="240.09" height="28.17" rx="14.08"/><circle class="cls-7" cx="258.12" cy="109.42" r="15.83"/><circle class="cls-7" cx="288.21" cy="142.67" r="9.91"/><circle class="cls-7" cx="242.28" cy="154.52" r="15.69"/><circle class="cls-7" cx="317.62" cy="116.31" r="15.69"/><circle class="cls-7" cx="288.21" cy="187.04" r="8.88"/><circle class="cls-7" cx="251.16" cy="195.92" r="8.88"/><circle class="cls-8" cx="365.83" cy="373.41" r="16.28"/><circle class="cls-8" cx="365.83" cy="339.49" r="11.53"/></g></svg>