<svg xmlns="http://www.w3.org/2000/svg" viewBox="0 0 512 512"><defs><style>.cls-1{fill:#3586cb;}.cls-2{fill:#e88032;}.cls-3{fill:#d16d2a;}.cls-4{fill:#00b564;}.cls-5{fill:#00964e;}.cls-6{fill:#02a356;}.cls-7{fill:#ef9659;}.cls-8{fill:#fab3a7;}.cls-9{fill:#fff;}.cls-10{fill:#27273d;}.cls-11{fill:#4acc97;}</style></defs><title>50 Monsters Avatar Icons</title><g id="BULINE"><circle class="cls-1" cx="256" cy="256" r="256"/></g><g id="Icons"><path class="cls-2" d="M436.27,211.56c13.65-18.79,11.56-56.34,11.56-56.34s-39.57-31.56-63.16-21.06c8.71-23.2-17.51-61.73-17.51-61.73S315.31,65.59,301.48,88a47.73,47.73,0,0,0,61,68.19,47.73,47.73,0,0,0,37,68.25,47.73,47.73,0,0,0,47.12,78.82c25.46-6.83,33.73-58.47,33.73-58.47S458.24,217.71,436.27,211.56Z"/><path class="cls-2" d="M210.52,88c-13.83-22.45-65.68-15.61-65.68-15.61S118.62,111,127.33,134.16c-23.59-10.5-63.16,21.06-63.16,21.06s-2.09,37.55,11.56,56.34c-22,6.15-44,33.27-44,33.27S40,296.47,65.42,303.3a47.73,47.73,0,0,0,47.12-78.82,47.73,47.73,0,0,0,37-68.25,47.73,47.73,0,0,0,61-68.19Z"/><path class="cls-3" d="M217.61,108.31A158.83,158.83,0,0,0,96.52,255.41L94.41,302A47.08,47.08,0,0,1,73,304.66l2.23-49.25a158.79,158.79,0,0,1,141.93-150.7C217.33,105.91,217.5,107.11,217.61,108.31Z"/><circle class="cls-4" cx="103.65" cy="214.23" r="46.81"/><circle class="cls-5" cx="103.07" cy="212.1" r="22.5"/><circle class="cls-4" cx="406.55" cy="214.23" r="46.81"/><circle class="cls-5" cx="405.97" cy="212.1" r="22.5"/><path class="cls-4" d="M420.22,452.44A255.82,255.82,0,0,1,87.77,449l-.27-.24,6.67-146.66V302l1.89-41.62.23-5a161,161,0,0,1,2.39-21.25,158.52,158.52,0,0,1,4.3-17.79l.33-1.09A159,159,0,0,1,201.5,113.06h0c4.7-1.67,9.5-3.14,14.39-4.37l1.48-.37.22,0a159.26,159.26,0,0,1,37.29-4.41q4.37,0,8.68.24h.23a157.76,157.76,0,0,1,30.78,4.76c1.19.3,2.37.62,3.54,1q5.14,1.45,10.16,3.24A158.64,158.64,0,0,1,413.57,257.2l.11,3.3,1.38,40.43Z"/><path class="cls-6" d="M269.84,103.43c-2,.18-4,.41-6,.67l-.23,0a157.16,157.16,0,0,0-43,12q-1.6.69-3.18,1.44-4.51,2.1-8.88,4.49h0a159,159,0,0,0-28.89,20.22,160.85,160.85,0,0,0-17.35,17.86c-1,1.18-1.95,2.39-2.9,3.6q-2.82,3.6-5.43,7.36a156.78,156.78,0,0,0-8.35,13.43c-.84,1.5-1.64,3-2.42,4.54a156.63,156.63,0,0,0-11.28,28.49,158.67,158.67,0,0,0-6,36.73l-.05,1.14-.5,11-9.27,204A256.71,256.71,0,0,1,87.77,449l6.69-147.09,1.88-41.46.28-6.14c.09-2,.22-4,.38-5.93h0q.59-7.2,1.81-14.21A159.2,159.2,0,0,1,103,216.36l.33-1.09a158.94,158.94,0,0,1,97.7-103q7.06-2.56,14.43-4.47c.61-.16,1.22-.32,1.83-.46a1,1,0,0,1,.23-.06,158.63,158.63,0,0,1,37.73-4.52q4.14,0,8.22.21C265.59,103.08,267.72,103.24,269.84,103.43Z"/><path class="cls-2" d="M191.56,79a63.33,63.33,0,0,0,126.66,0c0-35-63.33-63.33-63.33-63.33S191.56,44,191.56,79Z"/><path class="cls-3" d="M263.37,141.75a64.13,64.13,0,0,1-8.48.57A63.34,63.34,0,0,1,191.56,79c0-35,63.33-63.33,63.33-63.33s3.33,1.49,8.48,4.22C246.12,29,208.52,52,208.52,79A63.34,63.34,0,0,0,263.37,141.75Z"/><circle class="cls-7" cx="281.76" cy="101.38" r="18.4"/><circle class="cls-7" cx="281.76" cy="63.05" r="13.03"/><ellipse class="cls-8" cx="157.06" cy="325.57" rx="29.41" ry="20.63"/><circle class="cls-9" cx="176.77" cy="235.75" r="59.93"/><circle class="cls-2" cx="176.77" cy="239.07" r="35.37"/><circle class="cls-10" cx="176.45" cy="239.07" r="26.49"/><circle class="cls-9" cx="192.22" cy="220.83" r="8.26"/><circle class="cls-9" cx="176.45" cy="239.07" r="9.97"/><rect class="cls-11" x="157.06" y="142.32" width="69" height="27.65" rx="13.82"/><ellipse class="cls-8" cx="352.72" cy="325.57" rx="29.41" ry="20.63"/><circle class="cls-9" cx="333.02" cy="235.75" r="59.93"/><circle class="cls-2" cx="333.02" cy="239.07" r="35.37"/><circle class="cls-10" cx="332.69" cy="239.07" r="26.49"/><circle class="cls-9" cx="348.47" cy="220.83" r="8.26"/><circle class="cls-9" cx="332.69" cy="239.07" r="9.97"/><rect class="cls-11" x="283.72" y="142.32" width="69" height="27.65" rx="13.82"/><path class="cls-5" d="M252.93,339a54.31,54.31,0,0,1-38.52-15.93,8.48,8.48,0,0,1,12-12,37.55,37.55,0,0,0,53.07,0,8.48,8.48,0,1,1,12,12A54.35,54.35,0,0,1,252.93,339Z"/><path class="cls-5" d="M266.44,371a8.49,8.49,0,0,1-6-2.48,10.62,10.62,0,0,0-15,0,8.48,8.48,0,0,1-12-12,27.6,27.6,0,0,1,39,0,8.48,8.48,0,0,1-6,14.47Z"/><path class="cls-11" d="M256,512.05a255.38,255.38,0,0,1-88.81-15.83c6.53-60.52,42.44-106.8,85.74-106.8,43.82,0,80,47.36,85.95,108.91A255.36,255.36,0,0,1,256,512.05Z"/><circle class="cls-11" cx="392.94" cy="405.9" r="18.4"/><circle class="cls-11" cx="392.94" cy="367.57" r="13.03"/></g></svg>