<svg xmlns="http://www.w3.org/2000/svg" viewBox="0 0 512 512"><defs><style>.cls-1{fill:#f55b4b;}.cls-2{fill:#3586cb;}.cls-3{fill:#366fca;}.cls-4{fill:#41c0e3;}.cls-5{fill:#3eb3ce;}.cls-6{fill:#fff;}.cls-7{fill:#27273d;}.cls-8{fill:#fcc8bc;}.cls-9{fill:#db1b1b;}</style></defs><title>50 Monsters Avatar Icons</title><g id="BULINE"><circle class="cls-1" cx="256" cy="256" r="256"/></g><g id="Icons"><path class="cls-2" d="M159,66.64A57.49,57.49,0,0,1,57.56,120.71C42.66,92.73,81.3,43,81.3,43S144.12,38.66,159,66.64Z"/><path class="cls-3" d="M127.12,77.83A25.72,25.72,0,0,1,81.72,102C75.05,89.5,92.34,67.25,92.34,67.25S120.45,65.31,127.12,77.83Z"/><path class="cls-2" d="M354.22,66.64a57.48,57.48,0,0,0,101.46,54.07c14.91-28-23.74-77.7-23.74-77.7S369.12,38.66,354.22,66.64Z"/><path class="cls-3" d="M386.12,77.83A25.72,25.72,0,0,0,431.52,102c6.67-12.52-10.62-34.77-10.62-34.77S392.79,65.31,386.12,77.83Z"/><path class="cls-4" d="M488.48,235.75a108.46,108.46,0,0,1-12.41,50.52L315.44,505.06a258.25,258.25,0,0,1-90.9,5,252.11,252.11,0,0,1-28.76-5.21c-.37-.08-.74-.17-1.1-.27L37.06,290.84a109,109,0,0,1,94.06-164.09h.54a109.58,109.58,0,0,1,15.47,1.16v-.12c0-.35,0-.7,0-1a109,109,0,0,1,109-109h.46a108.94,108.94,0,0,1,108.54,109c0,.31,0,.63,0,.94a109.76,109.76,0,0,1,14.37-.94,109,109,0,0,1,109,109Z"/><path class="cls-5" d="M304,28.39l-1.24-.16A106.17,106.17,0,0,0,289,27.35a109,109,0,0,0-109,109c0,.39,0,.78,0,1.18q-2.68-.39-5.4-.66c-3.49-.34-7-.52-10.61-.52-2.38,0-4.75.08-7.09.24a106.57,106.57,0,0,0-12.21,1.46h0A109,109,0,0,0,70,300.44l1.23,1.67v0l.77,1L224.54,510.08a252.11,252.11,0,0,1-28.76-5.21L38,290.84a109,109,0,0,1,93.7-164.08H132a109,109,0,0,1,15.1,1c.31,0,.61.08.91.12,0-.39,0-.78,0-1.17a109,109,0,0,1,108.55-109H257A108.47,108.47,0,0,1,304,28.39Z"/><circle class="cls-5" cx="254.82" cy="131.66" r="98" transform="translate(-18.47 218.75) rotate(-45)"/><circle class="cls-6" cx="255.3" cy="131.67" r="80.83"/><circle class="cls-2" cx="255.3" cy="136.14" r="47.71"/><circle class="cls-7" cx="254.86" cy="136.14" r="35.74"/><circle class="cls-6" cx="276.14" cy="111.54" r="11.15"/><circle class="cls-6" cx="254.86" cy="136.14" r="13.45"/><path class="cls-6" d="M223.12,352.5l26.41,70a5.62,5.62,0,0,0,10.52,0l26.07-70Z"/><path class="cls-6" d="M293.18,350.39l50.59,55.1a5.61,5.61,0,0,0,9.75-3.94l-1.87-74.64Z"/><path class="cls-6" d="M217.15,350.39l-50.58,55.1a5.61,5.61,0,0,1-9.75-3.94l1.87-74.64Z"/><path class="cls-6" d="M158.35,324.67,111.82,348a3.91,3.91,0,0,1-5.37-5l19.71-48.06Z"/><path class="cls-6" d="M126.59,295.08l-51.23,9.1a3.9,3.9,0,0,1-3.73-6.29l32.55-40.48Z"/><path class="cls-6" d="M353.52,324.67,400.06,348a3.91,3.91,0,0,0,5.36-5l-19.7-48.06Z"/><path class="cls-6" d="M385.28,295.08l51.24,9.1a3.91,3.91,0,0,0,3.73-6.29l-32.56-40.48Z"/><path class="cls-2" d="M255.3,361.63c-96.18,0-174.43-78.25-174.43-174.43a7.5,7.5,0,0,1,15,0c0,87.91,71.52,159.43,159.43,159.43S414.73,275.11,414.73,187.2a7.5,7.5,0,0,1,15,0C429.73,283.38,351.48,361.63,255.3,361.63Z"/><circle class="cls-8" cx="172.49" cy="226.1" r="8.96"/><circle class="cls-8" cx="159.05" cy="280.56" r="8.96"/><circle class="cls-8" cx="145.39" cy="248.77" r="13.67"/><circle class="cls-8" cx="186.16" cy="257.77" r="13.67"/><circle class="cls-8" cx="340.75" cy="226.1" r="8.96"/><circle class="cls-8" cx="354.19" cy="280.56" r="8.96"/><circle class="cls-8" cx="367.86" cy="248.77" r="13.67"/><circle class="cls-8" cx="327.08" cy="257.77" r="13.67"/><path class="cls-9" d="M217.15,227.6c0,21.07,17.08,68.23,38.15,68.23s38.14-47.16,38.14-68.23a38.15,38.15,0,0,0-76.29,0Z"/></g></svg>