<svg xmlns="http://www.w3.org/2000/svg" viewBox="0 0 512 512"><defs><style>.cls-1{fill:#934cf5;}.cls-2{fill:#f6d372;}.cls-3{fill:#cd88f8;}.cls-4{fill:#b779e2;}.cls-5{fill:#f7bb38;}.cls-6{fill:#fff;}.cls-7{fill:#3586cb;}.cls-8{fill:#27273d;}.cls-9{fill:#db1b1b;}.cls-10{fill:#fc715a;}.cls-11{fill:#d29bf9;}</style></defs><title>50 Monsters Avatar Icons</title><g id="BULINE"><circle class="cls-1" cx="256" cy="256" r="256"/></g><g id="Icons"><path class="cls-2" d="M221.56,53.18c0,18.2,14.75,139.89,32.95,139.89S287.45,71.38,287.45,53.18a32.95,32.95,0,1,0-65.89,0Z"/><path class="cls-2" d="M449.79,90.89c-12.87,12.86-88.49,109.34-75.62,122.21s109.34-62.75,122.21-75.62a32.94,32.94,0,1,0-46.59-46.59Z"/><path class="cls-2" d="M60.94,90.89c12.87,12.86,88.49,109.34,75.62,122.21S27.22,150.35,14.35,137.48A32.94,32.94,0,0,1,60.94,90.89Z"/><path class="cls-2" d="M339.77,46.69c-5.07,17.47-24.83,138.45-7.36,143.53S398,82.54,403.05,65.06a32.95,32.95,0,0,0-63.28-18.37Z"/><path class="cls-2" d="M167.16,46.69c5.07,17.47,24.84,138.45,7.36,143.53S109,82.54,103.88,65.06a32.95,32.95,0,0,1,63.28-18.37Z"/><path class="cls-3" d="M426.51,229.23V447a255.7,255.7,0,0,1-337.13,3.4l-.87-.75V229.23A54.19,54.19,0,0,1,142.76,175h229.5A54,54,0,0,1,386,176.75l.19.05a54.21,54.21,0,0,1,30,20.6.36.36,0,0,1,.07.1A54,54,0,0,1,426.51,229.23Z"/><path class="cls-4" d="M183.63,175c-.9,0-1.79,0-2.68.07a53.84,53.84,0,0,0-20.52,5.13,54.47,54.47,0,0,0-23.65,21.69,53.94,53.94,0,0,0-7.4,27.36V478.54a255.43,255.43,0,0,1-40-28.19V229.23A54.21,54.21,0,0,1,143.63,175Z"/><path class="cls-5" d="M275.57,140.4c-2.63,13.06-5.62,25.23-8.87,34.58H241.86c-3.25-9.35-6.24-21.52-8.87-34.58Z"/><path class="cls-5" d="M447.31,176.26C437,183.75,426.12,191.2,416,197.5a54.31,54.31,0,0,0-30-20.7c6.31-10.6,14.22-22.33,22.32-33.67A64.19,64.19,0,0,1,447.31,176.26Z"/><path class="cls-5" d="M124.93,177.9a54.38,54.38,0,0,0-27.68,21.45c-11.33-6.91-23.77-15.45-35.55-24a64.18,64.18,0,0,1,40-32.63C110.14,154.58,118.43,166.89,124.93,177.9Z"/><path class="cls-5" d="M370,140.4c-6.69,13.14-13.6,25.46-19.91,34.58H325.75c-1-9-.76-21.22.16-34.58Z"/><path class="cls-5" d="M180.73,175H156.41c-6.31-9.12-13.22-21.44-19.91-34.58h44.07C181.5,153.76,181.71,166,180.73,175Z"/><circle class="cls-6" cx="201.92" cy="302.73" r="42.98"/><circle class="cls-7" cx="201.92" cy="305.11" r="25.37"/><circle class="cls-8" cx="201.69" cy="305.11" r="19"/><circle class="cls-6" cx="213" cy="292.03" r="5.93"/><circle class="cls-6" cx="201.69" cy="305.11" r="7.15"/><circle class="cls-6" cx="310.79" cy="302.73" r="42.98"/><circle class="cls-7" cx="310.79" cy="305.11" r="25.37"/><circle class="cls-8" cx="310.56" cy="305.11" r="19"/><circle class="cls-6" cx="321.87" cy="292.03" r="5.93"/><circle class="cls-6" cx="310.56" cy="305.11" r="7.15"/><path class="cls-8" d="M343.64,440.25a54.49,54.49,0,0,1-59.06,24.21,115.22,115.22,0,0,0-54.14,0,54.43,54.43,0,0,1-67.19-55.13,53.73,53.73,0,0,1,4.29-19,54.4,54.4,0,0,1,63.08-31.61,112.91,112.91,0,0,0,53.77,0,54.41,54.41,0,0,1,63.06,31.55h0a53.54,53.54,0,0,1,4.32,19.05A54.19,54.19,0,0,1,343.64,440.25Z"/><path class="cls-9" d="M343.64,440.25a54.49,54.49,0,0,1-59.06,24.21,115.22,115.22,0,0,0-54.14,0,54.49,54.49,0,0,1-59.06-24.21c21.23-10,52-16.27,86.13-16.27S322.41,430.26,343.64,440.25Z"/><circle class="cls-10" cx="138.03" cy="369.57" r="27.52"/><circle class="cls-10" cx="375.08" cy="369.57" r="27.52"/><path class="cls-6" d="M347.45,390.27h0c-4.5,5.24-15.19,16.45-15.19,16.45l-8.49-22.33-15.91,14-15.43-19.67-16,22-9-18.66-9.92,17.86v.14l0-.07,0,.07v-.14l-9.92-17.86-9,18.66-16-22L207.08,398.4l-15.9-14-8.49,22.33s-10.63-11.15-15.15-16.4a54.4,54.4,0,0,1,63.08-31.61,112.91,112.91,0,0,0,53.77,0,54.41,54.41,0,0,1,63.06,31.55Z"/><circle class="cls-11" cx="395.63" cy="232.85" r="16.28"/><circle class="cls-11" cx="371.65" cy="208.87" r="11.53"/></g></svg>