<svg xmlns="http://www.w3.org/2000/svg" viewBox="0 0 512 512"><defs><style>.cls-1{fill:#fc4581;}.cls-2{fill:#f6c752;}.cls-3{fill:#f7bb38;}.cls-4{fill:#fff;}.cls-5{fill:#d8b252;}.cls-6{fill:#3586cb;}.cls-7{fill:#27273d;}.cls-8{fill:#f58d89;}.cls-9{fill:#f6d372;}</style></defs><title>50 Monsters Avatar Icons</title><g id="BULINE"><circle class="cls-1" cx="256" cy="256" r="256"/></g><g id="Icons"><path class="cls-2" d="M442.51,231.13a97.57,97.57,0,0,0-95.25-118.45c-1,0-2,0-2.93,0,.06-1.38.1-2.77.1-4.16a85.7,85.7,0,1,0-171.4,0c0,1.42,0,2.84.1,4.25-1.7-.09-3.41-.13-5.13-.13A97.58,97.58,0,0,0,72.31,229a105.11,105.11,0,0,0,73.53,190.47,126.59,126.59,0,0,0,227.72-3.27,101.65,101.65,0,0,0,68.95-185.09Z"/><path class="cls-3" d="M287,486a126.76,126.76,0,0,1-141.12-66.54A105.09,105.09,0,0,1,72.31,229,97.53,97.53,0,0,1,168,112.68c1.73,0,3.44,0,5.14.13-.07-1.41-.11-2.83-.11-4.25a85.8,85.8,0,0,1,100.9-84.37,85.76,85.76,0,0,0-60.24,81.87c0,1.42,0,2.84.11,4.25-1.7-.09-3.42-.13-5.14-.13A97.53,97.53,0,0,0,113,226.52a105.08,105.08,0,0,0,60,191.33h.6A22.94,22.94,0,0,1,193,428.42,126.49,126.49,0,0,0,287,486Z"/><path class="cls-4" d="M158.08,328.83l12.51,47.68a7.23,7.23,0,0,0,12.47,2.87l20.36-23.71Z"/><path class="cls-4" d="M374.75,328.83l-12.51,47.68a7.22,7.22,0,0,1-12.46,2.87l-20.36-23.71Z"/><path class="cls-5" d="M266.7,372.44a164,164,0,0,1-116.32-48.1A7.5,7.5,0,1,1,161,313.73c58.29,58.29,153.13,58.29,211.42,0A7.5,7.5,0,1,1,383,324.34,164,164,0,0,1,266.7,372.44Z"/><path class="cls-3" d="M303.49,391.5a36.79,36.79,0,0,1-73.57.14v-.35a2.53,2.53,0,0,1,4.72-1.25,36.79,36.79,0,0,0,64.12,0,2.54,2.54,0,0,1,4.73,1.24Z"/><circle class="cls-4" cx="201.7" cy="240.62" r="65"/><circle class="cls-6" cx="201.7" cy="244.21" r="38.36"/><circle class="cls-7" cx="201.35" cy="244.21" r="28.74"/><circle class="cls-4" cx="218.46" cy="224.44" r="8.96"/><circle class="cls-4" cx="201.35" cy="244.21" r="10.81"/><circle class="cls-4" cx="333.84" cy="173.83" r="43.17"/><circle class="cls-6" cx="333.84" cy="176.22" r="25.48"/><circle class="cls-7" cx="333.61" cy="176.22" r="19.09"/><circle class="cls-4" cx="344.97" cy="163.09" r="5.95"/><circle class="cls-4" cx="333.61" cy="176.22" r="7.18"/><circle class="cls-4" cx="326.43" cy="272.87" r="28.76"/><circle class="cls-6" cx="326.43" cy="274.46" r="16.97"/><circle class="cls-7" cx="326.28" cy="274.46" r="12.71"/><circle class="cls-4" cx="333.84" cy="265.71" r="3.96"/><circle class="cls-4" cx="326.28" cy="274.46" r="4.78"/><circle class="cls-4" cx="240.92" cy="138.83" r="28.76"/><circle class="cls-6" cx="240.92" cy="140.42" r="16.97"/><circle class="cls-7" cx="240.77" cy="140.42" r="12.71"/><circle class="cls-4" cx="248.33" cy="131.68" r="3.96"/><circle class="cls-4" cx="240.77" cy="140.42" r="4.78"/><circle class="cls-8" cx="397.9" cy="289.79" r="22.2"/><circle class="cls-8" cx="116.47" cy="289.79" r="22.2"/><circle class="cls-9" cx="276.9" cy="311.99" r="18"/><circle class="cls-9" cx="366" cy="236.83" r="10.81"/><circle class="cls-9" cx="286.95" cy="230.83" r="10.81"/><circle class="cls-9" cx="172.61" cy="157.4" r="10.81"/><circle class="cls-9" cx="276.9" cy="69.83" r="10.81"/><circle class="cls-9" cx="300.42" cy="110.08" r="16.33"/><circle class="cls-9" cx="223.95" cy="328.83" r="10.33"/></g></svg>