<svg xmlns="http://www.w3.org/2000/svg" viewBox="0 0 512 512"><defs><style>.cls-1{fill:#934cf5;}.cls-2{fill:#fc4581;}.cls-3{fill:#fc689d;}.cls-4{fill:#f7bb38;}.cls-5{fill:#e0a52f;}.cls-6{fill:#f58d89;}.cls-7{fill:#e07e7e;}.cls-8{fill:#fff;}.cls-9{fill:#3586cb;}.cls-10{fill:#27273d;}.cls-11{fill:#dd7a7a;}.cls-12{fill:#fab3a7;}.cls-13{fill:#f6d372;}</style></defs><title>50 Monsters Avatar Icons</title><g id="BULINE"><circle class="cls-1" cx="256" cy="256" r="256"/></g><g id="Icons"><path class="cls-2" d="M203.29,104.14s-.75-27.54-37.36-36.81a6.07,6.07,0,0,1-1.47-11.19c9.12-5.09,22.58-9.45,37.44-3.78A20.42,20.42,0,0,0,225,46.42c10.47-12.63,30.06-28.23,60.28-21.88A6.07,6.07,0,0,1,289.08,34a41.77,41.77,0,0,0-3.67,6.16c-7.32,15.31,7,31.94,23.48,27.7,8.72-2.24,19.47-3,29.43,1.74A6.07,6.07,0,0,1,336.63,81c-12.05,2-27.69,7.87-31.4,25.17Z"/><path class="cls-3" d="M223.54,104.57s-.46-16.84-22.84-22.51a3.71,3.71,0,0,1-.9-6.84c5.58-3.11,13.8-5.78,22.89-2.31a12.48,12.48,0,0,0,14.15-3.63c6.39-7.72,18.37-17.26,36.85-13.38a3.72,3.72,0,0,1,2.3,5.77,24.59,24.59,0,0,0-2.25,3.76c-4.47,9.36,4.31,19.53,14.36,16.94,5.33-1.37,11.9-1.85,18,1.06a3.71,3.71,0,0,1-1,7c-7.37,1.19-16.93,4.81-19.2,15.38Z"/><path class="cls-4" d="M129.53,118.39a43.22,43.22,0,0,0-20.63,5.2,33.88,33.88,0,0,0-13.31-23.9A28.1,28.1,0,0,0,100,67.3a19.79,19.79,0,0,0,14.69-19.11,20.14,20.14,0,0,0-.15-2.34h.15A16.45,16.45,0,1,0,98.3,28.71,19.77,19.77,0,0,0,75.57,52.29h-.43A28.11,28.11,0,0,0,54.69,99.69,33.9,33.9,0,0,0,86.17,158.8c-.07,1-.12,2-.12,3.07a43.49,43.49,0,1,0,43.48-43.48Z"/><path class="cls-5" d="M156.57,195.92a43.47,43.47,0,0,1-70.52-34c0-1,0-2.05.12-3.07A33.91,33.91,0,0,1,54.69,99.69,28.11,28.11,0,0,1,67.8,53.26a28.08,28.08,0,0,0-1.11,39.68,33.91,33.91,0,0,0,31.48,59.11c-.07,1-.12,2-.12,3.07a43.49,43.49,0,0,0,58.52,40.8Z"/><path class="cls-4" d="M382.16,118.39a43.26,43.26,0,0,1,20.64,5.2,33.88,33.88,0,0,1,13.31-23.9,28.1,28.1,0,0,1-4.43-32.39A19.78,19.78,0,0,1,397,48.19a20.14,20.14,0,0,1,.15-2.34H397A16.45,16.45,0,1,1,413.4,28.71a19.77,19.77,0,0,1,22.73,23.58h.43A28.11,28.11,0,0,1,457,99.69a33.9,33.9,0,0,1-31.48,59.11c.07,1,.12,2,.12,3.07a43.49,43.49,0,1,1-43.49-43.48Z"/><path class="cls-5" d="M355.13,195.92a43.47,43.47,0,0,0,70.52-34c0-1,0-2.05-.12-3.07A33.91,33.91,0,0,0,457,99.69,28.11,28.11,0,0,0,443.9,53.26,28.08,28.08,0,0,1,445,92.94a33.91,33.91,0,0,1-31.48,59.11c.07,1,.12,2,.12,3.07a43.49,43.49,0,0,1-58.52,40.8Z"/><path class="cls-6" d="M395.05,235.66V471a255.65,255.65,0,0,1-285-4.64l-1-.7v-230a143.27,143.27,0,0,1,4-33.56c.94-3.92,2-7.77,3.3-11.56a143.36,143.36,0,0,1,86.63-89.22,140.37,140.37,0,0,1,17.92-5.25,143.09,143.09,0,0,1,30.06-3.4h1.13q6.81,0,13.46.63A141.39,141.39,0,0,1,306,103.2,143,143,0,0,1,350.57,132c.87.83,1.74,1.68,2.59,2.53A142.91,142.91,0,0,1,389,194.33q1.5,4.92,2.63,10A143.72,143.72,0,0,1,395.05,235.66Z"/><path class="cls-7" d="M266.05,93.24l-.54.05a142.15,142.15,0,0,0-42,10.56c-.51.22-1,.43-1.52.66a143.3,143.3,0,0,0-81.06,94.08q-.75,2.79-1.38,5.62a143.5,143.5,0,0,0-3.47,31.44V482.21a254.5,254.5,0,0,1-26-15.87V235.65a143.42,143.42,0,0,1,3.87-33.18q1.38-5.78,3.2-11.37A143.4,143.4,0,0,1,203,101.66a141.15,141.15,0,0,1,18-5.4,143.43,143.43,0,0,1,29.95-3.59h2.13Q259.62,92.65,266.05,93.24Z"/><circle class="cls-8" cx="252.05" cy="209.07" r="96.16"/><circle class="cls-9" cx="252.05" cy="214.39" r="56.75"/><circle class="cls-10" cx="251.53" cy="214.39" r="42.51"/><circle class="cls-8" cx="276.84" cy="185.14" r="13.26"/><circle class="cls-8" cx="251.53" cy="214.39" r="16"/><rect class="cls-11" x="134.66" y="318.32" width="237" height="18.83" rx="9.42"/><circle class="cls-12" cx="371.66" cy="271.49" r="16.28"/><circle class="cls-12" cx="371.66" cy="237.58" r="11.53"/><path class="cls-13" d="M348.21,462.17v32.71a256.9,256.9,0,0,1-186.86-.95V462.17a93.43,93.43,0,1,1,186.86,0Z"/><path class="cls-8" d="M177,337.16h43a0,0,0,0,1,0,0v61.08a21.5,21.5,0,0,1-21.5,21.5h0a21.5,21.5,0,0,1-21.5-21.5V337.16A0,0,0,0,1,177,337.16Z"/><path class="cls-8" d="M282.84,337.16h43a0,0,0,0,1,0,0v25.75a21.5,21.5,0,0,1-21.5,21.5h0a21.5,21.5,0,0,1-21.5-21.5V337.16A0,0,0,0,1,282.84,337.16Z"/></g></svg>