<svg xmlns="http://www.w3.org/2000/svg" viewBox="0 0 512 512"><defs><style>.cls-1{fill:#7cc8fb;}.cls-2{fill:#b5622a;}.cls-3{fill:#e88032;}.cls-4{fill:#ce6f2e;}.cls-5{fill:#fff;}.cls-6{fill:#3586cb;}.cls-7{fill:#27273d;}.cls-8{fill:#db1b1b;}.cls-9{fill:#f29555;}</style></defs><title>50 Monsters Avatar Icons</title><g id="BULINE"><circle class="cls-1" cx="256" cy="256" r="256"/></g><g id="Icons"><path class="cls-2" d="M315,428.08v77.08a258.09,258.09,0,0,1-113.71,1V428.08Z"/><path class="cls-3" d="M478,203.85c-7.49,0-13.8,12.93-15.69,30.5H425.46a175.7,175.7,0,0,0-54.61-96.76l23-23c13.77,11.09,27.37,15.77,32.67,10.47,6.35-6.36-1.63-24.65-17.84-40.86S374.17,60,367.82,66.38c-5.3,5.3-.63,18.89,10.46,32.66l-24.73,24.74a175.08,175.08,0,0,0-89.86-31.41v-36c17.58-1.89,30.5-8.2,30.5-15.7,0-9-18.58-16.28-41.5-16.28s-41.5,7.29-41.5,16.28c0,7.5,12.92,13.81,30.5,15.7v36a175.05,175.05,0,0,0-92.52,33.32L122.52,99c11.1-13.77,15.77-27.36,10.47-32.66C126.63,60,108.34,68,92.14,84.21s-24.2,34.5-17.84,40.86c5.3,5.3,18.9.62,32.67-10.47l25.19,25.19a175.65,175.65,0,0,0-52.24,94.56H51.1c-1.89-17.57-8.2-30.5-15.69-30.5-9,0-16.28,18.58-16.28,41.5s7.29,41.5,16.28,41.5c7.49,0,13.8-12.92,15.69-30.5h26q-.39,5.79-.4,11.67a176,176,0,0,0,352,0c0-3.92-.14-7.81-.39-11.67h34c1.89,17.58,8.2,30.5,15.69,30.5,9,0,16.28-18.58,16.28-41.5S487,203.85,478,203.85Z"/><path class="cls-4" d="M293.83,439.18A176.13,176.13,0,0,1,76.69,268q0-5.88.4-11.67h-26c-1.9,17.58-8.2,30.5-15.7,30.5-9,0-16.28-18.58-16.28-41.5s7.29-41.5,16.28-41.5c7.5,0,13.8,12.92,15.7,30.5H79.92a175.65,175.65,0,0,1,52.24-94.56L107,114.6C93.2,125.69,79.6,130.37,74.3,125.06c-6.35-6.35,1.63-24.64,17.84-40.85S126.64,60,133,66.37c5.3,5.31.63,18.9-10.47,32.67l25.1,25.1A267.08,267.08,0,0,0,135,205.62C135,316.87,202.22,410.62,293.83,439.18Z"/><circle class="cls-5" cx="139.96" cy="207.34" r="30.77"/><circle class="cls-6" cx="139.96" cy="209.04" r="18.16"/><circle class="cls-7" cx="139.79" cy="209.04" r="13.6"/><circle class="cls-5" cx="147.89" cy="199.68" r="4.24"/><circle class="cls-5" cx="139.79" cy="209.04" r="5.12"/><circle class="cls-5" cx="256.69" cy="151.69" r="30.77"/><circle class="cls-6" cx="256.69" cy="153.39" r="18.16"/><circle class="cls-7" cx="256.53" cy="153.39" r="13.6"/><circle class="cls-5" cx="264.62" cy="144.03" r="4.24"/><circle class="cls-5" cx="256.53" cy="153.39" r="5.12"/><circle class="cls-5" cx="368.45" cy="209.04" r="30.77"/><circle class="cls-6" cx="368.45" cy="210.74" r="18.16"/><circle class="cls-7" cx="368.29" cy="210.74" r="13.6"/><circle class="cls-5" cx="376.39" cy="201.38" r="4.24"/><circle class="cls-5" cx="368.29" cy="210.74" r="5.12"/><circle class="cls-5" cx="256.69" cy="263.6" r="55.42"/><circle class="cls-6" cx="256.69" cy="266.67" r="32.71"/><circle class="cls-7" cx="256.39" cy="266.67" r="24.5"/><circle class="cls-5" cx="270.98" cy="249.81" r="7.64"/><circle class="cls-5" cx="256.39" cy="266.67" r="9.22"/><path class="cls-7" d="M382.22,291.8A125.39,125.39,0,0,1,198.4,402.89c-40.13-21.21-67.51-63.53-67.24-111.82,0-.38,0-.76,0-1.14a4.9,4.9,0,0,1,9.43-1.77,125.58,125.58,0,0,0,232.17,0,4.91,4.91,0,0,1,9.44,1.81C382.22,290.58,382.22,291.19,382.22,291.8Z"/><path class="cls-8" d="M315,403a125.32,125.32,0,0,1-116.58-.13A125.32,125.32,0,0,1,315,403Z"/><circle class="cls-9" cx="349.21" cy="148.43" r="16.28"/><circle class="cls-9" cx="323.15" cy="126.72" r="11.53"/><path class="cls-5" d="M276.69,364.24v2.11a16.84,16.84,0,0,1-16.83,16.84h-8.67a16.83,16.83,0,0,1-16.83-16.84v-2.5a126.75,126.75,0,0,0,42.33.39Z"/></g></svg>