<svg xmlns="http://www.w3.org/2000/svg" viewBox="0 0 512 512"><defs><style>.cls-1{fill:#27273d;}.cls-2{fill:#9ebc5b;}.cls-3{fill:#90a84f;}.cls-4{fill:#b0d46c;}.cls-5{fill:#9fbc61;}.cls-6{fill:#fff;}.cls-7{fill:#f58d89;}.cls-8{fill:#e82d86;}.cls-9{fill:#c9287d;}.cls-10{fill:#ea499e;}.cls-11{fill:#fcfcfc;}.cls-12{fill:#fcc8bc;}.cls-13{fill:#c6e580;}</style></defs><title>50 Monsters Avatar Icons</title><g id="BULINE"><circle class="cls-1" cx="256" cy="256" r="256"/></g><g id="Icons"><path class="cls-2" d="M294.59,387.57V509.11a258.71,258.71,0,0,1-79-.29V387.57Z"/><rect class="cls-3" x="215.59" y="419.82" width="79" height="39.5"/><path class="cls-4" d="M483.88,245.26c-6.2-4-24.34-11-37.22-12.18-.36-2.33-.75-4.65-1.21-7,13.79-1.33,28.39-4.9,34.65-7.74a25,25,0,0,0-20.65-45.54c-5.6,2.54-16,9.71-25.38,18a175.19,175.19,0,0,0-41.43-56.58c6.94-.3,13.16-1.11,16.56-2.09a19.76,19.76,0,0,0-10.9-38c-6.91,2-23.28,10.69-32.78,19.39q-3.36-2.13-6.83-4.13C370,100,381.08,87.1,384.76,80.64A25,25,0,1,0,341.31,55.9c-3.9,6.85-9.77,24.54-11.85,39.73a210.71,210.71,0,0,0-69.41-13.49c3.19-11,4.81-23.71,4.45-29.42a19.75,19.75,0,0,0-39.43,2.51c.35,5.58,3.45,17.61,7.84,27.92a208.94,208.94,0,0,0-59.78,15c2.4-8.69,3.79-17.33,3.74-21.77a19.76,19.76,0,0,0-39.51.37c.07,6.82,3.68,23.48,9,35-3.66,2.22-7.23,4.56-10.71,7C132,103.3,123.13,84.59,118.05,77.87A25,25,0,1,0,78.16,108c5.2,6.89,21.42,21.09,35.54,28.73A174.84,174.84,0,0,0,75.27,190.1c-9.13-8-19.11-14.78-24.54-17.25a25,25,0,0,0-20.65,45.54c6.09,2.76,20.05,6.22,33.5,7.63-.48,2.37-.89,4.77-1.25,7.18-12.79,1.5-30,8.14-36,12.06a19.75,19.75,0,0,0,21.55,33.11c3.08-2,8-6.39,12.94-11.69C66.22,359,150.87,432.4,254.5,432.4c104.09,0,189-74,193.78-166.92,5.31,5.83,10.74,10.74,14.05,12.89a19.75,19.75,0,0,0,21.55-33.11Z"/><path class="cls-5" d="M256.4,432.39h-1.9C150.87,432.4,66.22,359,60.78,266.69c-4.94,5.29-9.86,9.69-12.93,11.69A19.76,19.76,0,0,1,26.3,245.26c6-3.91,23.24-10.56,36-12.06.36-2.41.77-4.8,1.25-7.18-13.45-1.41-27.42-4.87-33.5-7.63a25,25,0,0,1,20.65-45.53c5.43,2.46,15.41,9.28,24.54,17.25a174.88,174.88,0,0,1,38.43-53.37C99.58,129.11,83.36,114.9,78.16,108a25,25,0,1,1,39.89-30.14c5.08,6.73,14,25.43,17.65,40.89q5.22-3.66,10.71-7c-5.37-11.49-9-28.15-9-35a19.76,19.76,0,0,1,39.51-.37c0,4.45-1.34,13.09-3.74,21.77,2.49-1,5-2,7.57-3-22.43,37.26-35.53,82.16-35.53,130.49C145.17,315.36,190.25,393.23,256.4,432.39Z"/><path class="cls-6" d="M327.57,149.9a79.17,79.17,0,0,0-72.48,47.32,79.17,79.17,0,1,0,0,63.69,79.17,79.17,0,1,0,72.48-111Z"/><circle class="cls-1" cx="184.17" cy="236.57" r="19"/><circle class="cls-1" cx="318.17" cy="236.57" r="19"/><path class="cls-1" d="M317.13,325.53a62,62,0,0,1-63.2,62,61.35,61.35,0,0,1-31.08-9.11A62.24,62.24,0,0,1,193,325.12c0-.23,0-.47,0-.71.12-6.79,8.73-9.5,12.88-4.12a60.52,60.52,0,0,0,4.95,5.67,61.8,61.8,0,0,0,24.83,15.43,61.42,61.42,0,0,0,18.18,3.07c.4,0,.8,0,1.2,0,1.82,0,3.62-.08,5.39-.24A61.34,61.34,0,0,0,278.32,340a60.59,60.59,0,0,0,7.08-3.4,62.29,62.29,0,0,0,16.26-13.15c.9-1,1.76-2.06,2.59-3.14a7.15,7.15,0,0,1,12.87,4.17C317.12,324.81,317.13,325.17,317.13,325.53Z"/><path class="cls-7" d="M287.32,378.55a61.8,61.8,0,0,1-64.47-.1,61.86,61.86,0,0,1,64.47.1Z"/><circle class="cls-8" cx="255.09" cy="275.57" r="39.17"/><ellipse class="cls-9" cx="237.53" cy="291.49" rx="11.12" ry="19.58" transform="translate(-136.55 253.34) rotate(-45)"/><ellipse class="cls-9" cx="273.1" cy="291.49" rx="19.58" ry="11.12" transform="translate(-126.13 278.49) rotate(-45)"/><ellipse class="cls-10" cx="255.09" cy="254.82" rx="16" ry="7.75"/><path class="cls-11" d="M229,338.73c-.48,11-4.61,19.67-9.63,19.67-5.35,0-9.68-9.77-9.68-21.83A44.49,44.49,0,0,1,210.88,326,62.12,62.12,0,0,0,229,338.73Z"/><path class="cls-11" d="M254.24,350.24c0,12.05-4.34,21.83-9.68,21.83s-9.68-9.78-9.68-21.83a45.49,45.49,0,0,1,.83-8.85,61.42,61.42,0,0,0,18.18,3.07A46.74,46.74,0,0,1,254.24,350.24Z"/><path class="cls-11" d="M279.46,350.24c0,12.05-4.33,21.83-9.68,21.83s-9.68-9.78-9.68-21.83a46.21,46.21,0,0,1,.38-6A61.34,61.34,0,0,0,278.32,340,44.63,44.63,0,0,1,279.46,350.24Z"/><path class="cls-11" d="M304.68,339.27c0,12.06-4.33,21.83-9.68,21.83s-9.68-9.77-9.68-21.83c0-.91,0-1.81.08-2.69a62.29,62.29,0,0,0,16.26-13.15A38.65,38.65,0,0,1,304.68,339.27Z"/><ellipse class="cls-12" cx="153.85" cy="332.7" rx="24.68" ry="19.8"/><ellipse class="cls-12" cx="361.85" cy="332.7" rx="24.68" ry="19.8"/><circle class="cls-13" cx="329.57" cy="127.08" r="16.28"/><circle class="cls-13" cx="299.94" cy="110.59" r="11.53"/></g></svg>