<svg xmlns="http://www.w3.org/2000/svg" viewBox="0 0 512 512"><defs><style>.cls-1{fill:#934cf5;}.cls-2{fill:#dd5045;}.cls-3{fill:#fc715a;}.cls-4{fill:#f55b4b;}.cls-5{fill:#f6d372;}.cls-6{fill:#fff;}.cls-7{fill:#3586cb;}.cls-8{fill:#27273d;}.cls-9{fill:#db1b1b;}</style></defs><title>50 Monsters Avatar Icons</title><g id="BULINE"><circle class="cls-1" cx="256" cy="256" r="256"/></g><g id="Icons"><path class="cls-2" d="M294.51,381.4V509.12a258.82,258.82,0,0,1-79.39-.37V381.4Z"/><path class="cls-3" d="M479.92,242.62A71.65,71.65,0,0,1,472,252c-10.11,10.11-34.86,28.88-63.58,47.32a116.27,116.27,0,0,0-23.12,19.53A118.21,118.21,0,0,0,362,356.94a114,114,0,0,1-213.19.49c-.07-.16-.13-.33-.19-.49a117.85,117.85,0,0,0-37.89-51.56q-4.12-3.21-8.56-6.06C73.44,280.88,48.69,262.11,38.58,252q-1-1-2-2.13a71.09,71.09,0,0,1,102.58-98.42,179.2,179.2,0,0,1,12.5,14.39c9.08,11.38,27.34,3.13,24.91-11.22-4-23.63-6.21-43.48-6.21-54.72a84,84,0,1,1,168,0c0,9.74-1.66,26-4.72,45.51h0q-.93,6-2,12.32c-2.52,14.5,16,22.68,25,11.09a203.18,203.18,0,0,1,14.87-17.38,71.1,71.1,0,0,1,108.44,91.17Z"/><path class="cls-4" d="M278.8,428.28a114.13,114.13,0,0,1-130.18-71.34,117.73,117.73,0,0,0-46.45-57.62C73.44,280.88,48.7,262.11,38.58,252a71.11,71.11,0,0,1,73.77-117.39A71.12,71.12,0,0,0,85.58,252c10.12,10.11,34.86,28.88,63.59,47.32a117.73,117.73,0,0,1,46.45,57.62A114.16,114.16,0,0,0,278.8,428.28Z"/><path class="cls-5" d="M118.68,279.4a46.11,46.11,0,0,1-8,26q-4.12-3.21-8.56-6.06C73.44,280.88,48.69,262.11,38.58,252q-1-1-2-2.13a46.38,46.38,0,0,1,82.14,29.53Z"/><path class="cls-5" d="M385.32,318.85A118.21,118.21,0,0,0,362,356.94a114.18,114.18,0,0,1-26.08,40.38,46.38,46.38,0,0,1,49.41-78.47Z"/><path class="cls-5" d="M228.17,390a46.16,46.16,0,0,1-13.89,33.08,114.32,114.32,0,0,1-65.48-65.68A46.38,46.38,0,0,1,228.17,390Z"/><circle class="cls-5" cx="185.27" cy="246.08" r="30.34"/><path class="cls-5" d="M338.32,99.9c0,9.74-1.66,26-4.72,45.51h0a30.34,30.34,0,1,1,3.94-57A83.23,83.23,0,0,1,338.32,99.9Z"/><path class="cls-5" d="M479.92,242.62a29.8,29.8,0,0,1-3.68.23,30.35,30.35,0,1,1,14.85-56.8A71.14,71.14,0,0,1,479.92,242.62Z"/><circle class="cls-5" cx="325.34" cy="255.07" r="30.34"/><circle class="cls-6" cx="255.3" cy="100.7" r="70.04"/><circle class="cls-7" cx="255.3" cy="104.57" r="41.33"/><circle class="cls-8" cx="254.93" cy="104.57" r="30.97"/><circle class="cls-6" cx="273.36" cy="83.26" r="9.66"/><circle class="cls-6" cx="254.93" cy="104.57" r="11.65"/><circle class="cls-6" cx="421.56" cy="200.38" r="54.69"/><circle class="cls-7" cx="421.56" cy="203.41" r="32.27"/><circle class="cls-8" cx="421.26" cy="203.41" r="24.18"/><circle class="cls-6" cx="435.66" cy="186.77" r="7.54"/><circle class="cls-6" cx="421.26" cy="203.41" r="9.1"/><circle class="cls-6" cx="91.54" cy="200.38" r="54.69"/><circle class="cls-7" cx="91.54" cy="203.41" r="32.27"/><circle class="cls-8" cx="91.25" cy="203.41" r="24.18"/><circle class="cls-6" cx="105.64" cy="186.77" r="7.54"/><circle class="cls-6" cx="91.25" cy="203.41" r="9.1"/><path class="cls-9" d="M227.7,216.25l16,15.7c5.7,5.6,16.63,5.6,22.32,0l16-15.7c7.38-7.26.73-17.93-11.16-17.93H238.86C227,198.32,220.32,209,227.7,216.25Z"/><path class="cls-8" d="M289.56,307.73a34.75,34.75,0,0,1-69.5,0,35.37,35.37,0,0,1,.46-5.67,34.74,34.74,0,0,1,15.29-23.42,33.94,33.94,0,0,1,3.25-1.89,34.78,34.78,0,0,1,31.5,0,33.94,33.94,0,0,1,3.25,1.89,34.74,34.74,0,0,1,15.29,23.42A35.37,35.37,0,0,1,289.56,307.73Z"/><path class="cls-6" d="M235.81,278.64v7.68a15.74,15.74,0,0,1-15.29,15.74A34.74,34.74,0,0,1,235.81,278.64Z"/><path class="cls-6" d="M270.56,276.75v9.57a15.75,15.75,0,0,1-31.5,0v-9.57a34.78,34.78,0,0,1,31.5,0Z"/><path class="cls-6" d="M289.1,302.06a15.74,15.74,0,0,1-15.29-15.74v-7.68A34.74,34.74,0,0,1,289.1,302.06Z"/></g></svg>