<svg xmlns="http://www.w3.org/2000/svg" viewBox="0 0 512 512"><defs><style>.cls-1{fill:#a99bd4;}.cls-2{fill:#e88032;}.cls-3{fill:#d16d2a;}.cls-4{fill:#fff;}.cls-5{fill:#3586cb;}.cls-6{fill:#27273d;}.cls-7{fill:#e0e0e2;}.cls-8{fill:#db1b1b;}.cls-9{fill:#b0d46c;}</style></defs><title>50 Monsters Avatar Icons</title><g id="BULINE"><circle class="cls-1" cx="256" cy="256" r="256"/></g><g id="Icons"><path class="cls-2" d="M430.61,261.08a239,239,0,0,1-1.34,24q-.47,4.51-1.08,9.23c-.89,6.78-2,13.86-3.37,21.16-10.07,54.37-32.69,121.33-63.16,173.75a256.15,256.15,0,0,1-208.07,1.45C123,438.51,100.13,371.52,89.84,316.9c-1.35-7.16-2.48-14.11-3.39-20.78q-.61-4.47-1.08-8.77c-.64-5.8-1.09-11.35-1.33-16.61-.17-3.34-.25-6.57-.25-9.66q0-4.31.21-8.55.41-8.39,1.59-16.53c.43-2.93.92-5.84,1.49-8.72a172.62,172.62,0,0,1,7.48-26.5q2.63-7,5.82-13.8a172.27,172.27,0,0,1,11.27-20.2c1.66-2.57,3.4-5.09,5.19-7.56a172.64,172.64,0,0,1,13.23-16.07q3.08-3.32,6.32-6.47,5.09-5,10.57-9.46,2.56-2.11,5.2-4.13,2.11-1.61,4.27-3.15c1.18-.85,2.37-1.67,3.56-2.48a172,172,0,0,1,24.37-13.79c5-2.3,10-4.38,15.25-6.2a170.39,170.39,0,0,1,22.89-6.33c2.76-.56,5.55-1,8.35-1.48q8-1.22,16.24-1.7,5-.28,10.11-.29,3.39,0,6.75.13l2.17.1c.19,0,.37,0,.55,0,1.29.06,2.58.15,3.87.25.73,0,1.47.11,2.2.18l.78.07c3.16.29,6.31.67,9.42,1.14s6,1,9,1.57A172.69,172.69,0,0,1,358,120c.88.63,1.75,1.27,2.62,1.92q2.4,1.77,4.72,3.64,4,3.18,7.78,6.59,2.55,2.3,5,4.7a173.79,173.79,0,0,1,12.43,13.44q5.46,6.56,10.26,13.64,2.46,3.63,4.72,7.38A171.45,171.45,0,0,1,415.85,191c1.69,3.82,3.25,7.7,4.65,11.66a170.57,170.57,0,0,1,7.17,26.53q.66,3.51,1.17,7.06c.1.68.19,1.37.28,2.06q.78,5.88,1.15,11.88Q430.62,255.58,430.61,261.08Z"/><path class="cls-3" d="M273.52,88.43c-2.38.23-4.74.5-7.09.83a168.38,168.38,0,0,0-17.53,3.3q-8.18,2-16,4.73c-2.68.92-5.33,1.92-7.95,3a172.65,172.65,0,0,0-20.62,10q-5.67,3.23-11.06,6.86a172.5,172.5,0,0,0-20.77,16.4q-3.78,3.47-7.33,7.16A173.65,173.65,0,0,0,141,172.2q-2.53,4.23-4.83,8.62a173.72,173.72,0,0,0-8.86,19.88q-2.85,7.67-5,15.67a173.44,173.44,0,0,0-5.82,44.71,278.57,278.57,0,0,0,3.58,41.41c9.46,61.67,37,144,74.85,202.18a252.76,252.76,0,0,1-41.36-14C123,438.51,100.13,371.52,89.84,316.9c-1.35-7.16-2.48-14.11-3.39-20.78q-.61-4.47-1.08-8.77c-.64-5.8-1.09-11.35-1.33-16.61-.17-3.34-.25-6.57-.25-9.66q0-4.31.21-8.55.41-8.39,1.59-16.53c.43-2.93.92-5.84,1.49-8.72a172.62,172.62,0,0,1,7.48-26.5q2.63-7,5.82-13.8a172.27,172.27,0,0,1,11.27-20.2c1.66-2.57,3.4-5.09,5.19-7.56a172.64,172.64,0,0,1,13.23-16.07q3.08-3.32,6.32-6.47,5.09-5,10.57-9.46,2.56-2.11,5.2-4.13,2.11-1.61,4.27-3.15c1.18-.85,2.37-1.67,3.56-2.48a172,172,0,0,1,24.37-13.79c5-2.3,10-4.38,15.25-6.2a170.39,170.39,0,0,1,22.89-6.33c2.76-.56,5.55-1,8.35-1.48q8-1.22,16.24-1.7,5-.28,10.11-.29,3.39,0,6.75.13l2.17.1c.19,0,.37,0,.55,0,1.29.06,2.58.15,3.87.25.73,0,1.47.11,2.2.18Z"/><circle class="cls-4" cx="139.81" cy="142.76" r="59.26"/><circle class="cls-5" cx="139.81" cy="146.04" r="34.97"/><circle class="cls-6" cx="139.49" cy="146.04" r="26.2"/><circle class="cls-4" cx="155.09" cy="128.01" r="8.17"/><circle class="cls-4" cx="139.49" cy="146.04" r="9.86"/><circle class="cls-4" cx="80.55" cy="258.37" r="59.26"/><circle class="cls-5" cx="80.55" cy="261.65" r="34.97"/><circle class="cls-6" cx="80.23" cy="261.65" r="26.2"/><circle class="cls-4" cx="95.83" cy="243.62" r="8.17"/><circle class="cls-4" cx="80.23" cy="261.65" r="9.86"/><circle class="cls-4" cx="381.39" cy="142.76" r="59.26"/><circle class="cls-5" cx="381.39" cy="146.04" r="34.97"/><circle class="cls-6" cx="381.71" cy="146.04" r="26.2"/><circle class="cls-4" cx="366.11" cy="128.01" r="8.17"/><circle class="cls-4" cx="381.71" cy="146.04" r="9.86"/><circle class="cls-4" cx="440.65" cy="258.37" r="59.26"/><circle class="cls-5" cx="440.65" cy="261.65" r="34.97"/><circle class="cls-6" cx="440.97" cy="261.65" r="26.2"/><circle class="cls-4" cx="425.37" cy="243.62" r="8.17"/><circle class="cls-4" cx="440.97" cy="261.65" r="9.86"/><circle class="cls-4" cx="257.2" cy="83.49" r="59.26"/><circle class="cls-5" cx="257.2" cy="86.77" r="34.97"/><circle class="cls-6" cx="256.88" cy="86.77" r="26.2"/><circle class="cls-4" cx="272.48" cy="68.74" r="8.17"/><circle class="cls-4" cx="256.88" cy="86.77" r="9.86"/><path class="cls-6" d="M338.09,287.1a112.22,112.22,0,0,1-12.53,52.19c-14.38,27.37-39.76,45.55-68.67,45.55s-54.11-18-68.53-45.25a112.23,112.23,0,0,1-12.69-52.49,115.49,115.49,0,0,1,5.64-35.88c11.89-36.23,41.25-61.85,75.58-61.85s63.67,25.62,75.56,61.85A115.2,115.2,0,0,1,338.09,287.1Z"/><path class="cls-4" d="M332.45,251.22c-4,4.55-8.91,10.21-12.58,14.39a5.43,5.43,0,0,1-8.87-1l-11.16-21L287.18,252a5.44,5.44,0,0,1-8.43-4.53v-12l-18.41,15.18a5.44,5.44,0,0,1-6.91,0L235,235.45v12A5.42,5.42,0,0,1,226.6,252l-12.68-8.38-11.16,21a5.43,5.43,0,0,1-8.87,1c-3.67-4.18-8.62-9.84-12.58-14.39,11.89-36.23,41.25-61.85,75.58-61.85S320.56,215,332.45,251.22Z"/><path class="cls-7" d="M332.45,251.22l-3.33,3.83c-13.49-31.49-40.77-53-72.23-53s-58.76,21.54-72.25,53l-3.33-3.83c11.89-36.23,41.25-61.85,75.58-61.85S320.56,215,332.45,251.22Z"/><path class="cls-8" d="M325.56,339.29c-14.38,27.37-39.76,45.55-68.67,45.55s-54.11-18-68.53-45.25a55.35,55.35,0,0,1,28.69-7.76,56.28,56.28,0,0,1,24.42,5.44,36.39,36.39,0,0,0,31.47,0,56.2,56.2,0,0,1,24.41-5.44A55.52,55.52,0,0,1,325.56,339.29Z"/><circle class="cls-9" cx="153.01" cy="341.11" r="13.2"/><circle class="cls-9" cx="181.31" cy="392.44" r="13.2"/><circle class="cls-9" cx="178.68" cy="358.34" r="9.01"/><circle class="cls-9" cx="155.3" cy="373.29" r="5.95"/><circle class="cls-9" cx="363.63" cy="341.11" r="13.2"/><circle class="cls-9" cx="335.32" cy="392.44" r="13.2"/><circle class="cls-9" cx="337.95" cy="358.34" r="9.01"/><circle class="cls-9" cx="361.33" cy="373.29" r="5.95"/></g></svg>