<svg xmlns="http://www.w3.org/2000/svg" viewBox="0 0 512 512"><defs><style>.cls-1{fill:#f7bb38;}.cls-2{fill:#009950;}.cls-3{fill:#00b564;}.cls-4{fill:#27273d;}.cls-5{fill:#fff;}.cls-6{fill:#3586cb;}.cls-7{fill:#db1b1b;}</style></defs><title>50 Monsters Avatar Icons</title><g id="BULINE"><circle class="cls-1" cx="256" cy="256" r="256"/></g><g id="Icons"><path class="cls-2" d="M411.69,459.23a256,256,0,0,1-311.34,0c6.93-16.32,25-30.74,50.32-41.37,28-11.8,64.93-18.95,105.35-18.95s77.33,7.15,105.36,18.95C386.68,428.51,404.76,442.91,411.69,459.23Z"/><rect class="cls-2" x="239.24" y="189.6" width="33.57" height="71.17"/><path class="cls-3" d="M363.39,77.48A35.51,35.51,0,0,0,339,87.11a89.61,89.61,0,0,0-166.13.29A35.66,35.66,0,1,0,169,142.14a89.6,89.6,0,0,0,174,.25,35.66,35.66,0,1,0,20.4-64.91Z"/><ellipse class="cls-3" cx="256.02" cy="331.6" rx="210.33" ry="99.67"/><path class="cls-4" d="M401.19,329.6c0,15.39-22.08,29.09-56.38,37.84-24.54,6.26-55.34,10-88.79,10-33.77,0-64.84-3.8-89.5-10.17-33.89-8.76-55.66-22.37-55.66-37.66,0-8.15,6.19-15.83,17.1-22.54,10-6.13,23.83-11.46,40.54-15.63q5.38-1.35,11.15-2.52a349.56,349.56,0,0,1,42-5.8q6.26-.51,12.71-.82c7.06-.35,14.29-.53,21.65-.53q10.65,0,20.91.49,6.6.31,13,.82a352.88,352.88,0,0,1,42,5.75q5.75,1.15,11.14,2.5c16.68,4.13,30.58,9.41,40.59,15.49C394.85,313.59,401.19,321.35,401.19,329.6Z"/><circle class="cls-5" cx="256.02" cy="120.85" r="69.42"/><circle class="cls-6" cx="256.02" cy="124.69" r="40.97"/><circle class="cls-4" cx="255.65" cy="124.69" r="30.69"/><circle class="cls-5" cx="273.92" cy="103.57" r="9.57"/><circle class="cls-5" cx="255.65" cy="124.69" r="11.55"/><path class="cls-7" d="M344.81,367.44c-24.54,6.26-55.34,10-88.79,10-33.77,0-64.84-3.8-89.5-10.17A50.08,50.08,0,0,1,255.65,344a50.08,50.08,0,0,1,89.16,23.46Z"/><path class="cls-5" d="M168.5,291.43c-.47,21.23-9.83,38.16-21.31,38.16-8.47,0-15.78-9.2-19.23-22.53C137.91,300.93,151.79,295.6,168.5,291.43Z"/><path class="cls-5" d="M221.66,283.11c-.91,20.43-10.07,36.49-21.25,36.49-10.09,0-18.55-13.1-20.76-30.69A349.56,349.56,0,0,1,221.66,283.11Z"/><path class="cls-5" d="M383.69,306.81c-3.42,13.47-10.77,22.78-19.28,22.78-11.5,0-20.87-17-21.31-38.27C359.78,295.45,373.68,300.73,383.69,306.81Z"/><path class="cls-5" d="M332,288.82c-2.19,17.64-10.66,30.78-20.77,30.78-11.19,0-20.37-16.08-21.26-36.53A352.88,352.88,0,0,1,332,288.82Z"/><path class="cls-5" d="M276.93,282.25c-.68,20.84-9.95,37.35-21.28,37.35s-20.59-16.49-21.28-37.31c7.06-.35,14.29-.53,21.65-.53Q266.67,281.76,276.93,282.25Z"/><circle class="cls-2" cx="148.23" cy="113.14" r="13.15"/><circle class="cls-2" cx="363.39" cy="113.14" r="13.15"/></g></svg>