<svg xmlns="http://www.w3.org/2000/svg" viewBox="0 0 512 512"><defs><style>.cls-1{fill:#f7bb38;}.cls-2{fill:#32314b;}.cls-3{fill:#aa60fa;}.cls-4{fill:#934cf5;}.cls-5{fill:#fff;}.cls-6{fill:#e82d86;}.cls-7{fill:#27273d;}.cls-8{fill:#c99fff;}.cls-9{fill:none;stroke:#27273d;stroke-linecap:round;stroke-miterlimit:10;stroke-width:25px;}.cls-10{fill:#fab3a7;}.cls-11{fill:#7f45db;}.cls-12{fill:#b276ff;}</style></defs><title>50 Monsters Avatar Icons</title><g id="BULINE"><circle class="cls-1" cx="256" cy="256" r="256"/></g><g id="Icons"><path class="cls-2" d="M211.36,106.41,244.5,23.55c4.6-11.49,21.05-10.93,24.85.86l26.46,82Z"/><path class="cls-2" d="M142.06,156.35,121.9,69.42c-2.79-12.06,11-21,20.89-13.51l68.57,52.18Z"/><path class="cls-2" d="M99.21,218.07l-56.58-69c-7.85-9.57.58-23.71,12.74-21.36L140,144.1Z"/><path class="cls-2" d="M82.79,265.76,21,231.1a10.49,10.49,0,0,1,3.24-19.47L91.52,199.3Z"/><path class="cls-2" d="M369.94,156.35,390.1,69.42c2.79-12.06-11-21-20.89-13.51l-68.57,52.18Z"/><path class="cls-2" d="M412.79,218.07l56.58-69c7.85-9.57-.58-23.71-12.74-21.36L372,144.1Z"/><path class="cls-2" d="M429.21,265.76,491,231.1a10.49,10.49,0,0,0-3.24-19.47L420.48,199.3Z"/><path class="cls-3" d="M459.58,290.09a203,203,0,0,1-406,0c0-112.11,90.89-203,203-203S459.58,178,459.58,290.09Z"/><path class="cls-4" d="M278.11,492.08q-10,1-20.33,1a203,203,0,0,1-203-203c0-112.11,90.89-203,203-203q10.29,0,20.33,1c-102.56,10.19-182.67,96.74-182.67,202a203.06,203.06,0,0,0,182.67,202Z"/><circle class="cls-5" cx="256.58" cy="240.76" r="59.33"/><circle class="cls-6" cx="256.58" cy="244.04" r="35.02"/><circle class="cls-7" cx="256.26" cy="244.04" r="26.23"/><circle class="cls-5" cx="271.88" cy="225.99" r="8.18"/><circle class="cls-5" cx="256.26" cy="244.04" r="9.87"/><path class="cls-8" d="M404.49,429.11a203,203,0,0,1-295.82,0c10.57-57.53,72.76-101.69,147.91-101.69S393.92,371.58,404.49,429.11Z"/><path class="cls-9" d="M217.61,355.75a54.65,54.65,0,0,0,77.3,0"/><circle class="cls-10" cx="166.45" cy="304.06" r="25"/><circle class="cls-10" cx="347.04" cy="304.06" r="25"/><circle class="cls-11" cx="97.58" cy="329.06" r="7.81"/><circle class="cls-4" cx="123.58" cy="336.87" r="7.81"/><circle class="cls-11" cx="91.52" cy="355.75" r="9.45"/><circle class="cls-4" cx="121.54" cy="363.76" r="13.17"/><circle class="cls-4" cx="415.3" cy="329.06" r="7.81"/><circle class="cls-4" cx="389.3" cy="336.87" r="7.81"/><circle class="cls-4" cx="421.36" cy="355.75" r="9.45"/><circle class="cls-4" cx="391.34" cy="363.76" r="13.17"/><circle class="cls-12" cx="387.79" cy="174.37" r="16.28"/><circle class="cls-12" cx="363.81" cy="150.39" r="11.53"/></g></svg>