<svg xmlns="http://www.w3.org/2000/svg" viewBox="0 0 512 512"><defs><style>.cls-1{fill:#27273d;}.cls-2{fill:#f6d372;}.cls-3{fill:#aa60fa;}.cls-4{fill:#ffe9b3;}.cls-5{fill:#ddb758;}.cls-6{fill:#fff;}.cls-7{fill:#3586cb;}</style></defs><title>50 Monsters Avatar Icons</title><g id="BULINE"><circle class="cls-1" cx="256" cy="256" r="256"/></g><g id="Icons"><path class="cls-2" d="M424.35,244.59a15,15,0,1,0-23-19.27c-18.14,21.62-26.06,48.33-23.54,79.41,2,24.68,10.38,46.15,15.21,56.75a51.19,51.19,0,0,1,4.79,22.57c-1,33.11-32.86,49.82-57.3,57.79a85.08,85.08,0,0,0-37.21-64.25h0c2.87-16.71,10.84-38.77,30.49-63.24,4.13-4.91,62.64-76.4,35.4-143.75a15,15,0,0,0-27.81,11.25c20.79,51.42-30.11,112.66-30.61,113.26l-.25.3c-20.72,25.75-30.75,49.92-35.26,69.89h0c-1.49-.36-3-.67-4.52-.94h0V329.65c0-35.54-4.48-69.42-13.32-100.69-4.26-15.08-.87-30,10.07-44.18,3.14-3.87,23.6-30.33,20.21-59.84-1.74-15.13-9.64-28.46-22.85-38.57a15,15,0,0,0-18.22,23.83c6.74,5.16,10.43,11.07,11.25,18.07,1.76,14.86-9.33,32.24-13.72,37.65l-.29.36c-21.38,27.67-20.13,53.8-15.32,70.84,8.09,28.61,12.19,59.75,12.19,92.53v34.71h0a84.32,84.32,0,0,0-8.88,2.09h0c-4.38-20.19-14.39-44.79-35.52-71l-.25-.3c-.51-.61-51.5-61.59-30.6-113.26a15,15,0,0,0-27.81-11.25C110.45,238,169,309.43,173.08,314.35c20.86,26,28.56,49.22,31,66.24h0A84.83,84.83,0,0,0,170.86,444c-24.83-6.92-63.29-23.5-64.39-59.93a51.06,51.06,0,0,1,4.8-22.57c4.82-10.6,13.21-32.07,15.21-56.75,2.51-31.08-5.41-57.79-23.55-79.41a15,15,0,1,0-23,19.27c30.16,36,12.85,85,4,104.46A81.49,81.49,0,0,0,76.48,385c1,33.64,21.28,60.55,58.6,77.84A190.28,190.28,0,0,0,170.76,475v22.51a252.54,252.54,0,0,0,35.94,9.79,258.45,258.45,0,0,0,97.13.29,254.1,254.1,0,0,0,36.93-9.91V473.1a184.2,184.2,0,0,0,28.46-10.3c37.32-17.29,57.58-44.2,58.6-77.84a81.38,81.38,0,0,0-7.48-35.91C411.5,329.63,394.19,280.56,424.35,244.59Z"/><circle class="cls-3" cx="429.76" cy="219.21" r="50.88" transform="translate(-38.87 104.6) rotate(-13.28)"/><path class="cls-4" d="M303.83,466.68v40.86a258.45,258.45,0,0,1-97.13-.29V466.68a48.64,48.64,0,0,1,31.18-45.35,47.66,47.66,0,0,1,9.16-2.51,48.62,48.62,0,0,1,55.28,35.78A49.05,49.05,0,0,1,303.83,466.68Z"/><path class="cls-5" d="M351,438v32c-3.57,1.19-7,2.22-10.24,3.11V448c0-2.09-.08-4.15-.23-6.2C343.9,440.73,347.42,439.47,351,438Z"/><path class="cls-5" d="M170.85,444c-.07,1.34-.1,2.7-.1,4.06v26.9c-3.12-.74-6.57-1.63-10.23-2.69V440.73C164.12,442,167.6,443.07,170.85,444Z"/><path class="cls-5" d="M231.86,366.45A84.32,84.32,0,0,0,204,380.59a113.44,113.44,0,0,0-6.43-24.53,94.71,94.71,0,0,1,26.5-14.42A149.55,149.55,0,0,1,231.86,366.45Z"/><path class="cls-5" d="M310.32,353.42a116.12,116.12,0,0,0-7,24.16,84.32,84.32,0,0,0-28-12.28,148.65,148.65,0,0,1,8-25A94.58,94.58,0,0,1,310.32,353.42Z"/><path class="cls-5" d="M270.75,337.43v26.93a85.89,85.89,0,0,0-30,0V337.43a95.93,95.93,0,0,1,30,0Z"/><circle class="cls-6" cx="429.99" cy="219.21" r="42.98"/><circle class="cls-7" cx="429.99" cy="221.59" r="25.37"/><circle class="cls-1" cx="429.76" cy="221.59" r="19"/><circle class="cls-6" cx="441.07" cy="208.51" r="5.93"/><circle class="cls-6" cx="429.76" cy="221.59" r="7.15"/><circle class="cls-3" cx="355.88" cy="133.27" r="50.88" transform="translate(-21.1 85.33) rotate(-13.28)"/><circle class="cls-6" cx="356.11" cy="133.27" r="42.98"/><circle class="cls-7" cx="356.11" cy="135.64" r="25.37"/><circle class="cls-1" cx="355.88" cy="135.64" r="19"/><circle class="cls-6" cx="367.19" cy="122.57" r="5.93"/><circle class="cls-6" cx="355.88" cy="135.64" r="7.15"/><circle class="cls-3" cx="256.87" cy="67.83" r="50.88" transform="translate(-8.71 60.83) rotate(-13.28)"/><circle class="cls-6" cx="257.1" cy="67.83" r="42.98"/><circle class="cls-7" cx="257.1" cy="70.21" r="25.37"/><circle class="cls-1" cx="256.87" cy="70.21" r="19"/><circle class="cls-6" cx="268.18" cy="57.13" r="5.93"/><circle class="cls-6" cx="256.87" cy="70.21" r="7.15"/><circle class="cls-3" cx="155.11" cy="133.27" r="50.88" transform="translate(-26.47 39.2) rotate(-13.28)"/><circle class="cls-6" cx="155.35" cy="133.27" r="42.98"/><circle class="cls-7" cx="155.35" cy="135.64" r="25.37"/><circle class="cls-1" cx="155.11" cy="135.64" r="19"/><circle class="cls-6" cx="166.43" cy="122.57" r="5.93"/><circle class="cls-6" cx="155.11" cy="135.64" r="7.15"/><circle class="cls-3" cx="74.16" cy="216.83" r="50.88" transform="translate(-47.83 22.84) rotate(-13.28)"/><circle class="cls-6" cx="74.39" cy="216.83" r="42.98"/><circle class="cls-7" cx="74.39" cy="219.21" r="25.37"/><circle class="cls-1" cx="74.16" cy="219.21" r="19"/><circle class="cls-6" cx="85.48" cy="206.13" r="5.93"/><circle class="cls-6" cx="74.16" cy="219.21" r="7.15"/><path class="cls-6" d="M196.74,406.5h23a5.86,5.86,0,0,1,5.86,5.86v18.76a17.38,17.38,0,0,1-17.38,17.38h0a17.38,17.38,0,0,1-17.38-17.38V412.36a5.86,5.86,0,0,1,5.86-5.86Z"/><path class="cls-6" d="M243.74,406.5h23a5.86,5.86,0,0,1,5.86,5.86v18.76a17.38,17.38,0,0,1-17.38,17.38h0a17.38,17.38,0,0,1-17.38-17.38V412.36A5.86,5.86,0,0,1,243.74,406.5Z"/><path class="cls-6" d="M290.74,406.5h23a5.86,5.86,0,0,1,5.86,5.86v18.76a17.38,17.38,0,0,1-17.38,17.38h0a17.38,17.38,0,0,1-17.38-17.38V412.36A5.86,5.86,0,0,1,290.74,406.5Z"/></g></svg>