<svg xmlns="http://www.w3.org/2000/svg" viewBox="0 0 512 512"><defs><style>.cls-1{fill:#27273d;}.cls-2{fill:#00b564;}.cls-3{fill:#f6d372;}.cls-4{fill:#db1b1b;}.cls-5{fill:#c11a1a;}.cls-6{fill:#c61c1c;}.cls-7{fill:#fc715a;}.cls-8{fill:#fff;}.cls-9{fill:#e83d3d;}</style></defs><title>50 Monsters Avatar Icons</title><g id="BULINE"><circle class="cls-1" cx="256" cy="256" r="256"/></g><g id="Icons"><path class="cls-2" d="M165.15,175.1l-7,62.55A131.47,131.47,0,0,1,131,222.86a101.07,101.07,0,0,1-13.43-11.48,91.63,91.63,0,0,1-9.22-11,88.93,88.93,0,0,1-10.16-18.61,96.22,96.22,0,0,1-6.72-35.48,5,5,0,0,1,9.2-2.67,70.7,70.7,0,0,0,9.55,11.94,65.1,65.1,0,0,0,13.84,10.59,66.92,66.92,0,0,0,11.81,5.31A73.22,73.22,0,0,0,153,175.09,60.52,60.52,0,0,0,165.15,175.1Z"/><path class="cls-3" d="M124.09,166.19l-15.71,34.23a88.93,88.93,0,0,1-10.16-18.61l12-26.21A65.1,65.1,0,0,0,124.09,166.19Z"/><path class="cls-3" d="M153,175.09,131,222.86a101.07,101.07,0,0,1-13.43-11.48l18.3-39.88A73.22,73.22,0,0,0,153,175.09Z"/><path class="cls-2" d="M345.77,175.1l7,62.55a131.47,131.47,0,0,0,27.12-14.79,100.44,100.44,0,0,0,13.43-11.48,92.69,92.69,0,0,0,9.23-11,89.33,89.33,0,0,0,10.15-18.61,96.47,96.47,0,0,0,6.73-35.48,5,5,0,0,0-9.2-2.67,71.2,71.2,0,0,1-9.55,11.94,65.15,65.15,0,0,1-13.85,10.59A66.27,66.27,0,0,1,375,171.5,73.11,73.11,0,0,1,358,175.09,60.52,60.52,0,0,1,345.77,175.1Z"/><path class="cls-3" d="M386.83,166.19l15.72,34.23a89.33,89.33,0,0,0,10.15-18.61l-12-26.21A65.15,65.15,0,0,1,386.83,166.19Z"/><path class="cls-3" d="M358,175.09l21.93,47.77a100.44,100.44,0,0,0,13.43-11.48L375,171.5A73.11,73.11,0,0,1,358,175.09Z"/><path class="cls-4" d="M371.88,484.33a256.95,256.95,0,0,1-188.49,17.23c-2.63-.78-5.23-1.6-7.82-2.46A252.08,252.08,0,0,1,143.39,486L149,233.54l.79-35.63a107.61,107.61,0,0,1,2.72-21.85c.07-.33.14-.66.22-1a108,108,0,0,1,82.2-80.23c-5.77-6.24-17.76-15-37.79-11.07,0,0,8-22.17,51-18.17,0,0,1.06-7.17,9.87-14.42.46-.38,1-.77,1.46-1.15s1-.76,1.59-1.14,1.13-.75,1.73-1.13,1.23-.74,1.88-1.11,1.33-.73,2-1.09c.35-.18.71-.36,1.08-.53,1.09-.53,2.25-1,3.47-1.55a87.94,87.94,0,0,1,17.88-5h0l0,0a36.58,36.58,0,0,0-6.77,21c0,.46,0,.92,0,1.39s0,.92.09,1.39a1.64,1.64,0,0,0,0,.22c0,.38.06.77.12,1.16a2.23,2.23,0,0,0,.05.36c0,.38.1.77.17,1.17,0,0,0,0,0,.08a34.6,34.6,0,0,0,1.3,5.22s20-15.5,50,13.33c0,0-34.75-1.54-47.51,12.61a108,108,0,0,1,75.78,78.17,105.18,105.18,0,0,1,2.67,16.08c.22,2.41.36,4.83.41,7.28l.74,33.42Z"/><path class="cls-5" d="M289.15,38.43h0s0,0,0,0a36.58,36.58,0,0,0-6.77,21c0,.46,0,.92,0,1.39s.05.93.09,1.39a1.64,1.64,0,0,0,0,.22c0,.39.07.77.12,1.16a2.23,2.23,0,0,0,.05.36c0,.39.1.78.17,1.17,0,0,0,0,0,.08-38.06-1.65-45.35,18.55-45.35,18.55,20-3.9,32,4.83,37.79,11.07a107.94,107.94,0,0,0-85.14,103.07l-.29,12.83-4.1,184.59-2.37,106.23c-2.63-.78-5.23-1.6-7.82-2.46A252.08,252.08,0,0,1,143.39,486L149,233.54l.79-35.63a107.61,107.61,0,0,1,2.72-21.85c.07-.33.14-.66.22-1a108,108,0,0,1,82.2-80.23c-5.77-6.24-17.76-15-37.79-11.07,0,0,8-22.17,51-18.17,0,0,1.06-7.17,9.87-14.42.46-.38,1-.77,1.46-1.15s1-.76,1.59-1.14,1.13-.75,1.73-1.13,1.23-.74,1.88-1.11,1.33-.73,2-1.09c.35-.18.71-.36,1.08-.53,1.09-.53,2.25-1.05,3.47-1.55A87.19,87.19,0,0,1,289.15,38.43Z"/><circle class="cls-6" cx="257.65" cy="183.96" r="72.86"/><path class="cls-7" d="M340.46,477.27q0,10.51-.65,20.69a257.42,257.42,0,0,1-156.42,3.6c-2.63-.78-5.23-1.6-7.82-2.46-.49-7.14-.73-14.43-.73-21.83,0-29.83,4-57.8,10.92-81.94,14.27-49.63,41.12-83.06,71.89-83.06C303.39,312.27,340.46,386.14,340.46,477.27Z"/><circle class="cls-8" cx="257.65" cy="183.96" r="62.52"/><circle class="cls-1" cx="257.65" cy="183.96" r="40.82"/><circle class="cls-8" cx="257.65" cy="183.96" r="9.36"/><circle class="cls-8" cx="281.94" cy="155.6" r="14.93"/><rect class="cls-1" x="227.5" y="264.6" width="60.29" height="16" rx="8"/><path class="cls-8" d="M248.4,280.6h16.5a0,0,0,0,1,0,0v8.5a8.25,8.25,0,0,1-8.25,8.25h0a8.25,8.25,0,0,1-8.25-8.25v-8.5a0,0,0,0,1,0,0Z"/><circle class="cls-9" cx="345.77" cy="289.68" r="16.28"/><circle class="cls-9" cx="345.77" cy="255.77" r="11.53"/></g></svg>