<svg xmlns="http://www.w3.org/2000/svg" viewBox="0 0 512 512"><defs><style>.cls-1{fill:#7cc8fb;}.cls-2{fill:#3586cb;}.cls-3{fill:#366fca;}.cls-4{fill:#d89a1e;}.cls-5{fill:#c1861e;}.cls-6{fill:#f7bb38;}.cls-7{fill:#e8ad36;}.cls-8{fill:#f6d372;}.cls-9{fill:#fff;}.cls-10{fill:#27273d;}.cls-11{fill:#db1b1b;}</style></defs><title>50 Monsters Avatar Icons</title><g id="BULINE"><circle class="cls-1" cx="256" cy="256" r="256"/></g><g id="Icons"><path class="cls-2" d="M95.68,136.63S68.88,110,30.12,129a7.67,7.67,0,0,0,.15,13.79l7.84,3.74a6.32,6.32,0,0,1,1.06,10.76c-8.44,6.37-20.92,17.68-28.48,33.35-3.17,6.57,4,13.4,10.45,10.07a129.38,129.38,0,0,1,14.11-6.33,6.31,6.31,0,0,1,7.68,9.07C36.4,214.68,28,233,29.19,251.4a7.67,7.67,0,0,0,13.52,4.34c7.41-8.81,20.86-18.91,44.51-21.82Z"/><path class="cls-3" d="M66.19,193.88c-6.52,11.26-14.92,29.6-13.73,48a7.33,7.33,0,0,0,1.22,3.69,55.2,55.2,0,0,0-11,9.92,7.67,7.67,0,0,1-13.52-4.34c-1.18-18.38,7.21-36.72,13.74-48a6.31,6.31,0,0,0-7.68-9.07,132.35,132.35,0,0,0-14.12,6.33c-6.49,3.32-13.62-3.5-10.45-10.08,7.58-15.66,20-27,28.48-33.34a6.33,6.33,0,0,0-1-10.77l-7.84-3.73a7.67,7.67,0,0,1-.15-13.79,65.94,65.94,0,0,1,20-6.29,7.73,7.73,0,0,0,3.38,10.81L61.37,137a6.32,6.32,0,0,1,1.06,10.77C54,154.08,41.52,165.4,34,181.07c-3.17,6.57,4,13.39,10.45,10.07a130.48,130.48,0,0,1,14.12-6.34A6.31,6.31,0,0,1,66.19,193.88Z"/><path class="cls-2" d="M416.32,136.63S443.12,110,481.88,129a7.67,7.67,0,0,1-.15,13.79l-7.84,3.74a6.32,6.32,0,0,0-1.06,10.76c8.44,6.37,20.92,17.68,28.48,33.35,3.17,6.57-3.95,13.4-10.45,10.07a129.38,129.38,0,0,0-14.11-6.33,6.31,6.31,0,0,0-7.68,9.07c6.53,11.26,14.92,29.6,13.74,48a7.67,7.67,0,0,1-13.52,4.34c-7.41-8.81-20.86-18.91-44.51-21.82Z"/><path class="cls-3" d="M445.81,193.88c6.52,11.26,14.92,29.6,13.73,48a7.33,7.33,0,0,1-1.22,3.69,55.2,55.2,0,0,1,11,9.92,7.67,7.67,0,0,0,13.52-4.34c1.18-18.38-7.21-36.72-13.74-48a6.31,6.31,0,0,1,7.68-9.07,132.35,132.35,0,0,1,14.12,6.33c6.49,3.32,13.62-3.5,10.45-10.08-7.58-15.66-20-27-28.48-33.34a6.33,6.33,0,0,1,1.05-10.77l7.84-3.73a7.67,7.67,0,0,0,.15-13.79,65.94,65.94,0,0,0-20-6.29,7.73,7.73,0,0,1-3.38,10.81L450.63,137a6.32,6.32,0,0,0-1.06,10.77c8.44,6.36,20.91,17.68,28.48,33.35,3.17,6.57-4,13.39-10.45,10.07a130.48,130.48,0,0,0-14.12-6.34A6.31,6.31,0,0,0,445.81,193.88Z"/><path class="cls-4" d="M290,354.13V509.75a258.87,258.87,0,0,1-73-.69V354.13Z"/><rect class="cls-5" x="216.71" y="409.85" width="72.97" height="41.32"/><circle class="cls-6" cx="253.56" cy="233.92" r="196.59"/><path class="cls-7" d="M274.71,429.39a197,197,0,0,1-21.15,1.13C145,430.52,57,342.5,57,233.93s88-196.6,196.59-196.6a197,197,0,0,1,21.15,1.13C176.08,49,99.27,132.5,99.27,233.93S176.08,418.84,274.71,429.39Z"/><circle class="cls-4" cx="253.56" cy="184.13" r="81.69"/><circle class="cls-8" cx="372.81" cy="112.61" r="17.22"/><circle class="cls-8" cx="347.45" cy="87.25" r="12.19"/><circle class="cls-9" cx="253.56" cy="178.81" r="67.99"/><circle class="cls-2" cx="253.56" cy="182.57" r="40.13"/><circle class="cls-10" cx="253.19" cy="182.57" r="30.06"/><circle class="cls-9" cx="271.09" cy="161.89" r="9.38"/><circle class="cls-9" cx="253.19" cy="182.57" r="11.31"/><circle class="cls-4" cx="125.95" cy="258.21" r="51.64"/><circle class="cls-9" cx="125.95" cy="254.85" r="42.98"/><circle class="cls-2" cx="125.95" cy="257.23" r="25.37"/><circle class="cls-10" cx="125.72" cy="257.23" r="19"/><circle class="cls-9" cx="137.04" cy="244.15" r="5.93"/><circle class="cls-9" cx="125.72" cy="257.23" r="7.15"/><circle class="cls-4" cx="381.87" cy="258.21" r="51.64"/><circle class="cls-9" cx="381.87" cy="254.85" r="42.98"/><circle class="cls-2" cx="381.87" cy="257.23" r="25.37"/><circle class="cls-10" cx="381.64" cy="257.23" r="19"/><circle class="cls-9" cx="392.96" cy="244.15" r="5.93"/><circle class="cls-9" cx="381.64" cy="257.23" r="7.15"/><path class="cls-10" d="M323.56,313.35a70.33,70.33,0,0,1-73.63,70.29,69.38,69.38,0,0,1-11.06-1.4A70.62,70.62,0,0,1,183,317.53a73.27,73.27,0,0,1,.14-10.28,5.08,5.08,0,0,1,9.46-2.09,70.91,70.91,0,0,0,33.73,29.33,68.83,68.83,0,0,0,13.39,4,70.25,70.25,0,0,0,24.14.5,69.06,69.06,0,0,0,13.45-3.42,70.75,70.75,0,0,0,36.58-30.44,5.08,5.08,0,0,1,9.46,2.12C323.47,309.27,323.56,311.3,323.56,313.35Z"/><path class="cls-9" d="M264.51,343.19v5.31a12.86,12.86,0,1,1-25.72,0v-5.31a12.75,12.75,0,0,1,.88-4.67,70.25,70.25,0,0,0,24.14.5A12.54,12.54,0,0,1,264.51,343.19Z"/><path class="cls-9" d="M302.9,328.91v5.31a12.86,12.86,0,0,1-25.64,1.38,70.2,70.2,0,0,0,23.28-14.1A12.74,12.74,0,0,1,302.9,328.91Z"/><path class="cls-9" d="M226.28,334.49a12.86,12.86,0,0,1-25.71-.27v-5.31a12.85,12.85,0,0,1,3.64-9A70,70,0,0,0,226.28,334.49Z"/><path class="cls-11" d="M267.52,382.25a70.49,70.49,0,0,1-17.59,1.39,69.38,69.38,0,0,1-11.06-1.4,14.4,14.4,0,0,1,28.65,0Z"/></g></svg>