<svg xmlns="http://www.w3.org/2000/svg" viewBox="0 0 512 512"><defs><style>.cls-1{fill:#f55b4b;}.cls-2{fill:#3165af;}.cls-3{fill:#4f4f74;}.cls-4{fill:#f6c752;}.cls-5{fill:#3586cb;}.cls-6{fill:#366fca;}.cls-7{fill:#fff;}.cls-8{fill:#b0d46c;}.cls-9{fill:#27273d;}.cls-10{fill:#489ad8;}</style></defs><title>50 Monsters Avatar Icons</title><g id="BULINE"><circle class="cls-1" cx="256" cy="256" r="256"/></g><g id="Icons"><path class="cls-2" d="M319.18,477.15a132.69,132.69,0,0,1-2.88,27.7,257.84,257.84,0,0,1-123.24-.65,133,133,0,0,1-2.74-27.05,126.37,126.37,0,0,1,8.9-47.43,100.55,100.55,0,0,1,6.42-13.08,84.11,84.11,0,0,1,4.76-7.3c11.28-15.55,26.45-25.24,43.17-25.67l1.18,0h.55c19.41.23,36.78,12.92,48.48,32.84a100.23,100.23,0,0,1,6.5,13.22A126.37,126.37,0,0,1,319.18,477.15Z"/><path class="cls-3" d="M420.4,130.6a94,94,0,0,1,2.23-23.83,105.65,105.65,0,0,1,7.8-22.34,127.7,127.7,0,0,1,11.81-19.81A156.69,156.69,0,0,1,459.07,45a12,12,0,0,0-7-20.49c-27.22-3.42-49.2-.79-66.92,5.47a103.23,103.23,0,0,0-24.26,12.25,106.83,106.83,0,0,0-29,30.06,127.9,127.9,0,0,0-10.81,20.58,123.39,123.39,0,0,0-8.41,29.33l123.18,59C425.46,163.15,420.94,146.18,420.4,130.6Z"/><path class="cls-4" d="M360.93,42.23l69.5,42.2a127.7,127.7,0,0,1,11.81-19.81L385.19,30A103.23,103.23,0,0,0,360.93,42.23Z"/><path class="cls-4" d="M420.4,130.6a94,94,0,0,1,2.23-23.83L331.94,72.29a127.9,127.9,0,0,0-10.81,20.58Z"/><path class="cls-3" d="M92.31,130.6a94,94,0,0,0-2.23-23.83,105.65,105.65,0,0,0-7.8-22.34A126.92,126.92,0,0,0,70.47,64.62,156.69,156.69,0,0,0,53.64,45a12,12,0,0,1,7-20.49c27.23-3.42,49.2-.79,66.92,5.47a103.31,103.31,0,0,1,24.27,12.25,106.93,106.93,0,0,1,29,30.06,127.9,127.9,0,0,1,10.81,20.58A123.39,123.39,0,0,1,200,122.2l-123.18,59C87.25,163.15,91.77,146.18,92.31,130.6Z"/><ellipse class="cls-5" cx="254.75" cy="271.95" rx="238.35" ry="162.2"/><path class="cls-6" d="M295.94,431.73a347,347,0,0,1-41.19,2.42C123.11,434.15,16.4,361.52,16.4,272s106.71-162.2,238.35-162.2a347,347,0,0,1,41.19,2.42C183.93,125.45,98.78,191.93,98.78,272S183.93,418.45,295.94,431.73Z"/><circle class="cls-7" cx="129.2" cy="208.26" r="47.21"/><circle class="cls-8" cx="129.2" cy="210.87" r="27.86"/><circle class="cls-9" cx="128.94" cy="210.87" r="20.87"/><circle class="cls-7" cx="141.37" cy="196.51" r="6.51"/><circle class="cls-7" cx="128.94" cy="210.87" r="7.85"/><circle class="cls-7" cx="382.01" cy="208.26" r="47.21"/><circle class="cls-8" cx="382.01" cy="210.87" r="27.86"/><circle class="cls-9" cx="381.76" cy="210.87" r="20.87"/><circle class="cls-7" cx="394.18" cy="196.51" r="6.51"/><circle class="cls-7" cx="381.76" cy="210.87" r="7.85"/><circle class="cls-7" cx="204.27" cy="280.39" r="24.91"/><circle class="cls-8" cx="204.27" cy="281.76" r="14.7"/><circle class="cls-9" cx="204.14" cy="281.76" r="11.01"/><circle class="cls-7" cx="210.7" cy="274.18" r="3.43"/><circle class="cls-7" cx="204.14" cy="281.76" r="4.14"/><circle class="cls-7" cx="305.45" cy="280.39" r="24.91"/><circle class="cls-8" cx="305.45" cy="281.76" r="14.7"/><circle class="cls-9" cx="305.31" cy="281.76" r="11.01"/><circle class="cls-7" cx="311.87" cy="274.18" r="3.43"/><circle class="cls-7" cx="305.31" cy="281.76" r="4.14"/><circle class="cls-7" cx="254.75" cy="187.74" r="59.04"/><circle class="cls-8" cx="254.75" cy="191.01" r="34.84"/><circle class="cls-9" cx="254.43" cy="191.01" r="26.1"/><circle class="cls-7" cx="269.97" cy="173.04" r="8.14"/><circle class="cls-7" cx="254.43" cy="191.01" r="9.82"/><circle class="cls-10" cx="464.08" cy="278.08" r="17.88"/><circle class="cls-10" cx="464.08" cy="240.83" r="12.67"/><path class="cls-4" d="M151.79,42.23,82.28,84.43A126.92,126.92,0,0,0,70.47,64.62L127.52,30A103.31,103.31,0,0,1,151.79,42.23Z"/><path class="cls-4" d="M92.31,130.6a94,94,0,0,0-2.23-23.83l90.69-34.48a127.9,127.9,0,0,1,10.81,20.58Z"/><path class="cls-9" d="M292.39,417.88a47.23,47.23,0,0,1-13.05-1.82,90.48,90.48,0,0,0-49.81,0A47.43,47.43,0,1,1,230,325a86.07,86.07,0,0,0,48.91,0,47.43,47.43,0,1,1,13.5,92.9Z"/><path class="cls-7" d="M327.24,338.38c-8.06,14.5-22.64,37.92-22.64,37.92l-20.28-22-29.89,30.21-29.89-30.21-20.26,22s-14.59-23.42-22.66-37.92A47.35,47.35,0,0,1,230,325a86.07,86.07,0,0,0,48.91,0,47.34,47.34,0,0,1,48.35,13.4Z"/></g></svg>