<svg xmlns="http://www.w3.org/2000/svg" viewBox="0 0 512 512"><defs><style>.cls-1{fill:#00b564;}.cls-2{fill:#e88032;}.cls-3{fill:#ce6b29;}.cls-4{fill:#fff;}.cls-5{fill:#27273d;}.cls-6{fill:#ef8c48;}.cls-7{fill:#db1b1b;}</style></defs><title>50 Monsters Avatar Icons</title><g id="BULINE"><circle class="cls-1" cx="256" cy="256" r="256"/></g><g id="Icons"><path class="cls-2" d="M396.58,253c-.82-38-35.22-36.62-35.22-36.62l14.14-14.89c-15.73-4.65-25.53,3-31.1,10.56a100.47,100.47,0,0,0-14.7-20.64,99.68,99.68,0,0,0,25.81-56.1c11,6.67,13.54,21.9,13.68,33.75a3.75,3.75,0,0,0,7.26,1.23c11.12-29.14-8.4-56.45-8.4-56.45,9.38-4,17.12,1.07,22.06,6.2a3.75,3.75,0,0,0,6.47-2.65c-.82-38-35.22-36.63-35.22-36.63L375.5,65.9c-15.73-4.65-25.53,3-31.1,10.56a100.08,100.08,0,0,0-177.06,1C161.92,69.6,152,61,135.51,65.9l14.14,14.88s-34.4-1.4-35.23,36.63a3.75,3.75,0,0,0,6.47,2.65c5-5.13,12.69-10.18,22.06-6.2,0,0-19.52,27.31-8.39,56.45a3.75,3.75,0,0,0,7.26-1.27c.15-12.26,2.86-28.13,14.88-34.38a99.61,99.61,0,0,0,25.88,56.77,100.39,100.39,0,0,0-15.24,21.67c-5.42-7.89-15.39-16.45-31.83-11.59l14.14,14.89s-40.46-1.66-34.67,47.13c0,0,11.45-21.08,28-14.06,0,0-19.52,27.31-8.39,56.45a3.75,3.75,0,0,0,7.26-1.27c.15-12.26,2.86-28.13,14.88-34.38a99.67,99.67,0,0,0,25.88,56.78,100.08,100.08,0,0,0-15.24,21.66c-5.42-7.89-15.39-16.45-31.83-11.59L149.65,352s-34.4-1.41-35.23,36.62a3.75,3.75,0,0,0,6.47,2.65c5-5.12,12.69-10.18,22.06-6.2,0,0-19.52,27.31-8.39,56.45a3.75,3.75,0,0,0,7.26-1.27c.15-12.26,2.86-28.13,14.88-34.38a100.05,100.05,0,0,0,198.81.68c11,6.66,13.54,21.9,13.68,33.74a3.75,3.75,0,0,0,7.26,1.23c11.12-29.14-8.4-56.45-8.4-56.45,9.38-4,17.12,1.08,22.06,6.2a3.75,3.75,0,0,0,6.47-2.65c-.82-38-35.22-36.62-35.22-36.62l14.14-14.89c-15.73-4.64-25.53,3-31.1,10.56A100.47,100.47,0,0,0,329.7,327,99.68,99.68,0,0,0,355.51,271c11,6.66,13.54,21.9,13.68,33.74a3.75,3.75,0,0,0,7.26,1.23c11.12-29.14-8.4-56.45-8.4-56.45,9.38-4,17.12,1.08,22.06,6.2A3.75,3.75,0,0,0,396.58,253Z"/><path class="cls-3" d="M183,264.26c0,96.41,28.84,181.28,72.55,230.63a100,100,0,0,1-98.85-89c-12,6.25-14.72,22.12-14.88,34.38a3.75,3.75,0,0,1-7.26,1.27c-11.12-29.14,8.4-56.45,8.4-56.45-9.38-4-17.12,1.08-22.06,6.2a3.75,3.75,0,0,1-6.47-2.65c.82-38,35.22-36.62,35.22-36.62l-14.14-14.89c16.44-4.86,26.41,3.7,31.84,11.59a100,100,0,0,1,15.23-21.66,99.67,99.67,0,0,1-25.88-56.78c-12,6.25-14.72,22.12-14.88,34.38a3.75,3.75,0,0,1-7.26,1.27c-11.12-29.14,8.4-56.45,8.4-56.45-16.53-7-28,14.06-28,14.06-5.79-48.79,34.67-47.13,34.67-47.13l-14.14-14.89c16.44-4.86,26.41,3.7,31.84,11.59a100.34,100.34,0,0,1,15.23-21.67,99.61,99.61,0,0,1-25.88-56.77c-12,6.25-14.72,22.12-14.88,34.38a3.75,3.75,0,0,1-7.26,1.27c-11.12-29.14,8.4-56.45,8.4-56.45-9.38-4-17.12,1.07-22.06,6.2a3.75,3.75,0,0,1-6.47-2.65c.82-38,35.22-36.63,35.22-36.63L135.51,65.9C152,61,161.92,69.6,167.35,77.49a100,100,0,0,1,88.79-53.92q4.37,0,8.64.37C216,71.34,183,161.2,183,264.26Z"/><circle class="cls-4" cx="255.5" cy="117.57" r="55.32"/><circle class="cls-1" cx="255.5" cy="120.63" r="32.65"/><circle class="cls-5" cx="255.2" cy="120.63" r="24.46"/><circle class="cls-4" cx="269.76" cy="103.8" r="7.63"/><circle class="cls-4" cx="255.2" cy="120.63" r="9.2"/><circle class="cls-4" cx="255.5" cy="259.24" r="55.32"/><circle class="cls-1" cx="255.5" cy="262.3" r="32.65"/><circle class="cls-5" cx="255.2" cy="262.3" r="24.46"/><circle class="cls-4" cx="269.76" cy="245.47" r="7.63"/><circle class="cls-4" cx="255.2" cy="262.3" r="9.2"/><circle class="cls-4" cx="255.5" cy="410.57" r="55.32"/><circle class="cls-1" cx="255.5" cy="413.63" r="32.65"/><circle class="cls-5" cx="255.2" cy="413.63" r="24.46"/><circle class="cls-4" cx="269.76" cy="396.8" r="7.63"/><circle class="cls-4" cx="255.2" cy="413.63" r="9.2"/><circle class="cls-6" cx="332.88" cy="128.36" r="13.91"/><circle class="cls-6" cx="332.88" cy="99.39" r="9.85"/><circle class="cls-6" cx="332.88" cy="265.55" r="13.91"/><circle class="cls-6" cx="332.88" cy="236.58" r="9.85"/><circle class="cls-6" cx="332.88" cy="402.74" r="13.91"/><circle class="cls-6" cx="332.88" cy="373.77" r="9.85"/><path class="cls-5" d="M282.83,336.07c0,2.42-1.55,4.69-4.23,6.58-4.84,3.46-13.38,5.75-23.1,5.75s-18.26-2.29-23.1-5.75c-2.68-1.89-4.23-4.16-4.23-6.58,0-6.81,12.23-12.33,27.33-12.33S282.83,329.26,282.83,336.07Z"/><ellipse class="cls-7" cx="255.5" cy="342.65" rx="23.1" ry="5.75"/></g></svg>