<svg xmlns="http://www.w3.org/2000/svg" viewBox="0 0 512 512"><defs><style>.cls-1{fill:#6fc2e5;}.cls-2{fill:#db1b1b;}.cls-3{fill:#c11e1e;}.cls-4{fill:#fff;}.cls-5{fill:#3586cb;}.cls-6{fill:#27273d;}.cls-7{fill:#e53030;}</style></defs><title>50 Monsters Avatar Icons</title><g id="BULINE"><circle class="cls-1" cx="256" cy="256" r="256"/></g><g id="Icons"><path class="cls-2" d="M370.25,271.8l18.6-35.69a15,15,0,1,0-26.6-13.87l-18.19,34.89a209.93,209.93,0,0,0-73-17.9V88.67a15,15,0,0,0-30,0V239.23A209.25,209.25,0,0,0,166.3,258c-8.12-22.58-23.68-50.94-53.42-72.57a15,15,0,1,0-17.65,24.26c25.93,18.86,38.49,44.78,44.5,63.64-33,23.26-53.64,56.31-53.64,93,0,70.43,76.09,127.52,170,127.52s170-57.09,170-127.52C426,328.8,404.5,295.13,370.25,271.8Z"/><path class="cls-3" d="M377.3,258.42l-7,13.37a176.5,176.5,0,0,0-26.18-14.67l7.66-14.69A168.8,168.8,0,0,1,377.3,258.42Z"/><path class="cls-3" d="M166.38,257.93a173.45,173.45,0,0,0-26.57,15.34c-.75-2.34-1.6-4.8-2.56-7.34-.87-2.29-1.83-4.64-2.9-7A168.34,168.34,0,0,1,160,242.65C162.54,247.93,164.63,253.07,166.38,257.93Z"/><path class="cls-3" d="M271.13,220.81v18.4q-7.41-.48-15-.49c-5,0-10.06.17-15,.49v-18.4c4.94-.32,10-.49,15-.49S266.19,220.49,271.13,220.81Z"/><path class="cls-3" d="M451.38,187.89a57,57,0,0,1-114,0c0-1.93.1-3.83.28-5.71a57,57,0,0,1,113.72,5.71Z"/><circle class="cls-4" cx="394.39" cy="187.22" r="42.98"/><circle class="cls-5" cx="394.39" cy="189.6" r="25.37"/><circle class="cls-6" cx="394.16" cy="189.6" r="19"/><circle class="cls-4" cx="405.47" cy="176.52" r="5.93"/><circle class="cls-4" cx="394.16" cy="189.6" r="7.15"/><path class="cls-3" d="M313.05,84.51a57,57,0,0,1-114,0c0-1.93.1-3.83.28-5.71a57,57,0,0,1,113.72,5.71Z"/><circle class="cls-4" cx="256.06" cy="83.84" r="42.98"/><circle class="cls-5" cx="256.06" cy="86.22" r="25.37"/><circle class="cls-6" cx="255.83" cy="86.22" r="19"/><circle class="cls-4" cx="267.14" cy="73.14" r="5.93"/><circle class="cls-4" cx="255.83" cy="86.22" r="7.15"/><path class="cls-7" d="M438.64,223.8a57,57,0,0,1-101.26-35.91c0-1.93.1-3.83.28-5.71Z"/><path class="cls-3" d="M41.89,167.17a57,57,0,1,0,114,0c0-1.93-.1-3.83-.28-5.71a57,57,0,0,0-113.72,5.71Z"/><circle class="cls-4" cx="98.89" cy="166.51" r="42.98"/><circle class="cls-5" cx="98.89" cy="168.88" r="25.37"/><circle class="cls-6" cx="99.12" cy="168.88" r="19"/><circle class="cls-4" cx="87.81" cy="155.81" r="5.93"/><circle class="cls-4" cx="99.12" cy="168.88" r="7.15"/><path class="cls-7" d="M54.63,203.08a57,57,0,0,0,101.26-35.91c0-1.93-.1-3.83-.28-5.71Z"/><path class="cls-6" d="M399.53,329.2v.6a143.39,143.39,0,0,1-140.9,143.38c-79,1.35-145.42-63.53-145.9-142.5v-1.42c0-10.63,14.1-14.39,19.46-5.21q3.23,5.54,6.94,10.75a143.73,143.73,0,0,0,28.33,29.79c1.28,1,2.58,2,3.9,3a143.36,143.36,0,0,0,30.91,17.28l1,.41a143.91,143.91,0,0,0,105.62,0l1.05-.41a143.49,143.49,0,0,0,30.9-17.27c1.32-1,2.63-2,3.91-3a143.69,143.69,0,0,0,28.33-29.78q3.71-5.22,6.95-10.77C385.42,314.89,399.49,318.6,399.53,329.2Z"/><path class="cls-4" d="M167.46,364.59l-11.09,15.94a4.52,4.52,0,0,1-8.14-1.66l-9.1-44.07A143.73,143.73,0,0,0,167.46,364.59Z"/><path class="cls-4" d="M171.36,367.55a143.36,143.36,0,0,0,30.91,17.28l-15,15.91a4.52,4.52,0,0,1-7.66-1.94Z"/><path class="cls-4" d="M256.13,395.28a143,143,0,0,0,52.81-10l-7.82,36.34a4.52,4.52,0,0,1-7.86,2l-22.13-25.89-10.74,30.2a4.52,4.52,0,0,1-8.52,0l-10.74-30.2L219,423.56a4.52,4.52,0,0,1-7.86-2l-7.83-36.34A143,143,0,0,0,256.13,395.28Z"/><path class="cls-4" d="M310,384.83a143.49,143.49,0,0,0,30.9-17.27l-8.26,31.24a4.52,4.52,0,0,1-7.67,1.94Z"/><path class="cls-4" d="M373.13,334.81,364,378.87a4.52,4.52,0,0,1-8.14,1.66L344.8,364.59A143.69,143.69,0,0,0,373.13,334.81Z"/><circle class="cls-7" cx="354.42" cy="309.59" r="16.28"/><circle class="cls-7" cx="330.44" cy="285.61" r="11.53"/><ellipse class="cls-3" cx="199.05" cy="306.21" rx="17.27" ry="12.9"/><ellipse class="cls-3" cx="264.15" cy="362.82" rx="17.27" ry="12.9"/><ellipse class="cls-3" cx="258.4" cy="313.77" rx="17.27" ry="12.9"/><ellipse class="cls-3" cx="299.04" cy="300.87" rx="10.12" ry="7.56"/><ellipse class="cls-3" cx="226.45" cy="337.84" rx="10.12" ry="7.56"/><ellipse class="cls-3" cx="302.93" cy="337.84" rx="10.12" ry="7.56"/><ellipse class="cls-3" cx="191.9" cy="352.95" rx="10.12" ry="7.56"/></g></svg>