<svg xmlns="http://www.w3.org/2000/svg" viewBox="0 0 512 512"><defs><style>.cls-1{fill:#fcc8bc;}.cls-2{fill:#f7bb38;}.cls-3{fill:#fc4581;}.cls-4{fill:#dd3c76;}.cls-5{fill:#d89e2b;}.cls-6{fill:#f96499;}.cls-7{fill:#fff;}.cls-8{fill:#3586cb;}.cls-9{fill:#27273d;}.cls-10{fill:#db1b1b;}</style></defs><title>50 Monsters Avatar Icons</title><g id="BULINE"><circle class="cls-1" cx="256" cy="256" r="256"/></g><g id="Icons"><path class="cls-2" d="M493.12,304.92l-55-37.47,56.23-71.15a13.8,13.8,0,0,0-8.12-22.09l-81.77-16.37.71-86.42a13.79,13.79,0,0,0-20-12.46L314.81,94.08,271.12,22.79a13.79,13.79,0,0,0-23.53,0L204.23,93.54,134.94,59a13.79,13.79,0,0,0-20,12.46l.69,84.7L25.3,174.21a13.8,13.8,0,0,0-8.12,22.09l64,75.51-54,27.2a9.56,9.56,0,0,0-.78,16.28l64.33,43.8,3.3-95.16,30.13-85.49,95.35-61.29,82.64,1.1,82.49,53,39.9,113.2,3.51-4.44-2.7,77.87,66.91-36.71A9.56,9.56,0,0,0,493.12,304.92Z"/><path class="cls-3" d="M433.53,264.81V440.44a256,256,0,0,1-326.07,24.08A257.89,257.89,0,0,1,78,440V264.81a167.05,167.05,0,0,1,12.39-63.4c.78-1.89,1.58-3.77,2.42-5.62.28-.62.56-1.24.85-1.86,1.15-2.46,2.36-4.88,3.62-7.28A168.4,168.4,0,0,1,106.6,171c.75-1.11,1.52-2.22,2.3-3.31q1.75-2.47,3.59-4.87c.82-1.07,1.65-2.12,2.49-3.17q2.53-3.13,5.2-6.15a168.35,168.35,0,0,1,47.34-37.16c1.2-.63,2.4-1.24,3.61-1.85h0q1.81-.9,3.66-1.77c.62-.29,1.24-.58,1.86-.85,1.85-.84,3.73-1.64,5.62-2.42q1.89-.78,3.81-1.5c1.28-.48,2.56-1,3.85-1.41s2.59-.89,3.9-1.32q5.88-1.91,11.94-3.39c.67-.17,1.34-.33,2-.48a168.21,168.21,0,0,1,37.88-4.29H268c.8,0,1.59,0,2.37.05h.15a167.93,167.93,0,0,1,32.81,4.15c.8.17,1.6.36,2.4.56q6.06,1.48,11.94,3.39c1.13.37,2.26.75,3.39,1.15q5.11,1.77,10.06,3.87c1.25.53,2.5,1.07,3.73,1.63a168.14,168.14,0,0,1,49.57,34.31q4.28,4.26,8.23,8.84c.88,1,1.74,2,2.6,3.07q2.56,3.1,5,6.34c.4.53.8,1.08,1.2,1.62q2.38,3.25,4.6,6.63,3.89,5.91,7.28,12.15c.64,1.19,1.28,2.39,1.89,3.59s1.22,2.42,1.81,3.64q1.33,2.76,2.55,5.56c.28.62.54,1.25.81,1.87.53,1.26,1,2.52,1.55,3.79a166.93,166.93,0,0,1,6.35,19.58c.35,1.34.67,2.69,1,4A168.34,168.34,0,0,1,433.53,264.81Z"/><path class="cls-4" d="M270.35,97.15A167.68,167.68,0,0,0,107.46,264.81V464.52A257.89,257.89,0,0,1,78,440h0V264.81a167.65,167.65,0,0,1,4.78-39.9,165.33,165.33,0,0,1,7.62-23.5c.77-1.89,1.58-3.77,2.42-5.62.28-.62.56-1.24.85-1.86,1.15-2.46,2.35-4.88,3.62-7.28A166.24,166.24,0,0,1,106.6,171c.75-1.11,1.52-2.22,2.3-3.31q1.74-2.47,3.59-4.87c.82-1.07,1.65-2.12,2.49-3.17,1.68-2.09,3.42-4.14,5.2-6.15a168.35,168.35,0,0,1,47.34-37.16c1.2-.63,2.4-1.25,3.61-1.85h0q1.81-.9,3.66-1.77c.62-.29,1.24-.58,1.86-.85q2.79-1.26,5.62-2.42,1.89-.78,3.81-1.5c1.27-.49,2.56-1,3.85-1.41s2.59-.89,3.9-1.32q5.88-1.92,11.94-3.39c.67-.17,1.34-.33,2-.48a168.21,168.21,0,0,1,37.88-4.3h20.13c.72,0,1.45,0,2.17,0S269.57,97.12,270.35,97.15Z"/><polygon class="cls-5" points="77.95 273.45 77.95 350.33 56.74 335.89 56.74 284.15 77.95 273.45"/><path class="cls-5" d="M454.75,278.81v63l-21.22,11.64V264.81A167.73,167.73,0,0,0,265.81,97.08H245.68A167.73,167.73,0,0,0,78,264.81V268L57.48,243.82a186.53,186.53,0,0,1,27-81.47l31.17-6.24-.26-31.79a187.52,187.52,0,0,1,67.9-41.22l20.92,10.44,11.27-18.4a187.22,187.22,0,0,1,29-2.23H267a187.77,187.77,0,0,1,37.07,3.66l10.74,17.51,18.38-9.17a188.22,188.22,0,0,1,71.43,48l-.21,24.91L427,162.36A186.41,186.41,0,0,1,454.26,247l-16.19,20.49Z"/><circle class="cls-6" cx="401.64" cy="259.24" r="17.79"/><circle class="cls-6" cx="401.64" cy="222.17" r="12.6"/><circle class="cls-7" cx="256.12" cy="245.12" r="114.55"/><circle class="cls-8" cx="256.12" cy="251.46" r="67.61"/><circle class="cls-9" cx="255.5" cy="251.46" r="50.65"/><circle class="cls-7" cx="285.65" cy="216.61" r="15.79"/><circle class="cls-7" cx="255.5" cy="251.46" r="19.06"/><path class="cls-9" d="M297.38,416.7a41.64,41.64,0,1,1-18.55-34.63A41.46,41.46,0,0,1,297.38,416.7Z"/><path class="cls-10" d="M289.2,441.49a41.62,41.62,0,0,1-66.91,0,41.87,41.87,0,0,1,10.36-9.86,41.6,41.6,0,0,1,56.55,9.87Z"/><path class="cls-7" d="M278.83,382.07,261,408.76a6.36,6.36,0,0,1-10.58,0c-4.69-7.05-11.73-17.6-17.81-26.68a41.61,41.61,0,0,1,46.18,0Z"/><path class="cls-7" d="M269.7,455.93a41.83,41.83,0,0,1-27.93,0l8.68-13a6.36,6.36,0,0,1,10.58,0C263.44,446.55,266.48,451.11,269.7,455.93Z"/><ellipse class="cls-1" cx="169.1" cy="373.86" rx="27.53" ry="23.45"/><ellipse class="cls-1" cx="346.15" cy="373.86" rx="27.53" ry="23.45"/></g></svg>