<svg xmlns="http://www.w3.org/2000/svg" viewBox="0 0 512 512"><defs><style>.cls-1{fill:#f55b4b;}.cls-2{fill:#b87fe2;}.cls-3{fill:#cd88f8;}.cls-4{fill:#9b6bc6;}.cls-5{fill:#fff;}.cls-6{fill:#3586cb;}.cls-7{fill:#27273d;}.cls-8{fill:#32314b;}.cls-9{fill:#f6c752;}.cls-10{fill:#e88032;}</style></defs><title>50 Monsters Avatar Icons</title><g id="BULINE"><circle class="cls-1" cx="256" cy="256" r="256"/></g><g id="Icons"><path class="cls-2" d="M300.67,407.27V508.11a258.47,258.47,0,0,1-87.84.26V407.27Z"/><path class="cls-3" d="M348.8,167.36,286.75,63.71a34.09,34.09,0,0,0-58.5,0L166.48,166.89c-15.5,25.9-39.11,45.73-66.84,57.64a96,96,0,0,0-58.13,89.74c.77,50.58,41.27,92.26,91.81,94.41q4.37.18,8.64,0a73.2,73.2,0,0,1,51.94,18.5,96,96,0,0,0,126.7.44,76.52,76.52,0,0,1,51.95-18.86c1.74,0,3.5,0,5.26,0,50.55-1.7,91.43-43,92.66-93.54a96,96,0,0,0-55.94-89.68C387.31,213,364.18,193.06,348.8,167.36Z"/><path class="cls-4" d="M300.67,441V465.3a96.12,96.12,0,0,1-87.84-.77V440.26a96.16,96.16,0,0,0,87.84.78Z"/><path class="cls-2" d="M281,448.36a96.1,96.1,0,0,1-87.11-21.18A73.17,73.17,0,0,0,142,408.67q-4.28.19-8.64,0c-50.54-2.15-91-43.83-91.81-94.41a96,96,0,0,1,58.13-89.74c27.73-11.91,51.34-31.74,66.84-57.63L228.25,63.71A34.13,34.13,0,0,1,281,56.47a34.54,34.54,0,0,0-5.75,7.24L213.48,166.9c-15.5,25.89-39.11,45.72-66.84,57.63a96,96,0,0,0-58.13,89.74c.77,50.58,41.27,92.26,91.81,94.41q4.37.18,8.64,0a73.17,73.17,0,0,1,51.94,18.51A95.63,95.63,0,0,0,281,448.36Z"/><path class="cls-2" d="M255.54,361.76A259.63,259.63,0,0,1,70.75,285.21,6.5,6.5,0,0,1,79.94,276c96.83,96.83,254.38,96.83,351.21,0a6.5,6.5,0,0,1,9.19,9.19A259.64,259.64,0,0,1,255.54,361.76Z"/><circle class="cls-5" cx="256" cy="218.82" r="84.66"/><circle class="cls-6" cx="256" cy="223.51" r="49.96"/><circle class="cls-7" cx="255.54" cy="223.51" r="37.43"/><circle class="cls-5" cx="277.83" cy="197.75" r="11.67"/><circle class="cls-5" cx="255.54" cy="223.51" r="14.08"/><path class="cls-5" d="M81.75,277.77l15.37,60.89a5.53,5.53,0,0,0,9.58,2.22l25-29.61Z"/><path class="cls-5" d="M428.91,277.77l-15.37,60.89a5.53,5.53,0,0,1-9.58,2.22l-25-29.61Z"/><path class="cls-5" d="M141.08,317.94l18.28,48.54a5.52,5.52,0,0,0,9.12,1.91l29.94-30.62Z"/><path class="cls-5" d="M369.32,317.94l-18.27,48.54a5.53,5.53,0,0,1-9.13,1.91L312,337.77Z"/><path class="cls-8" d="M255.54,349.09A259.59,259.59,0,0,1,70.75,272.54a6.5,6.5,0,0,1,9.19-9.19c96.83,96.83,254.38,96.83,351.21,0a6.5,6.5,0,0,1,9.19,9.19A259.6,259.6,0,0,1,255.54,349.09Z"/><path class="cls-9" d="M339.5,119.32c37.35-10.53,86.55-36.95,95.15-103.21a3.4,3.4,0,0,1,6.62-.55C451,47.7,461.13,124.9,352,160.35a21.43,21.43,0,0,1-20.42-4h0C318.49,145.24,323,124,339.5,119.32Z"/><path class="cls-9" d="M173.68,119.32C136.33,108.79,87.13,82.37,78.53,16.11a3.39,3.39,0,0,0-6.61-.55C62.22,47.7,52.05,124.9,161.18,160.35a21.43,21.43,0,0,0,20.42-4h0C194.69,145.24,190.18,124,173.68,119.32Z"/><rect class="cls-8" x="156.96" y="124.6" width="199.57" height="32.83" rx="16.42"/><circle class="cls-10" cx="335.08" cy="288.89" r="11.12"/><circle class="cls-10" cx="369.32" cy="285.96" r="8.19"/><circle class="cls-10" cx="361.13" cy="253.4" r="15.81"/><circle class="cls-10" cx="176.91" cy="288.89" r="11.12"/><circle class="cls-10" cx="142.67" cy="285.96" r="8.19"/><circle class="cls-10" cx="150.86" cy="253.4" r="15.81"/></g></svg>