<svg xmlns="http://www.w3.org/2000/svg" viewBox="0 0 512 512"><defs><style>.cls-1{fill:#f7bb38;}.cls-2{fill:#3e436d;}.cls-3{fill:#32314b;}.cls-4{fill:#4f4f74;}.cls-5{fill:#366fca;}.cls-6{fill:#fff;}.cls-7{fill:#b0d46c;}.cls-8{fill:#27273d;}.cls-9{fill:#db1b1b;}</style></defs><title>50 Monsters Avatar Icons</title><g id="BULINE"><circle class="cls-1" cx="256" cy="256" r="256"/></g><g id="Icons"><path class="cls-2" d="M428.14,254.4v13H456a19.52,19.52,0,1,1,0,39H428.14V445.49a255.86,255.86,0,0,1-342,2h0V306.38h-26a19.52,19.52,0,0,1-11.69-35.15h0c.5-.37,1-.72,1.55-1h0a18.61,18.61,0,0,1,1.65-.89,19.11,19.11,0,0,1,2.93-1.13,12.84,12.84,0,0,1,1.39-.35,2.24,2.24,0,0,1,.39-.08,14.55,14.55,0,0,1,1.63-.25,18.74,18.74,0,0,1,2.13-.12h26v-13h-26a19.52,19.52,0,0,1-5.81-38.15h0a14.08,14.08,0,0,1,1.86-.48h0a17.44,17.44,0,0,1,1.92-.3,19.05,19.05,0,0,1,2-.1h26c0-1.09,0-2.18,0-3.26.07-3.26.22-6.49.47-9.69H60.07a19.52,19.52,0,1,1,0-39H91a19.49,19.49,0,0,1,3.18.28c.35-1.08.7-2.15,1.07-3.22a167.64,167.64,0,0,1,9.14-21.67c.51-1,1-2,1.55-3q2.34-4.43,4.93-8.69a0,0,0,0,0,0,0q2.5-4.11,5.23-8.07c.69-1,1.4-2,2.11-3a170.54,170.54,0,0,1,10.92-13.63c1.26-1.43,2.56-2.85,3.87-4.24q2.29-2.4,4.65-4.71c.8-.78,1.6-1.54,2.4-2.29q2.41-2.26,4.91-4.44t5.09-4.25q2.58-2.07,5.25-4t5.41-3.85c.86-.59,1.73-1.17,2.6-1.75l.16-.1c.93-.61,1.86-1.21,2.8-1.8s1.89-1.17,2.84-1.74c1.8-1.09,3.62-2.13,5.46-3.15.24-.13.48-.27.72-.39.85-.47,1.69-.92,2.55-1.37s2-1,3-1.52c.83-.42,1.67-.83,2.51-1.23l.82-.39c.78-.37,1.57-.73,2.36-1.08q2.49-1.14,5-2.18L193.7,57q2.36-.93,4.73-1.8l2-.73.67-.23,2-.68c1.57-.53,3.16-1,4.75-1.5l2.35-.68.13,0c1.57-.44,3.14-.86,4.72-1.26.87-.22,1.75-.42,2.62-.63l2.09-.48,3.15-.68.9-.17A171.17,171.17,0,0,1,420.13,164a19.62,19.62,0,0,1,4.94-.65h31a19.52,19.52,0,1,1,0,39H427.61q.5,6.41.52,13H456a19.52,19.52,0,1,1,0,39Z"/><path class="cls-3" d="M164.85,344.08c4.34,60.4,17.69,115.91,37.62,162.31a255.24,255.24,0,0,1-116.38-58.9V306.38h-26a19.52,19.52,0,0,1-11.69-35.15h0a18.21,18.21,0,0,1,1.55-1h0a18.61,18.61,0,0,1,1.65-.89,19.11,19.11,0,0,1,2.93-1.13,12.84,12.84,0,0,1,1.39-.35,2.24,2.24,0,0,1,.39-.08,14.55,14.55,0,0,1,1.63-.25,18.74,18.74,0,0,1,2.13-.12h26v-13h-26a19.52,19.52,0,0,1-5.81-38.15h0a18.08,18.08,0,0,1,1.86-.48h0q.95-.2,1.92-.3a19.05,19.05,0,0,1,2-.1h26c0-1.09,0-2.18,0-3.26q.11-4.89.48-9.69H60.07a19.52,19.52,0,1,1,0-39H91a19.49,19.49,0,0,1,3.18.28c.35-1.08.7-2.15,1.07-3.22a171.1,171.1,0,0,1,9.14-21.67c.51-1,1-2,1.55-3q2.34-4.43,4.93-8.69a0,0,0,0,0,0,0q2.5-4.11,5.23-8.07c.69-1,1.4-2,2.11-3a170.54,170.54,0,0,1,10.92-13.63c1.26-1.43,2.56-2.85,3.87-4.24q2.29-2.4,4.65-4.71c.8-.78,1.6-1.54,2.4-2.29q2.41-2.28,4.91-4.44t5.09-4.25q2.58-2.09,5.25-4.06t5.41-3.84c.86-.59,1.73-1.17,2.6-1.75l.16-.1c.93-.61,1.86-1.21,2.8-1.8s1.89-1.17,2.84-1.74q2.7-1.64,5.46-3.15c.24-.13.48-.27.72-.39.85-.47,1.69-.92,2.55-1.37s2-1,3-1.52c.83-.42,1.67-.83,2.51-1.23l.82-.39c.78-.37,1.57-.73,2.36-1.08q2.49-1.14,5-2.18L193.7,57q2.36-.93,4.73-1.8l2-.73.67-.23,2-.68c1.57-.52,3.16-1,4.75-1.5l2.35-.68.13,0a169.89,169.89,0,0,1,17.11-3.9c-19.71,31.36-35.75,69.62-46.86,112.6q-2.84,11-5.24,22.38c-.51,2.41-1,4.83-1.48,7.27q-1.33,6.78-2.51,13.68Q170.09,211,169,218.78q-1,6.84-1.77,13.78c-.28,2.43-.55,4.86-.8,7.31q-.9,8.69-1.54,17.53-1,13.58-1.35,27.48-.22,8-.22,16.05Q163.31,322.85,164.85,344.08Z"/><circle class="cls-4" cx="400.85" cy="347.53" r="18.38"/><circle class="cls-4" cx="400.85" cy="309.24" r="13.02"/><path class="cls-5" d="M141.21,114.44l-35.1-35.1A41.44,41.44,0,1,0,90.08,93l36.3,36.3a10.48,10.48,0,0,0,14.83,0h0A10.48,10.48,0,0,0,141.21,114.44Z"/><path class="cls-5" d="M370.79,114.44l35.1-35.1a41.44,41.44,0,1,1,16,13.63l-36.3,36.3a10.48,10.48,0,0,1-14.83,0h0A10.48,10.48,0,0,1,370.79,114.44Z"/><circle class="cls-6" cx="167.81" cy="207.92" r="49.56"/><circle class="cls-7" cx="167.81" cy="210.66" r="29.25"/><circle class="cls-8" cx="167.55" cy="210.66" r="21.91"/><circle class="cls-6" cx="180.59" cy="195.59" r="6.83"/><circle class="cls-6" cx="167.55" cy="210.66" r="8.24"/><circle class="cls-6" cx="342.34" cy="207.92" r="49.56"/><circle class="cls-7" cx="342.34" cy="210.66" r="29.25"/><circle class="cls-8" cx="342.07" cy="210.66" r="21.91"/><circle class="cls-6" cx="355.12" cy="195.59" r="6.83"/><circle class="cls-6" cx="342.07" cy="210.66" r="8.24"/><path class="cls-8" d="M366.77,284.88v6.34a93.93,93.93,0,0,1-93.94,93.94H242.51a93.92,93.92,0,0,1-93.93-93.94v-6.34Z"/><path class="cls-9" d="M344.79,351.61a93.74,93.74,0,0,1-72,33.55H242.51a93.74,93.74,0,0,1-72-33.55,93.67,93.67,0,0,1,72-33.56h30.32A93.67,93.67,0,0,1,344.79,351.61Z"/><path class="cls-6" d="M187.42,284.71h29.95a0,0,0,0,1,0,0v9.55a15,15,0,0,1-15,15h0a15,15,0,0,1-15-15v-9.55a0,0,0,0,1,0,0Z"/><path class="cls-6" d="M298.12,284.71h29.95a0,0,0,0,1,0,0v9.55a15,15,0,0,1-15,15h0a15,15,0,0,1-15-15v-9.55A0,0,0,0,1,298.12,284.71Z"/></g></svg>