<svg xmlns="http://www.w3.org/2000/svg" viewBox="0 0 512 512"><defs><style>.cls-1{fill:#f55b4b;}.cls-2{fill:#a4c165;}.cls-3{fill:#94aa57;}.cls-4{fill:#b0d46c;}.cls-5{fill:#c8e589;}.cls-6{fill:#fff;}.cls-7{fill:#3586cb;}.cls-8{fill:#27273d;}.cls-9{fill:#41c0e3;}.cls-10{fill:#db1b1b;}</style></defs><title>50 Monsters Avatar Icons</title><g id="BULINE"><circle class="cls-1" cx="256" cy="256" r="256"/></g><g id="Icons"><path class="cls-2" d="M290.19,377.49V509.73a259,259,0,0,1-72.93-.64V377.49Z"/><rect class="cls-3" x="217.64" y="377.49" width="72.93" height="34.5"/><path class="cls-4" d="M503.5,195.72c-6.5-70.93-53.08-57.92-53.08-57.92.92-14.91,28.71-30.38,28.71-30.38-40.63-3-56.87,14.26-56.87,14.26l4.33-26.36c-41,7.55-45.63,42.24-45.75,56.53h-250c-.12-14.29-4.72-49-45.75-56.53l4.33,26.36s-16.24-17.31-56.87-14.26c0,0,27.79,15.47,28.71,30.38,0,0-46.58-13-53.08,57.92l19.5-15.14s-22.21,48.51-8.67,86.24c0,0,11.42-51.84,39.54-56.51V344.17A37.63,37.63,0,0,0,96.22,381.8H412a37.63,37.63,0,0,0,37.63-37.63V210c30.69.7,43.05,56.83,43.05,56.83,13.54-37.73-8.67-86.24-8.67-86.24Z"/><path class="cls-5" d="M85.13,119.52l4.33,26.35s-8.73-9.3-29.4-13.07c-5.55-13.17-27.47-25.38-27.47-25.38,32.75-2.46,49.66,8.32,55,12.59C86.76,119.84,86,119.67,85.13,119.52Z"/><path class="cls-5" d="M422.48,120.4c-24.2,5.88-34.48,21.79-38.75,36a27.27,27.27,0,0,1-26,19.64H154a27.28,27.28,0,0,1-26-19.64c-4.26-14.21-14.55-30.12-38.74-36L85.13,95.32c41,7.55,45.63,42.24,45.75,56.53h250c.12-14.29,4.72-49,45.75-56.53Z"/><path class="cls-5" d="M479.13,107.42s-21.92,12.21-27.47,25.38c-20.67,3.77-29.4,13.07-29.4,13.07l4.33-26.35c-.82.15-1.63.32-2.44.49C429.47,115.74,446.38,105,479.13,107.42Z"/><circle class="cls-2" cx="254.11" cy="235.41" r="68.22"/><circle class="cls-2" cx="371.66" cy="266.82" r="48.03"/><circle class="cls-2" cx="136.72" cy="266.82" r="48.03"/><circle class="cls-6" cx="254.11" cy="235.41" r="57.39"/><circle class="cls-7" cx="254.11" cy="237.99" r="20.58"/><circle class="cls-8" cx="253.92" cy="237.99" r="15.42"/><circle class="cls-6" cx="263.1" cy="227.38" r="4.81"/><circle class="cls-6" cx="253.92" cy="237.99" r="5.8"/><circle class="cls-6" cx="371.66" cy="265.44" r="35.64"/><circle class="cls-7" cx="371.66" cy="267.04" r="12.78"/><circle class="cls-8" cx="371.54" cy="267.04" r="9.58"/><circle class="cls-6" cx="377.24" cy="260.45" r="2.99"/><circle class="cls-6" cx="371.54" cy="267.04" r="3.6"/><circle class="cls-6" cx="136.83" cy="265.44" r="35.64"/><circle class="cls-7" cx="136.83" cy="267.04" r="12.78"/><circle class="cls-8" cx="136.72" cy="267.04" r="9.58"/><circle class="cls-6" cx="142.42" cy="260.45" r="2.99"/><circle class="cls-6" cx="136.72" cy="267.04" r="3.6"/><path class="cls-8" d="M301.67,324.36c0,.62,0,1.25,0,1.86a47.76,47.76,0,0,1-95.48-1.71v-.16a4.62,4.62,0,0,1,8.41-2.54,46,46,0,0,0,2.89,3.78,47.68,47.68,0,0,0,24.07,15.29,46.53,46.53,0,0,0,7.69,1.39,45.79,45.79,0,0,0,4.7.24,47.83,47.83,0,0,0,39.34-20.7A4.62,4.62,0,0,1,301.67,324.36Z"/><path class="cls-6" d="M241.53,340.88c-2.25,6.68-6.46,11.17-11.25,11.17-7.2,0-13-10.06-13-22.48a36.82,36.82,0,0,1,.2-4A47.68,47.68,0,0,0,241.53,340.88Z"/><path class="cls-6" d="M267.62,346.05c0,8.89-4.18,16.1-9.33,16.1s-9.33-7.21-9.33-16.1a27.25,27.25,0,0,1,.26-3.78,45.79,45.79,0,0,0,4.7.24,47.3,47.3,0,0,0,13.17-1.85A26.63,26.63,0,0,1,267.62,346.05Z"/><path class="cls-6" d="M290.19,337.92c0,6.65-3.13,12.05-7,12.05s-7-5.4-7-12.05c0-.32,0-.64,0-.95a47.62,47.62,0,0,0,11.36-8.39A16.48,16.48,0,0,1,290.19,337.92Z"/><path class="cls-9" d="M181.14,381.8H96.22a37.63,37.63,0,0,1-37.63-37.63v-3l21.51-8.13a15.23,15.23,0,0,1,18.44,6.38l10.06,16.7,5.05-4.56a15.23,15.23,0,0,1,23.13,3.22l12.84,20.51s15.31-15.88,18.19-13C169.31,363.83,175.53,373.19,181.14,381.8Z"/><path class="cls-9" d="M449.62,341.43v2.74A37.63,37.63,0,0,1,412,381.8H326.46c5.6-8.61,11.82-18,13.33-19.48,2.89-2.88,18.19,13,18.19,13l12.84-20.51A15.24,15.24,0,0,1,394,351.58l5.05,4.57,10.05-16.69a15.22,15.22,0,0,1,18.44-6.39Z"/><ellipse class="cls-10" cx="254.11" cy="319.58" rx="24.95" ry="9.28"/></g></svg>