<svg xmlns="http://www.w3.org/2000/svg" viewBox="0 0 512 512"><defs><style>.cls-1{fill:#7cc8fb;}.cls-2{fill:#00b564;}.cls-3{fill:#04a055;}.cls-4{fill:#e88032;}.cls-5{fill:#d1702f;}.cls-6{fill:#27273d;}.cls-7{fill:#fff;}.cls-8{fill:#db1b1b;}.cls-9{fill:#4acc97;}.cls-10{fill:#3586cb;}</style></defs><title>50 Monsters Avatar Icons</title><g id="BULINE"><circle class="cls-1" cx="256" cy="256" r="256"/></g><g id="Icons"><path class="cls-2" d="M463,292.59c0,76.22-32.1,144-81.82,186.76a256.87,256.87,0,0,1-167.35,29.19h0a254.08,254.08,0,0,1-79.57-27.29c-.81-.44-1.62-.88-2.42-1.33-50.1-42.77-82.49-110.76-82.49-187.33,0-45.32,11.35-87.63,31-123.49h0q3.34-6.1,7-11.94a226.17,226.17,0,0,1,39.43-47.43A204.65,204.65,0,0,1,169,80q4.26-2.25,8.62-4.28a187.7,187.7,0,0,1,30.46-11.13c3.09-.83,6.2-1.59,9.34-2.26a183.49,183.49,0,0,1,34-4c1.59,0,3.19-.07,4.79-.07h2.67c.71,0,1.42,0,2.12,0q7.26.18,14.39.93,8.89.91,17.55,2.69,4.72.95,9.36,2.15A188.23,188.23,0,0,1,333,74.87q4.38,2,8.65,4.18a204.45,204.45,0,0,1,43.81,30.52q5.06,4.59,9.84,9.52A231.45,231.45,0,0,1,431.9,168.9C451.62,204.8,463,247.19,463,292.59Z"/><path class="cls-3" d="M261,61.24c-3.22.59-6.41,1.27-9.58,2a188.33,188.33,0,0,0-32,10.81q-4.54,2-9,4.25a200.13,200.13,0,0,0-25.58,15.43q-4.05,2.86-8,5.94a218.08,218.08,0,0,0-36,35.79A235.38,235.38,0,0,0,115.45,175,257.62,257.62,0,0,0,87.58,292.59c0,97.06,52.06,180.35,126.25,216a254.08,254.08,0,0,1-79.57-27.29C83.27,438.56,50.2,370,50.2,292.59c0-45.13,11.25-87.28,30.75-123h0q3.29-6.06,6.91-11.86a226.53,226.53,0,0,1,39.36-47.61,205.16,205.16,0,0,1,41.93-29.75q4.26-2.27,8.61-4.31a188,188,0,0,1,30.36-11.24q4.62-1.28,9.33-2.31a184,184,0,0,1,33.93-4.19q2.81-.09,5.64-.09h1.82l2.12,0c5,.1,9.89.4,14.75.91l-.36,0Q268.08,59.93,261,61.24Z"/><path class="cls-4" d="M65.77,43.78C71,57.27,86.14,87.59,121.2,106.1a37.59,37.59,0,0,1,16.71,48.38h0a37.72,37.72,0,0,1-58.73,13.69C48.49,142.62,18.3,99.41,58.94,42.9A3.92,3.92,0,0,1,65.77,43.78Z"/><path class="cls-5" d="M113.46,175.6a37.7,37.7,0,0,1-34.28-7.43C48.49,142.62,18.3,99.41,59,42.9a3.92,3.92,0,0,1,6.82.88,115.65,115.65,0,0,0,5.31,11.63C43,105.8,70.92,144.54,99.3,168.17A37.63,37.63,0,0,0,113.46,175.6Z"/><path class="cls-4" d="M446.23,43.78C441,57.27,425.86,87.59,390.8,106.1a37.59,37.59,0,0,0-16.71,48.38h0a37.72,37.72,0,0,0,58.73,13.69c30.69-25.55,60.88-68.76,20.24-125.27A3.92,3.92,0,0,0,446.23,43.78Z"/><path class="cls-5" d="M392.62,154.49a37.32,37.32,0,0,0,25.25,21.33,37.76,37.76,0,0,1-43.78-21.33A37.6,37.6,0,0,1,390.8,106.1C425.87,87.59,441,57.27,446.23,43.78a3.92,3.92,0,0,1,6.83-.88,129.08,129.08,0,0,1,7.15,11,120.11,120.11,0,0,1-50.89,52.16A37.6,37.6,0,0,0,392.62,154.49Z"/><path class="cls-6" d="M382.55,409.51a64.77,64.77,0,0,1-19.05,46,65,65,0,0,1-46,19H197.42a65,65,0,1,1,0-130H317.54a65,65,0,0,1,65,65Z"/><path class="cls-7" d="M368.53,369.19,329,402.08a9.17,9.17,0,0,1-14.07-3l-9.28-18.78a9.15,9.15,0,0,0-14.48-2.59l-27.46,25.85a9.12,9.12,0,0,1-12.54,0l-27.46-25.85a9.15,9.15,0,0,0-14.48,2.59L200,399.11a9.15,9.15,0,0,1-14.06,3l-39.49-32.89a64.1,64.1,0,0,1,5-5.65,64.76,64.76,0,0,1,46-19H317.54A64.87,64.87,0,0,1,368.53,369.19Z"/><path class="cls-8" d="M352,464.63a64.55,64.55,0,0,1-34.45,9.88H197.42A64.59,64.59,0,0,1,163,464.63c22.93-11.75,56.78-19.17,94.52-19.17S329.06,452.88,352,464.63Z"/><circle class="cls-9" cx="126.62" cy="270.87" r="13.1"/><circle class="cls-9" cx="126.62" cy="314.32" r="13.1"/><circle class="cls-9" cx="152.04" cy="292.59" r="10.92"/><circle class="cls-9" cx="101.56" cy="292.59" r="10.92"/><circle class="cls-9" cx="382.37" cy="270.87" r="13.1"/><circle class="cls-9" cx="382.37" cy="314.32" r="13.1"/><circle class="cls-9" cx="407.79" cy="292.59" r="10.92"/><circle class="cls-9" cx="357.31" cy="292.59" r="10.92"/><path class="cls-6" d="M256.18,118.32a4.79,4.79,0,0,1-4.79-4.79V31.11a4.79,4.79,0,0,1,9.58,0v82.42A4.78,4.78,0,0,1,256.18,118.32Z"/><path class="cls-6" d="M221.94,122.7a4.78,4.78,0,0,1-4.72-4l-13.7-81.28A4.79,4.79,0,1,1,213,35.84l13.7,81.27a4.8,4.8,0,0,1-3.93,5.53A5.49,5.49,0,0,1,221.94,122.7Z"/><path class="cls-6" d="M196.74,141.44a4.78,4.78,0,0,1-4.45-3L161.8,61.84a4.8,4.8,0,0,1,8.91-3.55l30.48,76.58a4.79,4.79,0,0,1-4.45,6.57Z"/><path class="cls-6" d="M288.33,122.7a5.39,5.39,0,0,1-.8-.06,4.8,4.8,0,0,1-3.93-5.53l13.7-81.27a4.79,4.79,0,0,1,9.45,1.59l-13.7,81.28A4.79,4.79,0,0,1,288.33,122.7Z"/><path class="cls-6" d="M313.53,141.44a4.79,4.79,0,0,1-4.45-6.57l30.48-76.58a4.79,4.79,0,1,1,8.9,3.55L318,138.42A4.78,4.78,0,0,1,313.53,141.44Z"/><circle class="cls-7" cx="256.18" cy="216.24" r="107.11"/><circle class="cls-10" cx="256.18" cy="222.17" r="63.22"/><circle class="cls-6" cx="255.61" cy="222.17" r="47.36"/><circle class="cls-7" cx="283.8" cy="189.58" r="14.77"/><circle class="cls-7" cx="255.61" cy="222.17" r="17.82"/></g></svg>