<svg xmlns="http://www.w3.org/2000/svg" viewBox="0 0 512 512"><defs><style>.cls-1{fill:#fcc8bc;}.cls-2{fill:#aa60fa;}.cls-3{fill:#9557e5;}.cls-4{fill:#8548e5;}.cls-5{fill:#6432c6;}.cls-6{fill:#934cf5;}.cls-7{fill:#783adb;}.cls-8{fill:#fff;}.cls-9{fill:#27273d;}.cls-10{fill:#e88032;}.cls-11{fill:#d6702b;}.cls-12{fill:#ef9f6a;}.cls-13{fill:#db1b1b;}.cls-14{fill:#b57efc;}</style></defs><title>50 Monsters Avatar Icons</title><g id="BULINE"><circle class="cls-1" cx="256" cy="256" r="256"/></g><g id="Icons"><path class="cls-2" d="M455.31,292.35h0a1.56,1.56,0,0,0,1.93-2c-9.54-26-30.38-32.66-37.51-34.22a1.56,1.56,0,0,1-.69-2.69c4.52-3.85,14.31-3.66,17.92-3.44a1.56,1.56,0,0,0,1.63-1.31c2.16-13.86-4.82-41.61-8.13-53.63a1.55,1.55,0,0,1,2.6-1.5l2.11,2.11a1.57,1.57,0,0,0,2.66-1c5-49.18-29-72.88-43.25-80.57a1.55,1.55,0,0,1,.74-2.92h8.42a1.57,1.57,0,0,0,1.26-2.48c-30.49-42.45-81.8-41.82-94.33-41a1.56,1.56,0,0,1-1.49-2.28l9-17.07a1.56,1.56,0,0,0-1.32-2.29C278.15,44.49,261.53,61,257.2,66.37a1.54,1.54,0,0,1-2.4,0c-4.33-5.34-21-21.88-59.7-20.26a1.56,1.56,0,0,0-1.32,2.29l9,17.07a1.56,1.56,0,0,1-1.49,2.28c-12.53-.85-63.84-1.48-94.33,41a1.57,1.57,0,0,0,1.26,2.48h8.42a1.55,1.55,0,0,1,.74,2.92c-14.27,7.69-48.27,31.39-43.25,80.57a1.57,1.57,0,0,0,2.66,1l2.11-2.11a1.55,1.55,0,0,1,2.6,1.5c-3.31,12-10.29,39.77-8.13,53.63A1.56,1.56,0,0,0,75,250c3.61-.22,13.4-.41,17.92,3.44a1.56,1.56,0,0,1-.69,2.69c-7.13,1.56-28,8.22-37.51,34.22a1.56,1.56,0,0,0,1.93,2h0a1.56,1.56,0,0,1,1.44,2.7c-12.69,10-33.38,32.57-20.88,66.95a1.57,1.57,0,0,0,2.52.64L41,361.53a1.55,1.55,0,0,1,2.53.7c3.3,10.87,20.34,56.64,80.95,91.77a1.59,1.59,0,0,0,1.78-.15l7.54-6.27a1.55,1.55,0,0,1,2.2.22c4.56,5.58,25,28.77,59.59,41a1.56,1.56,0,0,0,2-1.87l-3.51-13.07a1.55,1.55,0,0,1,2.52-1.57c6.92,5.91,23.9,17.2,59,25.23a1.75,1.75,0,0,0,.72,0c35.09-8,52.07-19.32,59-25.23a1.55,1.55,0,0,1,2.52,1.57l-3.51,13.07a1.56,1.56,0,0,0,2,1.87c34.57-12.24,55-35.43,59.59-41a1.55,1.55,0,0,1,2.2-.22l7.54,6.27a1.59,1.59,0,0,0,1.78.15c60.61-35.13,77.65-80.9,80.95-91.77a1.55,1.55,0,0,1,2.53-.7l1.24,1.11a1.57,1.57,0,0,0,2.52-.64c12.5-34.38-8.19-56.95-20.88-66.95A1.56,1.56,0,0,1,455.31,292.35Z"/><path class="cls-3" d="M248,472.3c5,4.26,15.22,11.31,33.68,17.93a224.39,224.39,0,0,1-25.31,7.3,1.75,1.75,0,0,1-.72,0c-35.08-8-52.06-19.32-59-25.23a1.55,1.55,0,0,0-2.52,1.58L197.64,487a1.55,1.55,0,0,1-2,1.86c-34.58-12.24-55-35.43-59.6-41a1.56,1.56,0,0,0-2.2-.21l-7.53,6.25a1.59,1.59,0,0,1-1.79.16c-60.61-35.13-77.65-80.89-80.95-91.77a1.56,1.56,0,0,0-2.53-.71l-1.24,1.13a1.58,1.58,0,0,1-2.52-.65c-12.5-34.38,8.2-56.95,20.88-66.95a1.55,1.55,0,0,0-1.44-2.7,1.57,1.57,0,0,1-1.94-2c9.55-26,30.39-32.67,37.52-34.21a1.56,1.56,0,0,0,.69-2.7c-4.51-3.85-14.3-3.67-17.91-3.44a1.56,1.56,0,0,1-1.64-1.32c-2.16-13.85,4.82-41.6,8.14-53.62a1.55,1.55,0,0,0-2.6-1.51l-2.11,2.11a1.57,1.57,0,0,1-2.67-.95c-5-49.18,29-72.88,43.26-80.57a1.56,1.56,0,0,0-.75-2.92h-8.42a1.57,1.57,0,0,1-1.26-2.48c30.49-42.44,81.8-41.81,94.34-41a1.55,1.55,0,0,0,1.48-2.27l-9-17.08a1.56,1.56,0,0,1,1.32-2.28c37.3-1.56,54.09,13.71,59.16,19.62a1.55,1.55,0,0,1-1.59,2c-12.53-.83-63.84-1.46-94.34,41a1.57,1.57,0,0,0,1.26,2.48H168a1.56,1.56,0,0,1,.75,2.92c-14.27,7.69-48.27,31.39-43.25,80.57a1.56,1.56,0,0,0,2.65.95l2.11-2.11a1.55,1.55,0,0,1,2.6,1.51c-3.31,12-10.28,39.77-8.12,53.62a1.55,1.55,0,0,0,1.63,1.32c3.61-.23,13.4-.41,17.91,3.44a1.56,1.56,0,0,1-.68,2.7c-7.14,1.54-28,8.21-37.52,34.21a1.56,1.56,0,0,0,1.94,2,1.51,1.51,0,0,1,.5-.09,1.57,1.57,0,0,1,.94,2.79C96.79,305.05,76.1,327.62,88.6,362a1.57,1.57,0,0,0,2.51.65l1.24-1.13a1.56,1.56,0,0,1,2.53.71c3.31,10.88,20.35,56.64,81,91.77a1.59,1.59,0,0,0,1.79-.16l7.54-6.25a1.55,1.55,0,0,1,2.19.21c4.56,5.58,25,28.77,59.6,41a1.56,1.56,0,0,0,2-1.86l-3.52-13.07A1.55,1.55,0,0,1,248,472.3Z"/><path class="cls-4" d="M86.05,56.94c17.9,6.61,60.61,27.78,67,81a8.28,8.28,0,0,1-6.49,9.1C121.46,152.41,40.64,162.63,75.43,62A8.23,8.23,0,0,1,86.05,56.94Z"/><path class="cls-5" d="M96.12,87.58c10.37,3.82,35.09,16.08,38.77,46.9a4.8,4.8,0,0,1-3.76,5.27c-14.51,3.09-61.29,9-41.16-49.26A4.77,4.77,0,0,1,96.12,87.58Z"/><path class="cls-6" d="M428.86,56.94c-17.91,6.61-60.62,27.78-67,81a8.28,8.28,0,0,0,6.49,9.1c25.07,5.35,105.89,15.57,71.1-85.09A8.23,8.23,0,0,0,428.86,56.94Z"/><path class="cls-7" d="M418.79,87.58c-10.37,3.82-35.09,16.08-38.77,46.9a4.79,4.79,0,0,0,3.75,5.27c14.52,3.09,61.3,9,41.16-49.26A4.76,4.76,0,0,0,418.79,87.58Z"/><circle class="cls-8" cx="180.53" cy="245.62" r="63.08"/><circle class="cls-9" cx="180.19" cy="249.11" r="48.56"/><circle class="cls-8" cx="180.19" cy="249.11" r="12.65"/><circle class="cls-8" cx="202.7" cy="228.37" r="9.87"/><circle class="cls-8" cx="339" cy="245.62" r="63.08"/><circle class="cls-9" cx="338.67" cy="249.11" r="48.56"/><circle class="cls-8" cx="338.67" cy="249.11" r="12.65"/><circle class="cls-8" cx="361.18" cy="228.37" r="9.87"/><path class="cls-10" d="M250.62,284.07c-22.82,13.45-63.3,46.57-21.61,96.19a33.44,33.44,0,0,0,33.13,11.36c18.32-4.36,36.28-24.75,7.08-101A12.93,12.93,0,0,0,250.62,284.07Z"/><path class="cls-11" d="M241.24,380.26a34.16,34.16,0,0,0,19.66,11.62A33.51,33.51,0,0,1,229,380.26c-41.7-49.62-1.2-82.75,21.61-96.19a12.78,12.78,0,0,1,12.62-.22l-.39.22C240,297.51,199.55,330.64,241.24,380.26Z"/><circle class="cls-12" cx="256" cy="319.04" r="15.29"/><circle class="cls-12" cx="268.3" cy="350.73" r="9.51"/><circle class="cls-12" cx="242.34" cy="365.85" r="9.51"/><path class="cls-9" d="M360.55,383.78c0,19.4-18.2,36.52-45.9,46.64-16.67,6.09-36.79,9.65-58.46,9.65s-41.78-3.56-58.45-9.65c-27.7-10.12-45.91-27.24-45.91-46.64a30.91,30.91,0,0,1,1.15-8.34,5.15,5.15,0,0,1,8.82-2.09,64.32,64.32,0,0,0,11.58,10.24c19.08,13.39,49.08,22,82.81,22s63.74-8.65,82.81-22a64.4,64.4,0,0,0,11.59-10.24,5.15,5.15,0,0,1,8.83,2.09A31.29,31.29,0,0,1,360.55,383.78Z"/><path class="cls-13" d="M314.65,430.42c-16.67,6.09-36.79,9.65-58.46,9.65s-41.78-3.56-58.45-9.65c9.7-4.81,22.83-8.4,37.84-10.13a180.67,180.67,0,0,1,41.23,0C291.81,422,304.93,425.61,314.65,430.42Z"/><path class="cls-8" d="M339,383.59l-12.19,23.22a5.09,5.09,0,0,1-7.94,1.38l-5.32-4.88L299.89,419a5.09,5.09,0,0,1-6.44,1l-7.76-4.63-27,14.95a5.08,5.08,0,0,1-4.93,0l-27-14.95L218.94,420a5.08,5.08,0,0,1-6.43-1l-13.67-15.66-5.32,4.88a5.09,5.09,0,0,1-7.94-1.38l-12.19-23.22c19.07,13.39,49.07,22,82.81,22S319.93,397,339,383.59Z"/><circle class="cls-14" cx="335.82" cy="124.23" r="16.6"/><circle class="cls-14" cx="311.37" cy="99.78" r="11.76"/></g></svg>