<svg xmlns="http://www.w3.org/2000/svg" viewBox="0 0 512 512"><defs><style>.cls-1{fill:#934cf5;}.cls-2{fill:#f58d89;}.cls-3{fill:#e27d7d;}.cls-4{fill:#fff;}.cls-5{fill:#41c0e3;}.cls-6{fill:#27273d;}.cls-7{fill:#db1b1b;}</style></defs><title>50 Monsters Avatar Icons</title><g id="BULINE"><circle class="cls-1" cx="256" cy="256" r="256"/></g><g id="Icons"><path class="cls-2" d="M270,93.22C265.66,75,254.13,45.85,223.21,28.1a4.86,4.86,0,0,0-6.83,6.27c4.22,9,9,21.9,10,35.35a4.87,4.87,0,0,1-7.25,4.62C204.38,66,168.25,52.77,121.14,85a4.86,4.86,0,0,0,2.68,8.86c10.37.21,24,1.88,34.56,8.16a4.86,4.86,0,0,1-1.67,9C130.65,115.11,65,131.85,48.19,196.86A4.86,4.86,0,0,0,55.76,202l.54-.39c4.62-3.35,10.29,2.64,6.63,7C47.17,227.42,37.31,267,58,349.84a4.87,4.87,0,0,0,9.24.63c2.25-5.62,5.36-11.57,9.46-15.77A4.86,4.86,0,0,1,85,337.61c2.35,22.37,14.52,86.92,77.5,125.25a4.86,4.86,0,0,0,7.37-3.93c.66-13.42,1.55-38.41-1.43-30.4-1.63,4.42,21.86,54.88,85.81,56.26a4.87,4.87,0,0,0,4.46-7.09c-2.37-4.61-5.4-10.79-7.55-16.28a4.86,4.86,0,0,1,6.24-6.3c11.87,4.39,35.26,10.57,68.23,7.83a4.88,4.88,0,0,0,4-2.74l8.16-16.95a4.87,4.87,0,0,1,8.53-.44,61.18,61.18,0,0,1,5.6,11.44,4.86,4.86,0,0,0,7.48,2.27c13.16-9.76,43.73-35.69,46.42-67.72a4.86,4.86,0,0,1,8.39-2.9l4.11,4.39a4.86,4.86,0,0,0,7.62-.67c9.45-14.59,33.08-58.17,8-97a4.86,4.86,0,0,1,5.82-7.2l13.84,5.38a4.86,4.86,0,0,0,6.45-3.2c5.18-18.48,18.74-82.8-30.41-121.27a4.87,4.87,0,0,1,1.31-8.36c4.6-1.78,10.84-3.16,17.33-1.52a4.91,4.91,0,0,0,5.59-6.8c-8.38-18.83-29.14-52.86-70-53.51a4.88,4.88,0,0,1-4.8-4.17c-1.17-8.41-5.66-27-22.62-33.47a4.87,4.87,0,0,0-6.62,5.13c.93,7.11,1.18,18.18-4.07,26.7a4.83,4.83,0,0,1-7,1.34c-10.71-7.78-42.21-26.88-59.92,2.89A4.85,4.85,0,0,1,270,93.22Z"/><path class="cls-3" d="M122,337.62c1.93,18.39,10.5,65.3,48.5,102.69-.08,6.18-.37,13.31-.63,18.63a4.87,4.87,0,0,1-7.38,3.92C99.54,424.53,87.37,360,85,337.62a4.86,4.86,0,0,0-8.29-2.91c-4.11,4.19-7.21,10.14-9.46,15.76a4.87,4.87,0,0,1-9.24-.63C37.3,267,47.17,227.42,62.92,208.62c3.67-4.37-2-10.36-6.62-7l-.54.39a4.86,4.86,0,0,1-7.58-5.13c16.84-65,82.47-81.76,108.53-85.89a4.87,4.87,0,0,0,1.67-9c-10.52-6.28-24.19-8-34.56-8.16A4.86,4.86,0,0,1,121.13,85C153.26,63,180.28,62.18,198.91,66.53c-12.3,2.7-26,8.33-40.78,18.43a4.86,4.86,0,0,0,2.69,8.85c10.37.21,24,1.88,34.56,8.16a4.87,4.87,0,0,1-1.67,9c-26.06,4.13-91.69,20.87-108.53,85.89A4.86,4.86,0,0,0,92.76,202l.54-.39c4.62-3.35,10.29,2.64,6.62,7C84.17,227.42,74.3,267,95,349.84a4.87,4.87,0,0,0,9.24.63c2.25-5.62,5.35-11.57,9.46-15.76A4.86,4.86,0,0,1,122,337.62Z"/><circle class="cls-3" cx="195.26" cy="200.22" r="96.51"/><circle class="cls-3" cx="342.72" cy="164.98" r="68.45"/><circle class="cls-4" cx="195.26" cy="200.22" r="82.82"/><circle class="cls-4" cx="342.72" cy="158.11" r="59.28"/><circle class="cls-5" cx="195.26" cy="200.22" r="49.26"/><circle class="cls-6" cx="195.26" cy="200.22" r="31.11"/><circle class="cls-4" cx="195.26" cy="200.22" r="10.89"/><circle class="cls-4" cx="216.15" cy="171.77" r="10.89"/><circle class="cls-5" cx="342.72" cy="158.11" r="31.11"/><circle class="cls-6" cx="342.72" cy="158.11" r="19.65"/><circle class="cls-4" cx="342.72" cy="158.11" r="6.88"/><circle class="cls-4" cx="355.91" cy="140.14" r="6.88"/><path class="cls-6" d="M345.58,355A174.48,174.48,0,0,1,321,376.45c-15.39,11-35.41,21-57.29,21s-41.9-10-57.3-21A175.06,175.06,0,0,1,181.75,355a10,10,0,0,1,0-13.68,175.15,175.15,0,0,1,23.51-20.69,126.59,126.59,0,0,1,28.92-16.05,86.36,86.36,0,0,1,22-5.36,71.55,71.55,0,0,1,7.49-.39,77,77,0,0,1,17.11,2,93.57,93.57,0,0,1,16.45,5.44,131.16,131.16,0,0,1,26.44,15.56,174.86,174.86,0,0,1,21.91,19.51A9.93,9.93,0,0,1,345.58,355Z"/><path class="cls-7" d="M321,376.45c-15.39,11-35.41,21-57.29,21s-41.9-10-57.3-21a125.41,125.41,0,0,1,27.81-15.25,86.36,86.36,0,0,1,22-5.36,71.55,71.55,0,0,1,7.49-.39,77,77,0,0,1,17.11,2,93.57,93.57,0,0,1,16.45,5.44A128.14,128.14,0,0,1,321,376.45Z"/><path class="cls-4" d="M235.67,316.69c0,15.61-6.84,28.25-15.28,28.25-7.73,0-14.11-10.59-15.13-24.36a126.59,126.59,0,0,1,28.92-16.05A48.57,48.57,0,0,1,235.67,316.69Z"/><path class="cls-4" d="M323.67,321.76c-2.81,5.64-6.82,9.18-11.28,9.18-7.8,0-14.23-10.79-15.16-24.74A131.16,131.16,0,0,1,323.67,321.76Z"/><path class="cls-4" d="M283.44,316.69c0,15.61-6.84,28.25-15.28,28.25s-15.28-12.64-15.28-28.25a45,45,0,0,1,3.3-17.52,71.55,71.55,0,0,1,7.49-.39,77,77,0,0,1,17.11,2A46.42,46.42,0,0,1,283.44,316.69Z"/><circle class="cls-3" cx="380.52" cy="272.27" r="22.19"/><circle class="cls-3" cx="342.72" cy="300.64" r="15.69"/><circle class="cls-3" cx="336.05" cy="264" r="9.51"/><circle class="cls-3" cx="407.67" cy="355.45" r="9.51"/><circle class="cls-3" cx="384.84" cy="324.73" r="17"/><circle class="cls-3" cx="367.84" cy="370.77" r="17"/></g></svg>