<svg xmlns="http://www.w3.org/2000/svg" viewBox="0 0 512 512"><defs><style>.cls-1{fill:#f55b4b;}.cls-2{fill:#e88032;}.cls-3{fill:#ce6f30;}.cls-4{fill:#fff;}.cls-5{fill:#dddad9;}.cls-6{fill:#b0d46c;}.cls-7{fill:#a5c462;}.cls-8{fill:#27273d;}.cls-9{fill:#db1b1b;}.cls-10{fill:#c5e286;}.cls-11{fill:#00e577;}.cls-12{fill:#00b564;}</style></defs><title>50 Monsters Avatar Icons</title><g id="BULINE"><circle class="cls-1" cx="256" cy="256" r="256"/></g><g id="Icons"><path class="cls-2" d="M83.49,62.5,83,79.69a18.26,18.26,0,0,0,3.66,11.5l49,65.18L182,121.54l-49-65.19a18.3,18.3,0,0,0-10-6.72L106.39,45.3A18.31,18.31,0,0,0,83.49,62.5Z"/><path class="cls-3" d="M99.1,44.9A18.23,18.23,0,0,0,97.45,52L97,69.2a18.36,18.36,0,0,0,3.66,11.5l49,65.19-14,10.48-49-65.18A18.33,18.33,0,0,1,83,79.69L83.5,62.5A18.31,18.31,0,0,1,99.1,44.9Z"/><rect class="cls-4" x="95.81" y="78.75" width="58.01" height="29.84" transform="translate(-31.24 93.73) rotate(-36.91)"/><rect class="cls-5" x="99.88" y="90.93" width="17.46" height="29.84" transform="translate(-41.8 86.44) rotate(-36.91)"/><path class="cls-2" d="M418.36,50.31l-17.07,2a18.3,18.3,0,0,0-10.84,5.3l-57.37,57.93,41.22,40.81,57.36-57.93a18.2,18.2,0,0,0,5.19-10.89l1.86-17.09A18.29,18.29,0,0,0,418.36,50.31Z"/><path class="cls-3" d="M438.05,63.18a18.41,18.41,0,0,0-7.29-.59l-17.06,2a18.33,18.33,0,0,0-10.85,5.3l-57.37,57.93-12.4-12.28,57.37-57.93a18.33,18.33,0,0,1,10.84-5.3l17.07-2A18.32,18.32,0,0,1,438.05,63.18Z"/><rect class="cls-4" x="364.54" y="80.8" width="58.01" height="29.84" transform="translate(181.25 -249.2) rotate(44.72)"/><rect class="cls-5" x="364.22" y="72.73" width="29.84" height="17.46" transform="translate(54.49 293.55) rotate(-45.28)"/><path class="cls-6" d="M420.1,190.88s17.15,20,14.47,51.47l-28.1-17c.09,2.19.15,4.4.15,6.62V463a255.75,255.75,0,0,1-301.28,0V232c0-.44,0-.87,0-1.31L86,242.35c-2.64-31,14-50.88,14.46-51.45h0q-1.44-.54-2.94-1c-.67-.19-1.34-.36-2-.51h0c-.68-.16-1.37-.29-2.06-.41l-1.07-.17c-.7-.11-1.4-.2-2.11-.27h0c-.71-.08-1.42-.14-2.13-.19-17.21-1.16-35.87,5.18-36.4,5.36,14.47-37.69,57.35-47.52,57.35-47.52L91.4,123a109.37,109.37,0,0,1,18.78-.53h0q.51,0,1,.06h0a138.08,138.08,0,0,1,23.55,3.6c4.25,1,8,2.12,11,3.11q1.29-1.38,2.61-2.73c.66-.68,1.33-1.35,2-2s1.36-1.33,2-2q.67-.66,1.38-1.29c.54-.51,1.09-1,1.64-1.5l1.17-1c.47-.42.94-.84,1.42-1.24l1.4-1.18.13-.1c.79-.67,1.6-1.33,2.41-2q1.69-1.36,3.44-2.67l1.52-1.13q2.16-1.59,4.38-3.1l.83-.56,1-.67,2.1-1.36.28-.18c.94-.59,1.89-1.17,2.84-1.75s2-1.2,3-1.78a148.47,148.47,0,0,1,13.44-6.81,150.56,150.56,0,0,1,160,24.12,151.75,151.75,0,0,1,13.39,13.21,144.06,144.06,0,0,1,32.07-8.13q3.56-.48,7.34-.77a112.31,112.31,0,0,1,21.54.35l-17.69,23.19s42.88,9.83,57.35,47.52C468.2,193.51,439.18,183.64,420.1,190.88Z"/><path class="cls-7" d="M190.85,96.13q-5.91,10.68-11.19,22.27-1.66,3.63-3.24,7.35a383.64,383.64,0,0,0-18.5,54.67,455.26,455.26,0,0,0-12.68,74.69q-1.81,21-1.84,42.81c0,19.33,1.11,42.34,3.23,66.93.55,6.31,1.16,12.73,1.84,19.22,3.89,37.3,9.93,76.82,17.8,111.75A254.89,254.89,0,0,1,105.34,463V232c0-.44,0-.87,0-1.31L86,242.35c-2.64-31,14-50.88,14.46-51.45h0c-1-.37-1.93-.69-2.93-1-.67-.19-1.34-.36-2-.51h0c-.68-.16-1.37-.29-2.06-.41l-1.07-.17c-.7-.11-1.4-.2-2.11-.27h0c-.71-.08-1.42-.14-2.13-.19-17.21-1.16-35.87,5.18-36.4,5.36,14.47-37.69,57.35-47.52,57.35-47.52L91.4,123a109.37,109.37,0,0,1,18.78-.53h0q.51,0,1,.06h0a138.08,138.08,0,0,1,23.55,3.6c4.25,1,8,2.12,11,3.11q1.29-1.38,2.61-2.73c.66-.68,1.33-1.35,2-2s1.36-1.33,2-2q.67-.66,1.38-1.29c.54-.51,1.09-1,1.64-1.5l1.17-1c.47-.42.94-.84,1.42-1.24l1.4-1.18.13-.1c.79-.68,1.6-1.33,2.41-2q1.69-1.36,3.44-2.67l1.52-1.13q2.16-1.59,4.38-3.1h0l.82-.56,1-.67,2.1-1.36.28-.18c.94-.59,1.89-1.17,2.84-1.75s2-1.2,3-1.78C184.53,99.31,187.66,97.66,190.85,96.13Z"/><circle class="cls-7" cx="257.42" cy="235.74" r="113.83"/><path class="cls-8" d="M366,375.86a113.88,113.88,0,0,1-220.11-.12C142.54,363,154.37,351.3,167,355.08l2.81.83a321.39,321.39,0,0,0,32.18,7.6A299.56,299.56,0,0,0,239.9,368a287.72,287.72,0,0,0,32.17.06,296.38,296.38,0,0,0,34.3-3.81,311.5,311.5,0,0,0,32.18-7.21c2.1-.59,4.19-1.2,6.29-1.84A16.93,16.93,0,0,1,366,375.86Z"/><path class="cls-9" d="M326.93,435.66a113.83,113.83,0,0,1-141.88,0,113.83,113.83,0,0,1,141.88,0Z"/><circle class="cls-10" cx="385.95" cy="317.2" r="17.45"/><circle class="cls-10" cx="385.95" cy="280.84" r="12.36"/><circle class="cls-4" cx="257.42" cy="235.74" r="101.02"/><circle class="cls-11" cx="257.42" cy="235.74" r="68.26"/><circle class="cls-12" cx="257.42" cy="235.74" r="55.4"/><circle class="cls-8" cx="257.42" cy="235.74" r="37.18"/><circle class="cls-4" cx="257.42" cy="235.74" r="11.81"/><circle class="cls-4" cx="281.03" cy="210.37" r="11.81"/><path class="cls-4" d="M202,363.51v13a16.09,16.09,0,0,1-32.18,0V355.91A321.39,321.39,0,0,0,202,363.51Z"/><path class="cls-4" d="M338.55,357.07v19.48a16.09,16.09,0,0,1-32.18,0V364.28A311.5,311.5,0,0,0,338.55,357.07Z"/><path class="cls-4" d="M272.07,368.09v23.22A16.09,16.09,0,0,1,256,407.41h0a16.09,16.09,0,0,1-16.08-16.1V368A287.72,287.72,0,0,0,272.07,368.09Z"/></g></svg>