<svg xmlns="http://www.w3.org/2000/svg" viewBox="0 0 512 512"><defs><style>.cls-1{fill:#27273d;}.cls-2{fill:#db1b1b;}.cls-3{fill:#c61a1a;}.cls-4{fill:#fff;}.cls-5{fill:#3586cb;}.cls-6{fill:#fc715a;}.cls-7{fill:#4acc97;}.cls-8{fill:#38c487;}.cls-9{fill:#68e0ac;}.cls-10{fill:#a65c3b;}</style></defs><title>50 Monsters Avatar Icons</title><g id="BULINE"><circle class="cls-1" cx="256" cy="256" r="256"/></g><g id="Icons"><path class="cls-2" d="M424.31,270.82a231.55,231.55,0,0,1,13.13,77.33c0,42.39-11.19,81.78-30.39,114.56a255.67,255.67,0,0,1-300.57,1.1c-19.6-33-31-72.8-31-115.66a232.59,232.59,0,0,1,10.14-68.28q1.41-4.58,3-9.05h0c-1-.45-1.91-.91-2.86-1.39s-1.87-1-2.79-1.48c-1.85-1-3.66-2.11-5.43-3.26A90.14,90.14,0,0,1,38.27,171c.3-1.46.63-2.91,1-4.35s.78-2.86,1.22-4.27c.65-2.11,1.39-4.2,2.19-6.24.54-1.36,1.11-2.71,1.71-4a92,92,0,0,1,5.08-9.63c.75-1.23,1.53-2.45,2.34-3.65s1.65-2.37,2.51-3.53S56.08,133,57,131.9a89.83,89.83,0,0,1,69.45-32.75c3,0,5.95.15,8.87.43,1.94.2,3.87.45,5.77.76,2.86.47,5.68,1.08,8.44,1.81h0c-.05-1-.08-2-.08-3a67,67,0,0,1,67-67l1.8,0,.65,0h.16q.84,0,1.68.09c.58,0,1.16.08,1.74.13l.62.06c.63.06,1.25.13,1.87.21s1,.13,1.49.21l.28,0,.88.14.94.16,1,.19c.54.1,1.09.22,1.63.34s1.19.27,1.78.42c.81.21,1.62.43,2.42.66l1.76.55c.66.21,1.3.43,1.94.66s1.13.41,1.69.63c.71.28,1.41.57,2.11.87,1.25.53,2.47,1.1,3.68,1.71.6.31,1.2.62,1.79.94a67.22,67.22,0,0,1,30.12,33.51,78.33,78.33,0,0,1,128.65,27.82,90,90,0,0,1,17.23,169.28Z"/><path class="cls-3" d="M248.31,40.21a67,67,0,0,0-51.49,65.19c0,1,0,2,.07,3-.7-.19-1.41-.36-2.12-.53q-3.74-.9-7.59-1.48a91.94,91.94,0,0,0-13.36-1q-4.37,0-8.61.41A89.94,89.94,0,0,0,83.82,195.4c0,1.13,0,2.26.06,3.38v0a89.57,89.57,0,0,0,16.26,48.28,90.41,90.41,0,0,0,35.81,30,228.92,228.92,0,0,0-11.72,51.48,236.9,236.9,0,0,0-1.41,25.86c0,56.15,19.65,107.07,51.52,144.3a255.16,255.16,0,0,1-67.86-34.89c-19.6-33-31-72.8-31-115.66a232.59,232.59,0,0,1,10.14-68.28q1.4-4.58,3-9.06c-1-.45-1.91-.91-2.86-1.39s-1.87-1-2.79-1.48c-1.85-1-3.66-2.11-5.43-3.26a90.94,90.94,0,0,1-14.65-11.86A90.14,90.14,0,0,1,38.27,171c.3-1.46.63-2.91,1-4.35s.78-2.86,1.22-4.27c.65-2.11,1.39-4.2,2.19-6.24.54-1.36,1.11-2.71,1.71-4a90.14,90.14,0,0,1,5.08-9.63c.75-1.23,1.53-2.45,2.34-3.65s1.64-2.37,2.51-3.53S56.08,133,57,131.9a89.83,89.83,0,0,1,69.45-32.75c3,0,5.95.15,8.87.43,1.94.19,3.87.44,5.77.76a84.29,84.29,0,0,1,8.44,1.8c-.05-1-.08-2-.08-3a67,67,0,0,1,67-67l1.8,0,.65,0h.16q.84,0,1.68.09c.58,0,1.16.08,1.74.13l.62.06c.63.06,1.25.13,1.87.21s1,.13,1.49.21l.28,0,.88.14.94.16,1,.19c.54.1,1.09.22,1.63.34s1.19.27,1.78.42c.81.21,1.62.43,2.42.66l1.76.55c.66.21,1.3.43,1.94.66s1.13.41,1.69.63c.71.28,1.41.57,2.11.87,1.24.53,2.47,1.1,3.68,1.71C247.12,39.58,247.72,39.89,248.31,40.21Z"/><circle class="cls-4" cx="398.47" cy="189.38" r="62"/><circle class="cls-5" cx="398.47" cy="192.81" r="36.59"/><circle class="cls-1" cx="398.13" cy="192.81" r="27.41"/><circle class="cls-4" cx="414.45" cy="173.95" r="8.55"/><circle class="cls-4" cx="398.13" cy="192.81" r="10.31"/><circle class="cls-4" cx="119.79" cy="188.26" r="62"/><circle class="cls-5" cx="119.79" cy="191.69" r="36.59"/><circle class="cls-1" cx="119.45" cy="191.69" r="27.41"/><circle class="cls-4" cx="135.77" cy="172.83" r="8.55"/><circle class="cls-4" cx="119.45" cy="191.69" r="10.31"/><circle class="cls-4" cx="336.46" cy="99.82" r="32.72"/><circle class="cls-5" cx="336.46" cy="101.63" r="19.31"/><circle class="cls-1" cx="336.29" cy="101.63" r="14.46"/><circle class="cls-4" cx="344.9" cy="91.68" r="4.51"/><circle class="cls-4" cx="336.29" cy="101.63" r="5.44"/><circle class="cls-4" cx="218.72" cy="104.96" r="53.52"/><circle class="cls-5" cx="218.72" cy="107.92" r="31.59"/><circle class="cls-1" cx="218.44" cy="107.92" r="23.66"/><circle class="cls-4" cx="232.53" cy="91.64" r="7.38"/><circle class="cls-4" cx="218.44" cy="107.92" r="8.9"/><rect class="cls-1" x="191.09" y="305.04" width="120.71" height="53.78" rx="26.89"/><circle class="cls-6" cx="144.32" cy="299.65" r="35.18"/><circle class="cls-6" cx="369.18" cy="299.65" r="35.18"/><path class="cls-7" d="M260.67,270.45h-8.46c-16.91,0-31.53-16.6-35.09-39.84l-3.55-23.24c-1.67-10.93,4.26-21.25,12.22-21.25h61.3c8,0,13.89,10.32,12.22,21.25l-3.55,23.24C292.2,253.85,277.59,270.45,260.67,270.45Z"/><path class="cls-8" d="M262.85,270.34c-.72.07-1.45.1-2.18.1h-8.46c-16.91,0-31.53-16.6-35.09-39.84l-3.55-23.23c-1.67-10.93,4.26-21.25,12.22-21.25H238.6c-8,0-13.89,10.32-12.22,21.25l3.55,23.23C233.34,252.84,246.87,269,262.85,270.34Z"/><circle class="cls-9" cx="272.25" cy="234.22" r="11.99"/><circle class="cls-9" cx="272.25" cy="209.25" r="8.49"/><path class="cls-4" d="M213.29,305h24.78a0,0,0,0,1,0,0v11.54A10.08,10.08,0,0,1,228,326.65h-4.63a10.08,10.08,0,0,1-10.08-10.08V305A0,0,0,0,1,213.29,305Z"/><path class="cls-4" d="M263.76,305h24.78a0,0,0,0,1,0,0v11.54a10.08,10.08,0,0,1-10.08,10.08h-4.63a10.08,10.08,0,0,1-10.08-10.08V305A0,0,0,0,1,263.76,305Z"/><path class="cls-4" d="M254.44,337.21h24.78a0,0,0,0,1,0,0v11.54a10.08,10.08,0,0,1-10.08,10.08h-4.63a10.08,10.08,0,0,1-10.08-10.08V337.21a0,0,0,0,1,0,0Z" transform="translate(533.66 696.03) rotate(180)"/><path class="cls-4" d="M223.68,337.21h24.78a0,0,0,0,1,0,0v11.54a10.08,10.08,0,0,1-10.08,10.08h-4.63a10.08,10.08,0,0,1-10.08-10.08V337.21A0,0,0,0,1,223.68,337.21Z" transform="translate(472.14 696.03) rotate(180)"/><circle class="cls-10" cx="169.11" cy="377.65" r="21.98"/><circle class="cls-10" cx="218.72" cy="387.15" r="15.65"/><circle class="cls-10" cx="191.09" cy="412.73" r="9.93"/><circle class="cls-10" cx="151.85" cy="419.49" r="9.93"/><circle class="cls-10" cx="201.01" cy="444.97" r="9.93"/><circle class="cls-10" cx="340.7" cy="377.65" r="21.98"/><circle class="cls-10" cx="291.08" cy="387.15" r="15.65"/><circle class="cls-10" cx="318.72" cy="412.73" r="9.93"/><circle class="cls-10" cx="357.96" cy="419.49" r="9.93"/><circle class="cls-10" cx="308.79" cy="444.97" r="9.93"/></g></svg>