<svg xmlns="http://www.w3.org/2000/svg" viewBox="0 0 512 512"><defs><style>.cls-1{fill:#7cc8fb;}.cls-2{fill:#f58d89;}.cls-3{fill:#e28181;}.cls-4{fill:#fff;}.cls-5{fill:#3586cb;}.cls-6{fill:#27273d;}.cls-7{fill:#d67676;}.cls-8{fill:#fab3a7;}.cls-9{fill:#cd88f8;}</style></defs><title>50 Monsters Avatar Icons</title><g id="BULINE"><circle class="cls-1" cx="256" cy="256" r="256"/></g><g id="Icons"><path class="cls-2" d="M441.6,330.49a173.1,173.1,0,0,1-7.4,109.3A255.18,255.18,0,0,1,256,512q-5.64,0-11.22-.25A255.27,255.27,0,0,1,70.56,432.49a0,0,0,0,1,0,0v0a173.18,173.18,0,0,1-9.18-76.72q.32-3,.74-6c.14-1,.29-2,.45-3q.46-3,1-5.88,1.42-7.34,3.47-14.45C36,287.05,41.09,238.35,50.52,205c2.71-9.61,15.84-10.43,20-1.34.59,1.28,1.21,2.54,1.87,3.77,1,1.85,2.06,3.63,3.2,5.36q1.14,1.74,2.37,3.39,1.85,2.49,3.86,4.8c.9,1,1.82,2,2.76,3,9.39,9.81,20.79,17.2,31.08,22.54a194,194,0,0,1,55.56-37.33q-1.46-1.65-2.83-3.35c-.46-.57-.92-1.14-1.37-1.72q-1.35-1.74-2.63-3.52a109.4,109.4,0,0,1-20.32-56.34,65.73,65.73,0,0,1-7.36-2,68.05,68.05,0,0,1-12.17-5.55q-1.55-.9-3-1.86a80.81,80.81,0,0,1-12.57-10.14q-2-2-3.84-4c-.77-.83-1.51-1.68-2.23-2.53-.47-.55-.93-1.12-1.39-1.68-.91-1.12-1.79-2.26-2.64-3.39a0,0,0,0,0,0,0c-2.12-2.84-4-5.7-5.78-8.51q-1.56-2.52-2.93-5a6.56,6.56,0,0,1,8.12-9.29c25.14,9.39,58-7.26,59.1-6.68.39-.72.8-1.43,1.21-2.14.08-.14.16-.29.25-.43.42-.72.85-1.43,1.28-2.14s.74-1.18,1.12-1.77c.24-.38.48-.76.74-1.13q2.9-4.39,6.2-8.49,1.5-1.87,3.1-3.67l.45-.52c.54-.6,1.08-1.2,1.63-1.79s1.25-1.32,1.89-2,1.18-1.2,1.79-1.79l.14-.13c.65-.64,1.31-1.26,2-1.88s1.22-1.12,1.85-1.68l.23-.2c1.34-1.19,2.72-2.34,4.12-3.45.71-.57,1.43-1.12,2.16-1.67q2.17-1.66,4.43-3.19c.75-.51,1.51-1,2.28-1.51s1.54-1,2.32-1.46,1.56-.94,2.35-1.4,1.59-.9,2.4-1.34,1.61-.87,2.43-1.29l2.46-1.22c.83-.4,1.67-.79,2.51-1.17l2.53-1.1c.85-.36,1.7-.7,2.57-1s1.72-.66,2.59-1c1.74-.64,3.51-1.23,5.29-1.76.89-.27,1.79-.53,2.69-.78h0A110,110,0,0,1,349.8,82.8c.63-.28,32.32,16.87,57.47,7.48a6.56,6.56,0,0,1,8.12,9.29c-9.46,16.9-26,37.72-51.85,44.17a109.45,109.45,0,0,1-27.18,65.43A194.12,194.12,0,0,1,393.45,248c17-8.39,38.12-22.6,48-44.35,4.15-9.09,17.28-8.27,20,1.34C471.23,239.49,476.33,290.42,441.6,330.49Z"/><path class="cls-3" d="M195.24,403.29c12.08,41,29,77.78,49.54,108.46A255.27,255.27,0,0,1,70.56,432.49h0a172.84,172.84,0,0,1-10.14-58.43,175.65,175.65,0,0,1,1-18.29c.21-2,.46-4,.74-6,.14-1,.29-2,.45-3,.32-2,.66-3.93,1-5.88q1.42-7.34,3.47-14.45C36,287.05,41.09,238.35,50.52,205c2.71-9.61,15.84-10.43,20-1.34.59,1.28,1.21,2.54,1.87,3.77,1,1.85,2.06,3.63,3.2,5.36q1.14,1.74,2.37,3.39,1.85,2.49,3.86,4.8c.9,1,1.82,2,2.76,3,9.39,9.81,20.79,17.2,31.08,22.54a194,194,0,0,1,55.56-37.33h0c-1-1.1-1.91-2.22-2.84-3.35-.46-.57-.92-1.14-1.37-1.72q-1.35-1.74-2.63-3.52a109.4,109.4,0,0,1-20.32-56.34,65.73,65.73,0,0,1-7.36-2,67.36,67.36,0,0,1-12.17-5.55q-1.55-.9-3-1.86a79.77,79.77,0,0,1-12.57-10.14q-2-2-3.84-4c-.77-.83-1.51-1.68-2.23-2.53-.47-.55-.93-1.12-1.39-1.68-.91-1.12-1.79-2.26-2.64-3.39a0,0,0,0,0,0,0c-2.12-2.84-4-5.7-5.78-8.51q-1.56-2.52-2.93-5a6.56,6.56,0,0,1,8.12-9.29c25.14,9.39,58-7.26,59.1-6.68.39-.72.8-1.43,1.21-2.14.08-.14.16-.29.25-.43.42-.72.85-1.43,1.28-2.14s.74-1.18,1.12-1.77c.24-.38.48-.76.74-1.13q2.9-4.39,6.2-8.49,1.5-1.87,3.1-3.67l.45-.52c.54-.6,1.08-1.2,1.63-1.79s1.25-1.32,1.89-2,1.18-1.2,1.79-1.79l.14-.13c.65-.64,1.31-1.26,2-1.88s1.22-1.12,1.85-1.68l.23-.2c1.34-1.18,2.72-2.33,4.12-3.45.71-.57,1.43-1.12,2.16-1.67q2.17-1.65,4.43-3.19c.75-.51,1.51-1,2.28-1.51s1.54-1,2.32-1.46,1.56-.94,2.35-1.4,1.59-.9,2.4-1.34,1.61-.87,2.43-1.29l2.46-1.22c.83-.4,1.67-.79,2.51-1.17l2.53-1.1c.85-.36,1.7-.7,2.57-1s1.72-.66,2.59-1q2.63-.94,5.29-1.76c.89-.27,1.79-.53,2.69-.78a429.59,429.59,0,0,0-31.68,82.74q-5.89,21.6-10,44.64a544.41,544.41,0,0,0-8,77.33q-.3,9.17-.3,18.46c0,2.39,0,4.77.05,7.15q.12,9.72.57,19.32.28,6.19.71,12.34a535.43,535.43,0,0,0,8.17,63.64q1.56,8.25,3.39,16.34,1.51,6.79,3.22,13.46Q192.71,394.74,195.24,403.29Z"/><path class="cls-4" d="M170.15,113.25a85.85,85.85,0,0,0,171.7,0Z"/><path class="cls-5" d="M205.33,118a50.67,50.67,0,0,0,101.34,0Z"/><path class="cls-6" d="M217.58,118a38,38,0,0,0,75.92,0Z"/><path class="cls-4" d="M241.26,118a14.28,14.28,0,0,0,28.56,0Z"/><path class="cls-4" d="M228.79,394.17c.46,1.28,13.43,31.3,21.29,49.49a6,6,0,0,0,11-.31l18.92-51.66Z"/><path class="cls-4" d="M296.08,386.88c1,.95,25.63,22.43,40.58,35.44a5.94,5.94,0,0,0,9.82-5.05l-5.24-54.76Z"/><path class="cls-4" d="M344.87,349.4c1.32.31,33.55,5.89,53.08,9.27a6,6,0,0,0,5.78-9.42l-32.87-44.11Z"/><path class="cls-4" d="M214,386.88c-1,.95-25.64,22.43-40.58,35.44a6,6,0,0,1-9.83-5.05l5.24-54.76Z"/><path class="cls-4" d="M165.17,349.4c-1.32.31-33.55,5.89-53.08,9.27a6,6,0,0,1-5.78-9.42l32.88-44.11Z"/><path class="cls-7" d="M256,404.17a127.14,127.14,0,0,1-127-127,10,10,0,0,1,20,0,107,107,0,1,0,214,0,10,10,0,0,1,20,0A127.14,127.14,0,0,1,256,404.17Z"/><circle class="cls-8" cx="316.28" cy="83.79" r="16.28"/><circle class="cls-8" cx="292.3" cy="59.81" r="11.53"/><circle class="cls-9" cx="174.41" cy="248.02" r="12.81"/><circle class="cls-9" cx="201.16" cy="289.14" r="7.85"/><circle class="cls-9" cx="172.14" cy="286.51" r="6.97"/><circle class="cls-9" cx="194.19" cy="263.84" r="6.97"/><circle class="cls-9" cx="343.46" cy="248.02" r="12.81"/><circle class="cls-9" cx="316.71" cy="289.14" r="7.85"/><circle class="cls-9" cx="345.73" cy="286.51" r="6.97"/><circle class="cls-9" cx="323.68" cy="263.84" r="6.97"/></g></svg>