<svg xmlns="http://www.w3.org/2000/svg" viewBox="0 0 512 512"><defs><style>.cls-1{fill:#27273d;}.cls-2{fill:#41c0e3;}.cls-3{fill:#3eb3ce;}.cls-4{fill:#fff;}.cls-5{fill:#a65c3b;}.cls-6{fill:#fab3a7;}.cls-7{fill:#3eacc6;}.cls-8{fill:#fc715a;}.cls-9{fill:#e56453;}.cls-10{fill:#db1b1b;}.cls-11{fill:#f98878;}</style></defs><title>50 Monsters Avatar Icons</title><g id="BULINE"><circle class="cls-1" cx="256" cy="256" r="256"/></g><g id="Icons"><path class="cls-2" d="M432.3,171.75V421.87a91.68,91.68,0,0,1-2.74,22.31A255.43,255.43,0,0,1,256,512a258.8,258.8,0,0,1-26.26-1.33A254.44,254.44,0,0,1,121,473.53a257.26,257.26,0,0,1-44.33-34.86l-.93-.92a92.4,92.4,0,0,1-1.37-15.88V171.75a91.41,91.41,0,0,1,91.49-91.47h175a91.43,91.43,0,0,1,91.49,91.47Z"/><path class="cls-3" d="M229.74,510.67A254.44,254.44,0,0,1,121,473.53a257.26,257.26,0,0,1-44.33-34.86,92.09,92.09,0,0,1-1.54-16.8V171.75A91.38,91.38,0,0,1,152,81.45a106.48,106.48,0,0,0-5.17,32.9V406.5a106.81,106.81,0,0,0,83,104.17Z"/><circle class="cls-4" cx="152.1" cy="232.56" r="67.19"/><circle class="cls-5" cx="152.1" cy="236.28" r="39.66"/><circle class="cls-1" cx="151.74" cy="236.28" r="29.71"/><circle class="cls-4" cx="169.42" cy="215.84" r="9.26"/><circle class="cls-4" cx="151.74" cy="236.28" r="11.18"/><circle class="cls-4" cx="355.62" cy="232.56" r="67.19"/><circle class="cls-5" cx="355.62" cy="236.28" r="39.66"/><circle class="cls-1" cx="355.26" cy="236.28" r="29.71"/><circle class="cls-4" cx="372.95" cy="215.84" r="9.26"/><circle class="cls-4" cx="355.26" cy="236.28" r="11.18"/><ellipse class="cls-6" cx="140.06" cy="338.27" rx="41.38" ry="22.35"/><ellipse class="cls-6" cx="366.44" cy="338.27" rx="41.38" ry="22.35"/><path class="cls-1" d="M217.15,278.88h77.52a0,0,0,0,1,0,0v0a35.86,35.86,0,0,1-35.86,35.86H253a35.86,35.86,0,0,1-35.86-35.86v0A0,0,0,0,1,217.15,278.88Z"/><path class="cls-7" d="M387,457.39a97.92,97.92,0,0,1-2,19.77A254.75,254.75,0,0,1,256,512a258.8,258.8,0,0,1-26.26-1.33A254.44,254.44,0,0,1,121,473.53a97.92,97.92,0,0,1-1.34-16.14c0-25.82,10.11-49.62,27.15-68.71,24.41-27.36,63.05-45,106.54-45C327.15,343.66,387,394.57,387,457.39Z"/><path class="cls-4" d="M236.76,278.88h42.3a0,0,0,0,1,0,0v4.61a16.26,16.26,0,0,1-16.26,16.26H253a16.26,16.26,0,0,1-16.26-16.26v-4.61A0,0,0,0,1,236.76,278.88Z"/><path class="cls-8" d="M382.73,59.52H123.91A66.93,66.93,0,0,0,57,126.45v69a40.71,40.71,0,0,0,40.7,40.71h16.76a40.71,40.71,0,0,0,40.71-40.71,40.71,40.71,0,0,0,40.7,40.71h16.76a40.71,40.71,0,0,0,40.71-40.71A40.71,40.71,0,0,0,294,236.11h16.76a40.71,40.71,0,0,0,40.71-40.71,40.71,40.71,0,0,0,40.7,40.71H409a40.71,40.71,0,0,0,40.71-40.71V126.45A66.94,66.94,0,0,0,382.73,59.52Z"/><path class="cls-9" d="M161.9,59.52a106.59,106.59,0,0,0-15.12,54.83V221.08a40.59,40.59,0,0,1-31.58,15H98.44a40.71,40.71,0,0,1-40.7-40.7V126.45a66.92,66.92,0,0,1,66.92-66.93Z"/><path class="cls-10" d="M124,69.06,51.16,26.57a4.08,4.08,0,0,0-5.95,4.76L72.63,118a14.94,14.94,0,0,0,25.14,5.71l29.6-31.57A14.94,14.94,0,0,0,124,69.06Z"/><path class="cls-10" d="M387,69.06l72.83-42.49a4.08,4.08,0,0,1,5.95,4.76L438.39,118a14.94,14.94,0,0,1-25.14,5.71l-29.6-31.57A14.94,14.94,0,0,1,387,69.06Z"/><circle class="cls-11" cx="414.76" cy="196.3" r="19.49"/><circle class="cls-11" cx="414.76" cy="155.7" r="13.8"/></g></svg>