<svg xmlns="http://www.w3.org/2000/svg" viewBox="0 0 512 512"><defs><style>.cls-1{fill:#fc4581;}.cls-2{fill:#27273d;}.cls-3{fill:#32314b;}.cls-4{fill:#fff;}.cls-5{fill:#3e436d;}.cls-6{fill:#e88032;}.cls-7{fill:#d16d2a;}</style></defs><title>50 Monsters Avatar Icons</title><g id="BULINE"><circle class="cls-1" cx="256" cy="256" r="256"/></g><g id="Icons"><path class="cls-2" d="M371,465.05a52.27,52.27,0,0,1-5,22.17,256.49,256.49,0,0,1-220,0,52.27,52.27,0,0,1-5-22.17,54.36,54.36,0,0,1,9.59-30.31,81.08,81.08,0,0,1,20-20.44c19.94-14.55,48.33-24,80.06-24.92,1.76-.05,3.53-.08,5.31-.08s3.59,0,5.37.09c44.84,1.35,83,19.62,100,45.35A54.36,54.36,0,0,1,371,465.05Z"/><path class="cls-3" d="M476.82,240.49c-1.49-30.33-23.83-54.86-36.8-66.62a4.35,4.35,0,0,1,2.93-7.56h8.12a4.33,4.33,0,0,0,3.9-6.25c-12.14-23.74-44.66-30.25-62.73-32a4.34,4.34,0,0,1-1.56-8.19A165.18,165.18,0,0,1,413,111a4.36,4.36,0,0,0,1.81-7.12c-25.13-27.18-63.27-28.69-81.36-27.65a4.34,4.34,0,0,1-3.64-7.07l7.49-9.26A4.35,4.35,0,0,0,335.07,53c-34.36-9.87-50.18-4.67-56.42-.89a4.33,4.33,0,0,1-6-1.57L259.76,28.15a4.35,4.35,0,0,0-7.52,0L239.32,50.51a4.33,4.33,0,0,1-6,1.57c-6.24-3.78-22.06-9-56.42.89a4.35,4.35,0,0,0-2.18,6.92l7.49,9.26a4.34,4.34,0,0,1-3.64,7.07c-18.09-1-56.23.47-81.36,27.65A4.36,4.36,0,0,0,99.05,111a165.18,165.18,0,0,1,22.27,8.86,4.34,4.34,0,0,1-1.56,8.19c-18.07,1.77-50.59,8.28-62.73,32a4.33,4.33,0,0,0,3.9,6.25h8.12A4.35,4.35,0,0,1,72,173.87c-13,11.76-35.31,36.29-36.8,66.62a4.36,4.36,0,0,0,6.36,4.07c7.05-3.65,18.81-8.9,29-9.39a4.35,4.35,0,0,1,3.69,7C63.91,255.8,40.59,290.85,43.1,325.65a4.34,4.34,0,0,0,6,3.65l8.66-3.71a4.34,4.34,0,0,1,6,4.48c-1,8.26.62,22.81,15.08,43.31a4.34,4.34,0,0,0,5.49,1.36l5.8-2.9a4.34,4.34,0,0,1,6.08,2.56c4,12.46,18.65,45.61,66.14,66a4.35,4.35,0,0,0,6-3.27h0a4.34,4.34,0,0,1,8-1.55C185.57,450.42,207.76,474,256,474s70.43-23.55,79.62-38.36a4.34,4.34,0,0,1,8,1.55h0a4.35,4.35,0,0,0,6,3.27c47.49-20.42,62.17-53.57,66.14-66a4.34,4.34,0,0,1,6.08-2.56l5.8,2.9a4.34,4.34,0,0,0,5.49-1.36c14.46-20.5,16.06-35.05,15.08-43.31a4.34,4.34,0,0,1,6-4.48l8.66,3.71a4.34,4.34,0,0,0,6-3.65c2.51-34.8-20.81-69.85-31.12-83.52a4.35,4.35,0,0,1,3.69-7c10.18.49,21.94,5.74,29,9.39A4.36,4.36,0,0,0,476.82,240.49Z"/><path class="cls-2" d="M280.24,471.74A125.75,125.75,0,0,1,256,474c-48.24,0-70.43-23.55-79.62-38.36a4.33,4.33,0,0,0-8,1.55,4.35,4.35,0,0,1-6,3.27c-47.49-20.42-62.17-53.57-66.14-66a4.34,4.34,0,0,0-6.08-2.56l-5.8,2.9a4.34,4.34,0,0,1-5.49-1.37c-14.46-20.49-16.06-35-15.08-43.3a4.34,4.34,0,0,0-6-4.48l-8.66,3.71a4.34,4.34,0,0,1-6-3.65c-2.51-34.8,20.81-69.86,31.12-83.52a4.35,4.35,0,0,0-3.69-7c-10.18.48-21.94,5.74-29,9.39a4.36,4.36,0,0,1-6.36-4.07C36.67,210.16,59,185.63,72,173.87a4.35,4.35,0,0,0-2.93-7.56H60.93a4.33,4.33,0,0,1-3.9-6.25c12.14-23.74,44.66-30.25,62.73-32a4.34,4.34,0,0,0,1.56-8.19A165.18,165.18,0,0,0,99.05,111a4.36,4.36,0,0,1-1.81-7.12c25.13-27.18,63.27-28.7,81.36-27.65a4.34,4.34,0,0,0,3.64-7.07l-7.49-9.26A4.35,4.35,0,0,1,176.93,53c31.89-9.16,47.81-5.34,54.92-1.73-2.07.52-4.22,1.09-6.44,1.73a4.35,4.35,0,0,0-2.18,6.92l7.5,9.26a4.35,4.35,0,0,1-3.65,7.07c-18.09-1-56.23.47-81.36,27.65a4.36,4.36,0,0,0,1.81,7.12,165.18,165.18,0,0,1,22.27,8.86,4.34,4.34,0,0,1-1.56,8.19c-18.07,1.77-50.59,8.28-62.73,32a4.33,4.33,0,0,0,3.9,6.25h8.12a4.35,4.35,0,0,1,2.93,7.56c-13,11.76-35.31,36.29-36.8,66.62A4.36,4.36,0,0,0,90,244.56c7-3.65,18.81-8.91,29-9.39a4.35,4.35,0,0,1,3.69,7c-10.31,13.66-33.63,48.72-31.12,83.52a4.34,4.34,0,0,0,6,3.65l8.66-3.71a4.34,4.34,0,0,1,6,4.48c-1,8.26.62,22.81,15.08,43.3a4.34,4.34,0,0,0,5.49,1.37l5.8-2.9a4.34,4.34,0,0,1,6.08,2.56c4,12.46,18.65,45.61,66.14,66a4.35,4.35,0,0,0,6-3.27,4.33,4.33,0,0,1,8-1.55C232.35,447.67,248.45,465.53,280.24,471.74Z"/><circle class="cls-4" cx="196.33" cy="271.14" r="40.67"/><circle class="cls-2" cx="196.33" cy="271.14" r="22.77"/><path class="cls-4" d="M256,356.8l-74.57-25.08,6.39,26.18a3,3,0,0,0,4.82,1.55l3.66-3.15,7.31,16.45a3,3,0,0,0,5.07.61L213,367.8,222.23,380a3,3,0,0,0,4.13.59l6.45-4.77a6,6,0,0,1,8.26,1.14l12.61,16.34a3,3,0,0,0,4.7,0L271,376.92a6,6,0,0,1,8.26-1.14l6.45,4.77a3,3,0,0,0,4.13-.59l9.23-12.16,4.29,5.56a3,3,0,0,0,5.06-.61l7.31-16.45,3.66,3.15a3,3,0,0,0,4.83-1.55l6.38-26.18Z"/><path class="cls-5" d="M256,362.61a104.76,104.76,0,0,1-74.57-30.89,7.5,7.5,0,1,1,10.61-10.6,90.46,90.46,0,0,0,127.92,0,7.5,7.5,0,0,1,10.6,10.6A104.72,104.72,0,0,1,256,362.61Z"/><circle class="cls-5" cx="355.24" cy="120.98" r="13.61"/><circle class="cls-5" cx="335.19" cy="100.93" r="9.64"/><circle class="cls-4" cx="196.33" cy="271.14" r="8"/><circle class="cls-4" cx="309.61" cy="271.14" r="40.67"/><circle class="cls-2" cx="309.61" cy="271.14" r="22.77"/><circle class="cls-4" cx="309.61" cy="271.14" r="8"/><ellipse class="cls-2" cx="166.11" cy="160.64" rx="22.64" ry="10.78" transform="translate(-59.34 211.3) rotate(-56.71)"/><ellipse class="cls-2" cx="344.83" cy="160.64" rx="10.78" ry="22.64" transform="translate(-31.58 215.66) rotate(-33.29)"/><path class="cls-6" d="M165.11,167.51a75.17,75.17,0,0,0-27.47,17.15A65.5,65.5,0,0,0,121,212.47c-1.71,5.61-4.73,13.08-9.81,19.31C88.78,259.29,47.24,226,68.48,197.61c4.26-5.69,10.43-11.77,19.19-18.09,0,0,44.6-34.54,77.32-23.74A6.2,6.2,0,0,1,165.11,167.51Z"/><path class="cls-7" d="M165.12,167.5a75.3,75.3,0,0,0-27.48,17.16A65.5,65.5,0,0,0,121,212.47c-1.71,5.61-4.73,13.08-9.8,19.31-7.43,9.13-17,11.56-25.63,9.71,5.31-1.18,10.51-4.25,15-9.71,5.07-6.23,8.09-13.7,9.81-19.31A65.4,65.4,0,0,1,127,184.66a75.27,75.27,0,0,1,27.47-17.16,6.2,6.2,0,0,0-.12-11.72,41.23,41.23,0,0,0-8.61-1.82A46.9,46.9,0,0,1,165,155.78,6.2,6.2,0,0,1,165.12,167.5Z"/><path class="cls-6" d="M347.7,167.51a75.12,75.12,0,0,1,27.48,17.15,65.5,65.5,0,0,1,16.64,27.81c1.71,5.61,4.73,13.08,9.8,19.31,22.41,27.51,64-5.75,42.71-34.17-4.25-5.69-10.42-11.77-19.18-18.09,0,0-44.6-34.54-77.32-23.74A6.21,6.21,0,0,0,347.7,167.51Z"/><path class="cls-7" d="M427.26,241.49c-8.66,1.85-18.2-.58-25.63-9.71-5.08-6.23-8.1-13.7-9.81-19.31a65.5,65.5,0,0,0-16.64-27.81,75.36,75.36,0,0,0-27.47-17.16,6.2,6.2,0,0,1,.12-11.72A46.9,46.9,0,0,1,367.1,154a41.28,41.28,0,0,0-8.6,1.82,6.2,6.2,0,0,0-.13,11.72,75.3,75.3,0,0,1,27.48,17.16,65.5,65.5,0,0,1,16.64,27.81c1.71,5.61,4.73,13.08,9.8,19.31C416.74,237.24,421.94,240.31,427.26,241.49Z"/></g></svg>